<?xml version="1.0" encoding="utf-8"?>
<!-- Generator: Adobe Illustrator 19.2.1, SVG Export Plug-In . SVG Version: 6.00 Build 0)  -->
<svg version="1.0" id="Слой_1" xmlns="http://www.w3.org/2000/svg" xmlns:xlink="http://www.w3.org/1999/xlink" x="0px" y="0px"
	 viewBox="0 0 100 100" style="enable-background:new 0 0 100 100;" xml:space="preserve">
<style type="text/css">
	.st0{fill:none;stroke:#FFFFFF;stroke-width:2;stroke-miterlimit:10;}
	.st1{fill:none;stroke:#FFFFFF;stroke-width:2;stroke-linecap:round;stroke-linejoin:round;}
</style>
<g>
	<path class="st0" d="M39.2,21.7V10.9c0-3.2,2.6-5.8,5.8-5.8h35.2c3.2,0,5.8,2.6,5.8,5.8v61.6c0,3.2-2.6,5.8-5.8,5.8H60.8"/>
	<line class="st0" x1="45.7" y1="15.4" x2="79.5" y2="15.4"/>
	<line class="st0" x1="60.8" y1="27.6" x2="79.5" y2="27.6"/>
	<line class="st0" x1="60.8" y1="37.6" x2="79.5" y2="37.6"/>
	<line class="st0" x1="60.8" y1="47.4" x2="79.5" y2="47.4"/>
	<line class="st0" x1="60.8" y1="56.2" x2="79.5" y2="56.2"/>
	<line class="st0" x1="60.8" y1="65" x2="79.5" y2="65"/>
	<line class="st1" x1="60.8" y1="47.4" x2="60.8" y2="56.2"/>
	<path class="st1" d="M39.2,21.7H19.8c-3.2,0-5.8,2.6-5.8,5.8v61.6c0,3.2,2.6,5.8,5.8,5.8H55c3.2,0,5.8-2.6,5.8-5.8V78.3"/>
	<line class="st1" x1="60.8" y1="56.2" x2="60.8" y2="65"/>
	<line class="st1" x1="60.8" y1="27.6" x2="60.8" y2="37.6"/>
	<line class="st1" x1="60.8" y1="78.3" x2="60.8" y2="65"/>
	<line class="st1" x1="60.8" y1="47.4" x2="60.8" y2="37.6"/>
	<path class="st1" d="M39.2,21.7H55c3.2,0,5.8,2.6,5.8,5.8v0.1"/>
	<polyline class="st0" points="20.5,32 39.2,32 54.3,32 	"/>
	<polyline class="st0" points="20.5,44.1 39.2,44.1 54.3,44.1 	"/>
	<polyline class="st0" points="54.3,54.1 39.2,54.1 20.5,54.1 	"/>
	<polyline class="st0" points="20.5,64 39.2,64 54.3,64 	"/>
	<polyline class="st0" points="54.3,72.8 39.2,72.8 20.5,72.8 	"/>
	<line class="st0" x1="54.3" y1="81.6" x2="20.5" y2="81.6"/>
</g>
<g>
</g>
<g>
</g>
<g>
</g>
<g>
</g>
<g>
</g>
<g>
</g>
<g>
</g>
<g>
</g>
<g>
</g>
<g>
</g>
<g>
</g>
</svg>
