<?xml version="1.0" encoding="utf-8"?>
<!-- Generator: Adobe Illustrator 19.2.1, SVG Export Plug-In . SVG Version: 6.00 Build 0)  -->
<svg version="1.0" id="Слой_1" xmlns="http://www.w3.org/2000/svg" xmlns:xlink="http://www.w3.org/1999/xlink" x="0px" y="0px"
	 viewBox="0 0 500 500" style="enable-background:new 0 0 500 500;" xml:space="preserve">
<style type="text/css">
	.st0{fill:#FBB03B;}
	.st1{fill:#FFFFFF;}
	.st2{stroke:#000000;stroke-miterlimit:10;}
	.st3{fill:#333333;stroke:#000000;stroke-miterlimit:10;}
	.st4{fill:#ED1C24;}
	.st5{opacity:0.64;fill:#ED1C24;}
	.st6{fill:#E6E6E6;}
	.st7{fill:#F2F2F2;}
	.st8{fill:#CCCCCC;}
	.st9{fill:#B3B3B3;}
	.st10{fill:#29ABE2;}
	.st11{fill:#ED963E;}
	.st12{fill:#E8842A;}
	.st13{fill:#4D4D4D;}
	.st14{fill:#F9D59B;}
	.st15{fill:#EF70BF;}
	.st16{fill:#ED98D1;}
	.st17{fill:none;stroke:#000000;stroke-miterlimit:10;}
	.st18{fill:#93278F;}
</style>
<g>
	<g>
		<path class="st0" d="M113.2,312.7c-13.3-7.7-13.3-20.4,0-28.1l125.5-72.4c13.3-7.7,35.1-7.7,48.5,0.1l163.7,95
			c13.3,7.7,13.3,20.4,0,28.1l-125.3,72.4c-13.3,7.7-35.1,7.7-48.5,0L113.2,312.7z"/>
	</g>
	<path class="st1" d="M126.8,291.3L257,216.1c2.5-1.4,5.5-1.4,8,0l166.8,96.3c5.3,3.1,5.3,10.7,0,13.8l-130.2,75.2
		c-2.5,1.4-5.5,1.4-8,0l-166.9-96.3C121.5,302,121.5,294.4,126.8,291.3z"/>
	<path class="st2" d="M123.7,260.9c0-4.4,0-4.4,0-4.4s68.2-17.9,91.6-31.4c0,4.4,0,0,0,4.4l-73.1,42.2L123.7,260.9z"/>
	<polygon class="st3" points="123.7,256.5 196.8,214.3 215.3,225.1 142.3,267.3 	"/>
	<path class="st4" d="M434.1,184.8c20.1,11.6,20.1,30.6,0,42.2c-20.1,11.6-53,11.6-73.1,0c-20.1-11.6-20.1-30.6,0-42.2
		C381.1,173.2,414,173.2,434.1,184.8z"/>
	<rect x="346" y="109.4" class="st5" width="103.2" height="96.1"/>
	<path class="st4" d="M434.1,184.7c20.1,11.6,20.1,30.6,0,42.2c-20.1,11.6-53,11.6-73.1,0c-20.1-11.6-20.1-30.6,0-42.2
		C381.1,173.1,414,173.1,434.1,184.7z"/>
	<g>
		<path class="st6" d="M436.6,87.5c21.4,12.4,21.4,32.6,0,45s-56.5,12.4-78,0c-21.4-12.4-21.4-32.6,0-45
			C380,75.1,415.1,75.1,436.6,87.5z"/>
		<rect x="342.5" y="91.3" class="st6" width="110.2" height="18.7"/>
		<path class="st7" d="M436.6,68.8c21.4,12.4,21.4,32.6,0,45s-56.5,12.4-78,0s-21.4-32.6,0-45S415.1,56.4,436.6,68.8z"/>
	</g>
	<g>
		<path class="st8" d="M365.9,157.4v32c18.6,8.3,44.9,8.3,63.4,0v-32C410.7,165.8,384.4,165.8,365.9,157.4z"/>
	</g>
	<g>
		<polygon class="st6" points="231,278.4 199.1,296.8 199.1,260 262.8,260 		"/>
		<polygon class="st9" points="262.8,260 199.1,296.8 262.8,296.8 262.8,260 		"/>
		<g>
			<polygon class="st10" points="225.6,266.2 209.8,275.3 204.5,272.2 220.3,263.1 			"/>
			<polygon class="st10" points="220.3,275.3 204.5,266.2 209.8,263.1 225.6,272.2 			"/>
		</g>
		<polygon class="st4" points="257.5,284.5 241.6,293.7 236.3,290.6 252.2,281.5 		"/>
	</g>
	<g>
		<path class="st11" d="M116.6,180.1c20.1,11.6,20.1,30.6,0,42.2c-20.1,11.6-53,11.6-73.1,0c-20.1-11.6-20.1-30.6,0-42.2
			C63.6,168.5,96.5,168.5,116.6,180.1z"/>
		<rect x="28.5" y="104.7" class="st11" width="103.2" height="96.1"/>
		<path class="st12" d="M116.6,180c20.1,11.6,20.1,30.6,0,42.2c-20.1,11.6-53,11.6-73.1,0c-20.1-11.6-20.1-30.6,0-42.2
			C63.6,168.4,96.5,168.4,116.6,180z"/>
		<g>
			<path class="st6" d="M119.1,82.8c21.4,12.4,21.4,32.6,0,45s-56.5,12.4-78,0s-21.4-32.6,0-45S97.6,70.4,119.1,82.8z"/>
			<rect x="25" y="86.6" class="st6" width="110.2" height="18.7"/>
			<path class="st7" d="M119.1,64.1c21.4,12.4,21.4,32.6,0,45s-56.5,12.4-78,0s-21.4-32.6,0-45S97.6,51.7,119.1,64.1z"/>
		</g>
		<g>
			<path class="st8" d="M48.4,152.8v32c18.6,8.3,44.9,8.3,63.4,0v-32C93.2,161.1,66.9,161.1,48.4,152.8z"/>
		</g>
	</g>
	<g>
		<polygon class="st13" points="65.5,347.7 58.1,337.5 58.4,336.7 70.7,338.6 		"/>
		<polygon class="st14" points="79.6,361.5 65.5,347.7 70.6,338.6 89.1,343.9 		"/>
		<g>
			<path class="st14" d="M72.1,341.4c0,2.5-1.6,5.4-3.6,6.6c-2,1.1-3.6,0.1-3.6-2.4c0-2.5,1.6-5.4,3.6-6.6
				C70.5,337.8,72.1,338.9,72.1,341.4z"/>
		</g>
		<polygon class="st0" points="184,421.9 80,361.9 89.7,344.1 193.5,403.9 		"/>
		<polygon class="st6" points="197.2,429.8 184.5,422 194.2,404.2 206.7,411.9 		"/>
		<g>
			<path class="st6" d="M196.6,409.4c0,4.7-3.1,10.4-6.9,12.6c-3.8,2.2-6.9,0.1-6.9-4.6s3.1-10.4,6.9-12.6
				C193.4,402.6,196.6,404.6,196.6,409.4z"/>
		</g>
		<g>
			<polygon class="st15" points="218,441.6 197.2,429.8 206.3,411.5 227.4,423.7 			"/>
			<g>
				<path class="st16" d="M229.7,428.6c0,4.7-3.1,10.4-6.9,12.6c-3.8,2.2-6.9,0.1-6.9-4.6s3.1-10.4,6.9-12.6
					C226.6,421.8,229.7,423.9,229.7,428.6z"/>
			</g>
			<g>
				<path class="st15" d="M208.9,416.7c0,4.7-3.1,10.4-6.9,12.6c-3.8,2.2-6.9,0.1-6.9-4.6c0-4.7,3.1-10.4,6.9-12.6
					C205.8,409.9,208.9,412,208.9,416.7z"/>
			</g>
			<g>
				<path class="st15" d="M231,430.5c0,4.1-2.7,9.1-6,11s-6,0.1-6-4s2.7-9.1,6-11C228.3,424.5,231,426.3,231,430.5z"/>
			</g>
			<path class="st17" d="M198,430"/>
		</g>
		<g>
			<path class="st0" d="M92.2,349.3c0,4.7-3.1,10.4-6.9,12.6c-3.8,2.2-6.9,0.1-6.9-4.6c0-4.7,3.1-10.4,6.9-12.6
				C89.1,342.4,92.2,344.5,92.2,349.3z"/>
		</g>
		<g>
			<path class="st13" d="M58.6,336.9c0,0.2-0.1,0.5-0.3,0.5c-0.2,0.1-0.3,0-0.3-0.2s0.1-0.5,0.3-0.5
				C58.5,336.6,58.6,336.7,58.6,336.9z"/>
		</g>
	</g>
	<polygon class="st6" points="351.9,299.4 259.5,352.8 236.3,339.5 328.8,286.1 	"/>
	<polygon class="st6" points="399.2,326.7 352.9,353.4 329.8,340 376,313.3 	"/>
	<polygon class="st10" points="330.3,354.1 298.6,372.4 266.9,354.1 298.6,335.8 	"/>
	<polygon class="st0" points="306.5,290 252.1,321.4 243.2,316.4 297.6,284.9 	"/>
	<polygon class="st18" points="363.4,308 323.8,330.9 317.3,327.2 356.9,304.3 	"/>
</g>
<g>
</g>
<g>
</g>
<g>
</g>
<g>
</g>
<g>
</g>
<g>
</g>
<g>
</g>
<g>
</g>
<g>
</g>
<g>
</g>
<g>
</g>
</svg>
