<?xml version="1.0" encoding="utf-8"?>
<!-- Generator: Adobe Illustrator 19.2.1, SVG Export Plug-In . SVG Version: 6.00 Build 0)  -->
<svg version="1.0" id="Слой_1" xmlns="http://www.w3.org/2000/svg" xmlns:xlink="http://www.w3.org/1999/xlink" x="0px" y="0px"
	 viewBox="0 0 500 500" style="enable-background:new 0 0 500 500;" xml:space="preserve">
<style type="text/css">
	.st0{fill:#83AD49;}
	.st1{fill:#AC6E39;}
	.st2{fill:#EE9A57;}
	.st3{fill:#E3D69F;}
	.st4{fill:#A7854E;}
	.st5{fill:#E8E3D2;}
	.st6{fill:#5AB4CC;}
	.st7{fill:#C4B888;}
	.st8{fill:#608B53;}
	.st9{fill:#CDD4C4;}
	.st10{fill:#8E9CA3;}
	.st11{fill:#A6C3CC;}
	.st12{fill:#236E8C;}
	.st13{fill:#C8D261;}
	.st14{fill:#4E5053;}
	.st15{fill:#FFFFFF;}
	.st16{fill:#768E4A;}
	.st17{fill:#69C9D6;}
	.st18{fill:#AE5D29;}
	.st19{fill:#C7C84D;}
	.st20{fill:#7B441C;}
	.st21{fill:#A5CF63;}
	.st22{fill:#CF793B;}
	.st23{fill:#B36D34;}
	.st24{fill:#92C858;}
	.st25{fill:#C5B1B4;}
	.st26{fill:#636669;}
	.st27{fill:#5D7635;}
	.st28{fill:#E8E3AB;}
	.st29{fill:#434648;}
	.st30{fill:#E2DCDC;}
	.st31{fill:#8A8978;}
	.st32{fill:#5AADBB;}
	.st33{fill:#40858B;}
	.st34{fill:#9CD6CB;}
	.st35{fill:#E9854B;}
	.st36{fill:#B2DCBE;}
	.st37{fill:#A76B45;}
	.st38{fill:#B2B0AF;}
	.st39{fill:#D4C5B6;}
	.st40{fill:#CCD8D9;}
	.st41{fill:#8BD4E4;}
	.st42{fill:#F58B50;}
	.st43{fill:#6B903F;}
	.st44{fill:#F0B660;}
	.st45{fill:#D19B53;}
	.st46{fill:#FFF3BC;}
	.st47{fill:#FBF28F;}
	.st48{fill:#EF5135;}
	.st49{fill:#EDE950;}
	.st50{fill:#609F44;}
	.st51{fill:#CA8532;}
	.st52{fill:#C16E6C;}
	.st53{fill:#845750;}
	.st54{fill:#3E4244;}
	.st55{fill:#EEE7C8;}
	.st56{fill:#5CBAD1;}
	.st57{fill:#B47B42;}
	.st58{fill:#85878C;}
	.st59{fill:#D4D3BA;}
	.st60{fill:#DA594E;}
	.st61{fill:#A5A79B;}
	.st62{fill:#AF4E37;}
	.st63{fill:#E6A458;}
	.st64{fill:#BBB696;}
	.st65{fill:#267998;}
	.st66{fill:#8B8671;}
	.st67{fill:#EFDECB;}
	.st68{fill:#40C1CE;}
	.st69{fill:#686059;}
	.st70{fill:#8CA3A8;}
	.st71{fill:#A4BA4D;}
	.st72{fill:#91722F;}
	.st73{fill:#CAB454;}
	.st74{fill:#2A77B6;}
	.st75{fill:#3EC3DC;}
	.st76{fill:#B5B1A6;}
	.st77{fill:#FFD748;}
	.st78{fill:#77CFE9;}
	.st79{fill:#4B7ABC;}
	.st80{fill:#F1F5DD;}
	.st81{fill:#3D585C;}
	.st82{fill:#4BB866;}
	.st83{fill:#B7DEC9;}
	.st84{fill:#F05834;}
	.st85{fill:#CFCAC1;}
	.st86{fill:#A8A39B;}
	.st87{fill:#8E8983;}
	.st88{fill:#E39A73;}
	.st89{fill:#AEAB99;}
	.st90{fill:#615B50;}
	.st91{fill:#D5CD98;}
	.st92{fill:#C58B6D;}
	.st93{fill:#C52CE5;}
</style>
<g>
	<path class="st0" d="M204.9,259c0,0-2.5,20.5-14,25.9c-11.5,5.4-68.4,39.7-68.4,39.7l-19.7-8L204.9,259z"/>
	<g>
		<polygon class="st1" points="426.5,220.2 405.6,208.1 383.6,220.8 404.6,232.9 		"/>
		<polygon class="st2" points="426.5,221.2 405.6,209.1 383.6,221.8 404.6,233.9 		"/>
		<path class="st3" d="M381.5,220.8l23.1,13.3l24.1-13.9l-23.1-13.3L381.5,220.8z M404.6,232.9l-20.9-12.1l21.9-12.7l20.9,12.1
			L404.6,232.9z"/>
		<polygon class="st4" points="381.5,220.8 404.5,234.1 404.5,253.2 391.8,245.9 391,245.4 381.5,239.9 381.5,227.1 		"/>
		<polygon class="st5" points="404.5,253.2 428.6,239.3 428.6,220.2 404.5,234.1 		"/>
		<polygon class="st6" points="420,240.2 427,236.2 427,229.5 420,233.5 		"/>
		<polygon class="st7" points="427,236.2 420,240.2 420,241 427.6,236.5 		"/>
		<polygon class="st4" points="427,236.2 427,229.5 427.6,229.1 427.6,236.5 		"/>
		<polygon class="st8" points="413.7,246.3 419.2,243.2 419.2,232.9 413.7,236.1 		"/>
		<polygon class="st6" points="416.7,235.4 418.6,234.3 418.6,239.8 416.7,241.8 		"/>
		<polygon class="st6" points="414.3,236.8 416.1,235.7 416.1,242.1 414.3,242.3 		"/>
		<polygon class="st9" points="416.5,241.2 416.8,241.1 416.8,242.2 416.5,242.4 		"/>
		<polygon class="st9" points="416,241.5 416.4,241.3 416.4,242.5 416,242.7 		"/>
		<polygon class="st5" points="416.4,249.5 422,246.3 422,245.5 416.4,248.7 		"/>
		<polygon class="st7" points="416.4,248.7 422,245.5 421.3,245.1 415.7,248.3 		"/>
		<polygon class="st5" points="415.7,248.3 421.3,245.1 421.3,244.3 415.7,247.5 		"/>
		<polygon class="st7" points="415.7,247.5 421.3,244.3 419.2,243.1 413.6,246.4 		"/>
		<polygon class="st4" points="415.7,247.5 415.7,247.5 415.7,248.3 415.7,248.3 415.7,248.3 415.7,248.3 415.7,248.3 416.4,248.7 
			416.4,248.7 416.4,249.5 413.6,247.9 413.6,246.4 		"/>
		<polygon class="st10" points="420,232.2 421.9,233.3 421.9,232.9 420,231.7 		"/>
		<polygon class="st11" points="420,231.7 421.9,232.9 422.1,232.7 420.2,231.6 		"/>
		<polyline class="st10" points="421.7,231.5 421.7,231.5 421.7,231.5 421.7,231.5 		"/>
		<path class="st11" d="M424.8,234.8c0-1.2-0.8-2.6-1.8-3.2c-0.5-0.3-0.9-0.3-1.3-0.1l0.6-0.3c0.3-0.2,0.8-0.1,1.2,0.2
			c1,0.6,1.8,2,1.8,3.2c0,0.6-0.2,1-0.5,1.2l-0.1,0.1l-0.4,0.2C424.6,235.7,424.8,235.3,424.8,234.8"/>
		<polyline class="st10" points="424.2,236 424.2,236 424.1,236 424.2,236 		"/>
		<path class="st12" d="M424.8,234.8c0,1.2-0.8,1.6-1.8,1.1c-1-0.6-1.8-2-1.8-3.2c0-1.2,0.8-1.6,1.8-1.1
			C424,232.2,424.8,233.6,424.8,234.8"/>
		<polygon class="st13" points="424,233.8 423.3,233.4 423.3,232.6 422.5,232.1 422.5,232.9 421.8,232.5 421.8,233.5 422.5,233.9 
			422.5,234.7 423.3,235.2 423.3,234.4 424,234.8 		"/>
		<polygon class="st8" points="411.4,236.2 421.3,230.4 421.3,227.4 411.4,233.2 		"/>
		<polygon class="st6" points="405.3,249.3 412.3,245.2 412.3,238.5 405.3,242.6 		"/>
		<polygon class="st7" points="412.3,245.2 405.3,249.3 405.3,250 412.9,245.6 		"/>
		<polygon class="st4" points="412.3,245.2 412.3,238.5 412.9,238.1 412.9,245.6 		"/>
	</g>
	<g>
		<polygon class="st14" points="530.2,362.7 512,373.4 251.3,226 269.4,215.8 		"/>
		<path class="st15" d="M299.1,241.9l-0.6,0.4l-2.4-1.3l0.6-0.4L299.1,241.9z M294.3,239.2l-0.6,0.4l-2.4-1.3l0.6-0.4L294.3,239.2z
			 M289.5,236.5l-0.6,0.4l-2.4-1.3l0.6-0.4L289.5,236.5z M284.7,233.8l-0.6,0.4l-2.4-1.3l0.6-0.4L284.7,233.8z M279.9,231.2
			l-0.6,0.4l-2.4-1.3l0.6-0.4L279.9,231.2z M275.1,228.5l-0.6,0.4l-2.4-1.3l0.6-0.4L275.1,228.5z M270.3,225.8l-0.6,0.4l-2.4-1.3
			l0.6-0.4L270.3,225.8z M265.5,223.2l-0.6,0.4l-2.4-1.3l0.6-0.4L265.5,223.2z"/>
		<path class="st15" d="M337.8,263.3l-0.6,0.4l-2.4-1.3l0.6-0.4L337.8,263.3z M333,260.6l-0.6,0.4l-2.4-1.3l0.6-0.4L333,260.6z
			 M328.2,257.9l-0.6,0.4l-2.4-1.3l0.6-0.4L328.2,257.9z M323.4,255.2l-0.6,0.4l-2.4-1.3l0.6-0.4L323.4,255.2z M318.6,252.6
			l-0.6,0.4l-2.4-1.3l0.6-0.4L318.6,252.6z M313.8,249.9l-0.6,0.4l-2.4-1.3l0.6-0.4L313.8,249.9z M309,247.2l-0.6,0.4l-2.4-1.3
			l0.6-0.4L309,247.2z M304.2,244.5l-0.6,0.4l-2.4-1.3l0.6-0.4L304.2,244.5z"/>
		<path class="st15" d="M376.2,285l-0.6,0.4l-2.4-1.3l0.6-0.4L376.2,285z M371.3,282.3l-0.6,0.4l-2.4-1.3l0.6-0.4L371.3,282.3z
			 M366.5,279.7l-0.6,0.4l-2.4-1.3l0.6-0.4L366.5,279.7z M361.7,277l-0.6,0.4l-2.4-1.3l0.6-0.4L361.7,277z M356.9,274.3l-0.6,0.4
			l-2.4-1.3l0.6-0.4L356.9,274.3z M352.1,271.6l-0.6,0.4l-2.4-1.3l0.6-0.4L352.1,271.6z M347.3,268.9l-0.6,0.4l-2.4-1.3l0.6-0.4
			L347.3,268.9z M342.5,266.2l-0.6,0.4l-2.4-1.3l0.6-0.4L342.5,266.2z"/>
		<path class="st15" d="M414.6,306.9l-0.6,0.4l-2.4-1.3l0.6-0.4L414.6,306.9z M409.8,304.2l-0.6,0.4l-2.4-1.3l0.6-0.4L409.8,304.2z
			 M405,301.5l-0.6,0.4l-2.4-1.3l0.6-0.4L405,301.5z M400.1,298.8l-0.6,0.4l-2.4-1.3l0.6-0.4L400.1,298.8z M395.3,296.1l-0.6,0.4
			l-2.4-1.3l0.6-0.4L395.3,296.1z M390.5,293.4l-0.6,0.4l-2.4-1.3l0.6-0.4L390.5,293.4z M385.7,290.7l-0.6,0.4l-2.4-1.3l0.6-0.4
			L385.7,290.7z M380.8,288l-0.6,0.4l-2.4-1.3l0.6-0.4L380.8,288z"/>
		<path class="st15" d="M453.2,328.7l-0.6,0.4l-2.4-1.3l0.6-0.4L453.2,328.7z M448.4,326l-0.6,0.4l-2.4-1.3l0.6-0.4L448.4,326z
			 M443.5,323.3l-0.6,0.4l-2.4-1.3l0.6-0.4L443.5,323.3z M438.7,320.6l-0.6,0.4l-2.4-1.3l0.6-0.4L438.7,320.6z M433.8,317.9
			l-0.6,0.4l-2.4-1.3l0.6-0.4L433.8,317.9z M429,315.2l-0.6,0.4l-2.4-1.3l0.6-0.4L429,315.2z M424.2,312.5l-0.6,0.4l-2.4-1.3
			l0.6-0.4L424.2,312.5z M419.3,309.8l-0.6,0.4l-2.4-1.3l0.6-0.4L419.3,309.8z"/>
		<path class="st15" d="M491.9,350.6l-0.6,0.4l-2.4-1.4l0.6-0.4L491.9,350.6z M487,347.9l-0.6,0.4l-2.4-1.4l0.6-0.4L487,347.9z
			 M482.2,345.2l-0.6,0.4l-2.4-1.4l0.6-0.4L482.2,345.2z M477.3,342.5l-0.6,0.4l-2.4-1.4l0.6-0.4L477.3,342.5z M472.5,339.8
			l-0.6,0.4l-2.4-1.4l0.6-0.4L472.5,339.8z M467.6,337.1l-0.6,0.4l-2.4-1.4l0.6-0.4L467.6,337.1z M462.8,334.4l-0.6,0.4l-2.4-1.4
			l0.6-0.4L462.8,334.4z M457.9,331.7l-0.6,0.4l-2.4-1.4l0.6-0.4L457.9,331.7z"/>
		<path class="st15" d="M530.6,372.6L530,373l-2.4-1.4l0.6-0.4L530.6,372.6z M525.8,369.9l-0.6,0.4l-2.4-1.4l0.6-0.4L525.8,369.9z
			 M520.9,367.2l-0.6,0.4l-2.4-1.4l0.6-0.4L520.9,367.2z M516,364.5l-0.6,0.4l-2.4-1.4l0.6-0.4L516,364.5z M511.2,361.8l-0.6,0.4
			l-2.4-1.4l0.6-0.4L511.2,361.8z M506.3,359.1l-0.6,0.4l-2.4-1.4l0.6-0.4L506.3,359.1z M501.4,356.4l-0.6,0.4l-2.4-1.4l0.6-0.4
			L501.4,356.4z M496.6,353.7L496,354l-2.4-1.4l0.6-0.4L496.6,353.7z"/>
	</g>
	<path class="st16" d="M248.5,270.4c-29.5,28.7,44.8,43.9,44.1,86.3c-0.5,31.5-41.4,37.1-62.7,38l-111.5-64.6l83.1-48.1l7.6-26.7
		c8.1-0.3,17.7-1.2,24.5-3.6C247.5,246.7,278.1,241.7,248.5,270.4"/>
	<path class="st0" d="M403.8,319.6l-152,87.8l-21.9-12.6c21.4-0.8,62.3-6.5,62.7-38c0.6-42.3-73.7-57.6-44.1-86.3
		c29.5-28.7-1-23.7-14.9-18.7c-6.7,2.4-16.3,3.3-24.5,3.6l41.7-24.1L403.8,319.6z"/>
	<path class="st17" d="M235.3,338.6c-2.8,15.9,52.4,18.3,28.9,34.2c-23.4,15.9-49.8,4.9-71-9.9c-21.2-14.8-28-54.8,19.4-60.2
		C260,297.3,238.8,318.8,235.3,338.6"/>
	<path class="st18" d="M298.8,344c0,0,0.1,3.8,0.1,4.8c0,0.9,2.2,1,2.2-0.3c-0.1-2.4-0.1-4.5-0.1-4.5L298.8,344z"/>
	<polygon class="st19" points="293.2,335.8 294.5,342 300,345.3 304.8,341.5 306.4,335.4 304.3,329.6 299.5,326.9 294.1,329.5 	"/>
	<path class="st20" d="M314.8,280.5v10.9c0,0.9,2.2,1,2.2-0.3v-10.6H314.8z"/>
	<polygon class="st21" points="307.3,277.8 310.3,283.1 316.1,284.7 321.2,282.1 323.3,277.4 320.9,272.9 315.7,271.9 310.1,272.6 	
		"/>
	<path class="st22" d="M167.2,319.8v10.9c0,0.9,2.2,1,2.2-0.3v-10.6H167.2z"/>
	<polygon class="st19" points="159.7,317.1 162.7,322.3 168.5,324 173.6,321.4 175.7,316.7 173.3,312.2 168.1,311.2 162.5,311.9 	
		"/>
	<path class="st23" d="M298.7,280.3v5.9c0,0.9,2.2,0.9,2.2-0.2v-5.6H298.7z"/>
	<polygon class="st19" points="293.4,274.9 295.3,279.4 299.7,281.3 303.8,279.1 306.1,274.6 304.4,269.6 299.3,268.4 294.8,270.2 	
		"/>
	<path class="st23" d="M167.7,301.1v5.9c0,0.9,2.2,0.9,2.2-0.2v-5.6H167.7z"/>
	<polygon class="st24" points="162.4,295.7 164.3,300.2 168.7,302.1 172.7,299.9 175.1,295.4 173.4,290.4 168.3,289.2 163.7,291 	
		"/>
	<path class="st22" d="M309.5,347.8v6.3c0,0.9,2.2,1,2.2-0.3v-6.1H309.5z"/>
	<polygon class="st24" points="304.2,342 306.1,346.9 310.5,348.8 314.6,346.5 316.9,341.7 315.2,336.3 310.1,335 305.6,336.9 	"/>
	<path class="st18" d="M186,298.6v4.8c0,0.9,2.2,1,2.2-0.3v-4.5H186z"/>
	<polygon class="st24" points="180.2,291 181.5,297.2 186.9,299.2 192.1,296.9 192.5,290.7 190.9,285 186.4,282.3 182.5,285.4 	"/>
	<path class="st18" d="M209,284.6v4.8c0,0.9,2.2,1,2.2-0.3v-4.5H209z"/>
	<polygon class="st19" points="203.2,277.1 204.4,283.2 209.8,285.3 215,282.9 215.5,276.7 213.8,271 209.3,268.4 205.5,271.5 	"/>
	<polygon class="st25" points="312.2,309.8 312.4,307.6 312.8,307.9 312.6,310 	"/>
	<polygon class="st26" points="314.3,308.6 313.9,306.9 314.3,307.1 314.7,308.8 	"/>
	<polygon class="st25" points="305.1,305.6 305.3,303.5 305.7,303.7 305.5,305.9 	"/>
	<polygon class="st20" points="313,308 314.6,307.1 314.6,307.2 313,308.1 305.1,303.5 305.1,303.4 	"/>
	<polygon class="st23" points="305.1,303.4 306.6,302.5 314.6,307.1 313,308 	"/>
	<polygon class="st23" points="306.9,300.2 307,300.1 315,304.8 314.7,306.9 314.6,306.9 314.9,304.8 	"/>
	<polygon class="st20" points="306.7,302.3 306.9,300.2 314.9,304.8 314.6,306.9 	"/>
	<path class="st18" d="M201.2,288.7c0,0,0.1,3.8,0.1,4.8c0,0.9,2.2,1,2.2-0.3c-0.1-2.4-0.1-4.5-0.1-4.5L201.2,288.7z"/>
	<polygon class="st27" points="195.5,280.4 196.8,286.6 202.3,289.9 207.1,286.1 208.7,280 206.7,274.2 201.8,271.5 196.4,274.1 	
		"/>
	<path class="st22" d="M215.3,292.9v6.3c0,0.9,2.2,1,2.2-0.3v-6.1H215.3z"/>
	<polygon class="st24" points="210,287.2 211.9,292 216.3,294 220.3,291.6 222.7,286.8 221,281.5 215.9,280.1 211.3,282 	"/>
	<path class="st20" d="M176.3,300.1V311c0,0.9,2.2,1,2.2-0.3v-10.6H176.3z"/>
	<polygon class="st19" points="168.7,297.5 171.8,302.7 177.5,304.3 182.7,301.7 184.8,297 182.4,292.5 177.2,291.5 171.6,292.2 	
		"/>
	<path class="st28" d="M322,326.7l-57.5-33.2c-7-4-9.8-9.9-7.4-15.4l15.2-34.6l7.9,4.5l-13.8,31.5c-1.6,3.6,0.3,7.5,4.9,10.2
		l57.5,33.2c4.2,2.4,7,5.5,7.9,8.9l6.4,22.9l-8.3,4.8l-7.5-26.9C326.5,330.4,324.7,328.4,322,326.7"/>
	<polygon class="st29" points="320.5,314.7 321.8,314.7 321.6,303.4 320.8,303.4 	"/>
	<path class="st29" d="M319.9,314c-0.7,0.4-0.7,1.1,0,1.5c0.7,0.4,1.8,0.4,2.5,0c0.7-0.4,0.7-1.1,0-1.5
		C321.7,313.6,320.6,313.6,319.9,314"/>
	<path class="st29" d="M320.6,310.8c-0.3,0.2-0.3,0.5,0,0.7c0.3,0.2,0.9,0.2,1.2,0c0.3-0.2,0.3-0.5,0-0.7
		C321.4,310.6,320.9,310.6,320.6,310.8"/>
	<path class="st29" d="M320.6,304.6c-0.3,0.2-0.3,0.5,0,0.7c0.3,0.2,0.9,0.2,1.2,0c0.3-0.2,0.3-0.5,0-0.7
		C321.4,304.4,320.9,304.4,320.6,304.6"/>
	<path class="st30" d="M319.2,301.5c0,1.1,0.9,1.9,2,1.9c1.1,0,1.9-0.9,1.9-1.9c0-1.1-0.9-1.9-1.9-1.9
		C320.1,299.5,319.2,300.4,319.2,301.5"/>
	<polygon class="st29" points="280.5,266.8 281.8,266.8 281.6,255.4 280.8,255.4 	"/>
	<path class="st29" d="M279.9,266c-0.7,0.4-0.7,1.1,0,1.5c0.7,0.4,1.8,0.4,2.5,0c0.7-0.4,0.7-1.1,0-1.5
		C281.7,265.6,280.6,265.6,279.9,266"/>
	<path class="st29" d="M280.6,262.8c-0.3,0.2-0.3,0.5,0,0.7c0.3,0.2,0.9,0.2,1.2,0c0.3-0.2,0.3-0.5,0-0.7
		C281.4,262.6,280.9,262.6,280.6,262.8"/>
	<path class="st29" d="M280.6,256.6c-0.3,0.2-0.3,0.5,0,0.7c0.3,0.2,0.9,0.2,1.2,0c0.3-0.2,0.3-0.5,0-0.7
		C281.4,256.4,280.9,256.4,280.6,256.6"/>
	<path class="st30" d="M279.2,253.5c0,1.1,0.9,1.9,1.9,1.9c1.1,0,1.9-0.9,1.9-1.9c0-1.1-0.9-1.9-1.9-1.9
		C280.1,251.6,279.2,252.5,279.2,253.5"/>
	<polygon class="st29" points="281.4,291.8 282.7,291.8 282.4,280.5 281.6,280.5 	"/>
	<path class="st29" d="M280.8,291.1c-0.7,0.4-0.7,1.1,0,1.5c0.7,0.4,1.8,0.4,2.5,0c0.7-0.4,0.7-1.1,0-1.5
		C282.6,290.7,281.5,290.6,280.8,291.1"/>
	<path class="st29" d="M281.4,287.9c-0.3,0.2-0.3,0.5,0,0.7c0.3,0.2,0.9,0.2,1.2,0c0.3-0.2,0.3-0.5,0-0.7
		C282.3,287.7,281.8,287.7,281.4,287.9"/>
	<path class="st29" d="M281.4,281.6c-0.3,0.2-0.3,0.5,0,0.7c0.3,0.2,0.9,0.2,1.2,0c0.3-0.2,0.3-0.5,0-0.7
		C282.3,281.4,281.8,281.4,281.4,281.6"/>
	<path class="st30" d="M280.1,278.6c0,1.1,0.9,1.9,2,1.9c1.1,0,1.9-0.9,1.9-1.9c0-1.1-0.9-1.9-1.9-1.9
		C281,276.6,280.1,277.5,280.1,278.6"/>
	<polygon class="st29" points="345.2,345.4 346.6,345.4 346.3,334 345.5,334 	"/>
	<path class="st29" d="M345.3,335.2c-0.3,0.2-0.3,0.5,0,0.7c0.3,0.2,0.9,0.2,1.2,0c0.3-0.2,0.3-0.5,0-0.7
		C346.2,335,345.6,335,345.3,335.2"/>
	<path class="st30" d="M344,332.1c0,1.1,0.9,1.9,1.9,1.9c1.1,0,2-0.9,2-1.9c0-1.1-0.9-2-2-2C344.8,330.2,344,331.1,344,332.1"/>
	<polygon class="st20" points="229.4,315.7 244.9,315.7 245.7,315.5 229.4,315.5 	"/>
	<polygon class="st18" points="229.4,315.5 245.7,315.5 246.1,313.4 229.8,313.4 	"/>
	<polygon class="st18" points="242.5,317 242.8,317.2 243.1,317 243.1,315.7 242.5,315.7 	"/>
	<polygon class="st18" points="238.4,317.6 238.7,317.8 239.1,317.6 239.1,315.7 238.4,315.7 	"/>
	<polygon class="st18" points="234.3,317.6 234.6,317.8 235,317.6 235,315.7 234.3,315.7 	"/>
	<polygon class="st18" points="230.2,317.6 230.6,317.8 230.9,317.6 230.9,315.7 230.2,315.7 	"/>
	<polygon class="st25" points="295.4,300.2 295.6,298.1 296,298.3 295.8,300.4 	"/>
	<polygon class="st26" points="297.5,299 297.1,297.3 297.5,297.6 297.9,299.2 	"/>
	<polygon class="st25" points="288.3,296 288.5,293.9 288.9,294.2 288.7,296.3 	"/>
	<polygon class="st20" points="296.2,298.4 297.8,297.5 297.8,297.6 296.2,298.5 288.3,293.9 288.3,293.8 	"/>
	<polygon class="st23" points="288.3,293.8 289.8,292.9 297.8,297.5 296.2,298.4 	"/>
	<polygon class="st23" points="290.1,290.6 290.2,290.6 298.2,295.2 297.9,297.3 297.8,297.4 298.1,295.2 	"/>
	<polygon class="st20" points="289.9,292.8 290.1,290.6 298.1,295.2 297.8,297.4 	"/>
	<g>
		<polygon class="st14" points="110.8,290.5 128.7,300.8 383.8,148.5 365.9,138.2 		"/>
		<path class="st15" d="M339.1,163.9l0.6,0.3l-2.4,1.4l-0.6-0.3L339.1,163.9z M343.9,161.1l0.6,0.3l-2.4,1.4l-0.6-0.3L343.9,161.1z
			 M348.6,158.4l0.6,0.3l-2.4,1.4l-0.6-0.3L348.6,158.4z M353.4,155.6l0.6,0.3l-2.4,1.4L351,157L353.4,155.6z M358.1,152.9l0.6,0.3
			l-2.4,1.4l-0.6-0.3L358.1,152.9z M362.8,150.2l0.6,0.3l-2.4,1.4l-0.6-0.3L362.8,150.2z M367.6,147.4l0.6,0.3l-2.4,1.4l-0.6-0.3
			L367.6,147.4z M372.3,144.7l0.6,0.3l-2.4,1.4l-0.6-0.3L372.3,144.7z"/>
		<path class="st15" d="M300.9,185.8l0.6,0.3l-2.4,1.4l-0.6-0.3L300.9,185.8z M305.7,183l0.6,0.3l-2.4,1.4l-0.6-0.3L305.7,183z
			 M310.4,180.3l0.6,0.3l-2.4,1.4l-0.6-0.3L310.4,180.3z M315.2,177.5l0.6,0.3l-2.4,1.4l-0.6-0.3L315.2,177.5z M319.9,174.8l0.6,0.3
			l-2.4,1.4l-0.6-0.3L319.9,174.8z M324.7,172.1l0.6,0.3l-2.4,1.4l-0.6-0.3L324.7,172.1z M329.4,169.3l0.6,0.3l-2.4,1.4l-0.6-0.3
			L329.4,169.3z M334.1,166.6l0.6,0.3l-2.4,1.4l-0.6-0.3L334.1,166.6z"/>
		<path class="st15" d="M263.2,207.9l0.6,0.3l-2.4,1.4l-0.6-0.3L263.2,207.9z M267.9,205.2l0.6,0.3l-2.4,1.4l-0.6-0.3L267.9,205.2z
			 M272.6,202.5l0.6,0.3l-2.4,1.4l-0.6-0.3L272.6,202.5z M277.4,199.7l0.6,0.3l-2.4,1.4l-0.6-0.3L277.4,199.7z M282.1,197l0.6,0.3
			l-2.4,1.4l-0.6-0.3L282.1,197z M286.9,194.3l0.6,0.3l-2.4,1.4l-0.6-0.3L286.9,194.3z M291.6,191.5l0.6,0.3l-2.4,1.4l-0.6-0.3
			L291.6,191.5z M296.3,188.8l0.6,0.3l-2.4,1.4l-0.6-0.3L296.3,188.8z"/>
		<path class="st15" d="M225.4,230.1l0.6,0.3l-2.4,1.4l-0.6-0.3L225.4,230.1z M230.1,227.4l0.6,0.3l-2.4,1.4l-0.6-0.3L230.1,227.4z
			 M234.8,224.7l0.6,0.3l-2.4,1.4l-0.6-0.3L234.8,224.7z M239.6,221.9l0.6,0.3l-2.4,1.4l-0.6-0.3L239.6,221.9z M244.3,219.2l0.6,0.3
			l-2.4,1.4l-0.6-0.3L244.3,219.2z M249.1,216.5l0.6,0.3l-2.4,1.4l-0.6-0.3L249.1,216.5z M253.8,213.7l0.6,0.3l-2.4,1.4l-0.6-0.3
			L253.8,213.7z M258.5,211l0.6,0.3l-2.4,1.4l-0.6-0.3L258.5,211z"/>
		<path class="st15" d="M187.6,252.3l0.6,0.3l-2.4,1.4l-0.6-0.3L187.6,252.3z M192.3,249.6l0.6,0.3l-2.4,1.4l-0.6-0.3L192.3,249.6z
			 M197,246.9l0.6,0.3l-2.4,1.4l-0.6-0.3L197,246.9z M201.8,244.1l0.6,0.3l-2.4,1.4l-0.6-0.3L201.8,244.1z M206.5,241.4l0.6,0.3
			l-2.4,1.4l-0.6-0.3L206.5,241.4z M211.3,238.7l0.6,0.3l-2.4,1.4l-0.6-0.3L211.3,238.7z M216,235.9l0.6,0.3l-2.4,1.4l-0.6-0.3
			L216,235.9z M220.7,233.2l0.6,0.3l-2.4,1.4l-0.6-0.3L220.7,233.2z"/>
		<path class="st15" d="M149.8,274.5l0.6,0.3l-2.4,1.4l-0.6-0.3L149.8,274.5z M154.5,271.8l0.6,0.3l-2.4,1.4l-0.6-0.3L154.5,271.8z
			 M159.2,269.1l0.6,0.3l-2.4,1.4l-0.6-0.3L159.2,269.1z M164,266.3l0.6,0.3l-2.4,1.4l-0.6-0.3L164,266.3z M168.7,263.6l0.6,0.3
			l-2.4,1.4l-0.6-0.3L168.7,263.6z M173.5,260.8l0.6,0.3l-2.4,1.4l-0.6-0.3L173.5,260.8z M178.2,258.1l0.6,0.3l-2.4,1.4l-0.6-0.3
			L178.2,258.1z M183,255.4l0.6,0.3l-2.4,1.4l-0.6-0.3L183,255.4z"/>
		<path class="st15" d="M112,296.7l0.6,0.3l-2.4,1.4l-0.6-0.3L112,296.7z M116.7,294l0.6,0.3l-2.4,1.4l-0.6-0.3L116.7,294z
			 M121.4,291.3l0.6,0.3l-2.4,1.4l-0.6-0.3L121.4,291.3z M126.2,288.5l0.6,0.3l-2.4,1.4l-0.6-0.3L126.2,288.5z M130.9,285.8l0.6,0.3
			l-2.4,1.4l-0.6-0.3L130.9,285.8z M135.7,283l0.6,0.3l-2.4,1.4l-0.6-0.3L135.7,283z M140.4,280.3l0.6,0.3l-2.4,1.4l-0.6-0.3
			L140.4,280.3z M145.2,277.6l0.6,0.3l-2.4,1.4l-0.6-0.3L145.2,277.6z"/>
	</g>
	<g>
		<polygon class="st31" points="400.6,196 356.1,170.3 282.7,212.6 327.3,238.4 		"/>
		<polygon class="st32" points="327.3,227.7 364.1,206.5 366.5,209 328.1,231.1 327.3,230.6 327.3,227.7 		"/>
		<polygon class="st33" points="313.8,219.9 327.3,227.7 327.3,230.6 311.9,221.9 		"/>
		<polygon class="st34" points="327.3,233.9 331.8,231.2 331.8,224.3 327.3,226.9 		"/>
		<polygon class="st32" points="322.7,231.2 327.3,233.9 327.3,226.9 322.7,224.3 		"/>
		<polygon class="st32" points="289.4,182.3 289.4,212.8 309.4,224.4 313.8,219.9 327.3,227.7 327.3,204.1 		"/>
		<polygon class="st34" points="393.9,165.7 393.9,196.3 368.4,211 364.1,206.5 327.3,227.7 327.3,204.1 		"/>
		<polygon class="st35" points="393.9,165.7 356.1,143.9 289.5,182.3 327.3,204.1 		"/>
		<polygon class="st36" points="290.7,187.9 292.5,188.9 292.5,186.8 290.7,185.8 		"/>
		<polygon class="st36" points="293.3,189.4 295.1,190.4 295.1,188.3 293.3,187.3 		"/>
		<polygon class="st36" points="295.9,190.9 297.7,191.9 297.7,189.8 295.9,188.8 		"/>
		<polygon class="st36" points="298.5,192.4 300.3,193.5 300.3,191.3 298.5,190.3 		"/>
		<polygon class="st36" points="303.7,195.4 305.6,196.5 305.6,194.4 303.7,193.3 		"/>
		<polygon class="st36" points="306.4,196.9 308.2,198 308.2,195.9 306.4,194.8 		"/>
		<polygon class="st36" points="309,198.4 310.8,199.5 310.8,197.4 309,196.3 		"/>
		<polygon class="st36" points="311.6,199.9 313.4,201 313.4,198.9 311.6,197.8 		"/>
		<polygon class="st36" points="316.8,203 318.7,204 318.7,201.9 316.8,200.9 		"/>
		<polygon class="st36" points="319.4,204.5 321.3,205.5 321.3,203.4 319.4,202.4 		"/>
		<polygon class="st36" points="322.1,206 323.9,207.1 323.9,204.9 322.1,203.9 		"/>
		<polygon class="st36" points="324.7,207.5 326.5,208.6 326.5,206.5 324.7,205.4 		"/>
		<polygon class="st36" points="290.7,192.8 292.5,193.9 292.5,191.8 290.7,190.7 		"/>
		<polygon class="st36" points="293.3,194.4 295.1,195.4 295.1,193.3 293.3,192.3 		"/>
		<polygon class="st36" points="295.9,195.9 297.7,196.9 297.7,194.8 295.9,193.8 		"/>
		<polygon class="st36" points="298.5,197.4 300.3,198.4 300.3,196.3 298.5,195.3 		"/>
		<polygon class="st36" points="303.7,200.4 305.6,201.5 305.6,199.4 303.7,198.3 		"/>
		<polygon class="st36" points="306.4,201.9 308.2,203 308.2,200.9 306.4,199.8 		"/>
		<polygon class="st36" points="309,203.4 310.8,204.5 310.8,202.4 309,201.3 		"/>
		<polygon class="st36" points="311.6,204.9 313.4,206 313.4,203.9 311.6,202.8 		"/>
		<polygon class="st36" points="316.8,208 318.7,209 318.7,206.9 316.8,205.9 		"/>
		<polygon class="st36" points="319.4,209.5 321.3,210.5 321.3,208.4 319.4,207.4 		"/>
		<polygon class="st36" points="322.1,211 323.9,212 323.9,209.9 322.1,208.9 		"/>
		<polygon class="st36" points="324.7,212.5 326.5,213.5 326.5,211.4 324.7,210.4 		"/>
		<polygon class="st36" points="290.7,197.8 292.5,198.9 292.5,196.8 290.7,195.7 		"/>
		<polygon class="st36" points="293.3,199.3 295.1,200.4 295.1,198.3 293.3,197.2 		"/>
		<polygon class="st36" points="295.9,200.9 297.7,201.9 297.7,199.8 295.9,198.7 		"/>
		<polygon class="st36" points="298.5,202.4 300.3,203.4 300.3,201.3 298.5,200.3 		"/>
		<polygon class="st36" points="303.7,205.4 305.6,206.4 305.6,204.3 303.7,203.3 		"/>
		<polygon class="st36" points="306.4,206.9 308.2,208 308.2,205.9 306.4,204.8 		"/>
		<polygon class="st36" points="309,208.4 310.8,209.5 310.8,207.4 309,206.3 		"/>
		<polygon class="st36" points="311.6,209.9 313.4,211 313.4,208.9 311.6,207.8 		"/>
		<polygon class="st36" points="316.8,212.9 318.7,214 318.7,211.9 316.8,210.8 		"/>
		<polygon class="st36" points="319.4,214.5 321.3,215.5 321.3,213.4 319.4,212.4 		"/>
		<polygon class="st36" points="322.1,216 323.9,217 323.9,214.9 322.1,213.9 		"/>
		<polygon class="st36" points="324.7,217.5 326.5,218.5 326.5,216.4 324.7,215.4 		"/>
		<polygon class="st36" points="290.7,202.8 292.5,203.9 292.5,201.8 290.7,200.7 		"/>
		<polygon class="st36" points="293.3,204.3 295.1,205.4 295.1,203.3 293.3,202.2 		"/>
		<polygon class="st36" points="295.9,205.8 297.7,206.9 297.7,204.8 295.9,203.7 		"/>
		<polygon class="st36" points="298.5,207.3 300.3,208.4 300.3,206.3 298.5,205.2 		"/>
		<polygon class="st36" points="303.7,210.4 305.6,211.4 305.6,209.3 303.7,208.3 		"/>
		<polygon class="st36" points="306.4,211.9 308.2,212.9 308.2,210.8 306.4,209.8 		"/>
		<polygon class="st36" points="309,213.4 310.8,214.4 310.8,212.3 309,211.3 		"/>
		<polygon class="st36" points="311.6,214.9 313.4,216 313.4,213.9 311.6,212.8 		"/>
		<polygon class="st36" points="316.8,217.9 318.7,219 318.7,216.9 316.8,215.8 		"/>
		<polygon class="st36" points="319.4,219.4 321.3,220.5 321.3,218.4 319.4,217.3 		"/>
		<polygon class="st36" points="322.1,220.9 323.9,222 323.9,219.9 322.1,218.8 		"/>
		<polygon class="st36" points="324.7,222.5 326.5,223.5 326.5,221.4 324.7,220.4 		"/>
		<polygon class="st15" points="328.2,208.5 330,207.4 330,205.3 328.2,206.4 		"/>
		<polygon class="st15" points="330.8,207 332.6,205.9 332.6,203.8 330.8,204.9 		"/>
		<polygon class="st15" points="333.4,205.4 335.3,204.4 335.3,202.3 333.4,203.3 		"/>
		<polygon class="st15" points="336,203.9 337.9,202.9 337.9,200.8 336,201.8 		"/>
		<polygon class="st15" points="341.3,200.9 343.1,199.9 343.1,197.8 341.3,198.8 		"/>
		<polygon class="st15" points="343.9,199.4 345.7,198.3 345.7,196.2 343.9,197.3 		"/>
		<polygon class="st15" points="346.5,197.9 348.3,196.8 348.3,194.7 346.5,195.8 		"/>
		<polygon class="st15" points="349.1,196.4 351,195.3 351,193.2 349.1,194.3 		"/>
		<polygon class="st15" points="354.4,193.4 356.2,192.3 356.2,190.2 354.4,191.3 		"/>
		<polygon class="st15" points="357,191.8 358.8,190.8 358.8,188.7 357,189.7 		"/>
		<polygon class="st15" points="359.6,190.3 361.4,189.3 361.4,187.2 359.6,188.2 		"/>
		<polygon class="st15" points="362.2,188.8 364.1,187.8 364.1,185.7 362.2,186.7 		"/>
		<polygon class="st15" points="328.2,213.5 330,212.4 330,210.3 328.2,211.4 		"/>
		<polygon class="st15" points="330.8,211.9 332.6,210.9 332.6,208.8 330.8,209.8 		"/>
		<polygon class="st15" points="333.4,210.4 335.3,209.4 335.3,207.3 333.4,208.3 		"/>
		<polygon class="st15" points="336,208.9 337.9,207.9 337.9,205.8 336,206.8 		"/>
		<polygon class="st15" points="341.3,205.9 343.1,204.8 343.1,202.7 341.3,203.8 		"/>
		<polygon class="st15" points="343.9,204.4 345.7,203.3 345.7,201.2 343.9,202.3 		"/>
		<polygon class="st15" points="346.5,202.9 348.3,201.8 348.3,199.7 346.5,200.8 		"/>
		<polygon class="st15" points="349.1,201.4 351,200.3 351,198.2 349.1,199.3 		"/>
		<polygon class="st15" points="354.4,198.3 356.2,197.3 356.2,195.2 354.4,196.2 		"/>
		<polygon class="st15" points="357,196.8 358.8,195.8 358.8,193.7 357,194.7 		"/>
		<polygon class="st15" points="359.6,195.3 361.4,194.3 361.4,192.2 359.6,193.2 		"/>
		<polygon class="st15" points="362.2,193.8 364.1,192.8 364.1,190.6 362.2,191.7 		"/>
		<polygon class="st15" points="328.2,218.4 330,217.4 330,215.3 328.2,216.3 		"/>
		<polygon class="st15" points="330.8,216.9 332.6,215.9 332.6,213.8 330.8,214.8 		"/>
		<polygon class="st15" points="333.4,215.4 335.3,214.4 335.3,212.3 333.4,213.3 		"/>
		<polygon class="st15" points="336,213.9 337.9,212.8 337.9,210.7 336,211.8 		"/>
		<polygon class="st15" points="341.3,210.9 343.1,209.8 343.1,207.7 341.3,208.8 		"/>
		<polygon class="st15" points="343.9,209.4 345.7,208.3 345.7,206.2 343.9,207.3 		"/>
		<polygon class="st15" points="346.5,207.9 348.3,206.8 348.3,204.7 346.5,205.8 		"/>
		<polygon class="st15" points="349.1,206.4 351,205.3 351,203.2 349.1,204.2 		"/>
		<polygon class="st15" points="354.4,203.3 356.2,202.3 356.2,200.2 354.4,201.2 		"/>
		<polygon class="st15" points="357,201.8 358.8,200.8 358.8,198.7 357,199.7 		"/>
		<polygon class="st15" points="359.6,200.3 361.4,199.2 361.4,197.1 359.6,198.2 		"/>
		<polygon class="st15" points="362.2,198.8 364.1,197.7 364.1,195.6 362.2,196.7 		"/>
		<polygon class="st15" points="328.2,223.4 330,222.4 330,220.3 328.2,221.3 		"/>
		<polygon class="st15" points="330.8,221.9 332.6,220.9 332.6,218.8 330.8,219.8 		"/>
		<polygon class="st15" points="333.4,220.4 335.3,219.3 335.3,217.2 333.4,218.3 		"/>
		<polygon class="st15" points="336,218.9 337.9,217.8 337.9,215.7 336,216.8 		"/>
		<polygon class="st15" points="341.3,215.9 343.1,214.8 343.1,212.7 341.3,213.8 		"/>
		<polygon class="st15" points="343.9,214.4 345.7,213.3 345.7,211.2 343.9,212.3 		"/>
		<polygon class="st15" points="346.5,212.8 348.3,211.8 348.3,209.7 346.5,210.7 		"/>
		<polygon class="st15" points="349.1,211.3 351,210.3 351,208.2 349.1,209.2 		"/>
		<polygon class="st15" points="354.4,208.3 356.2,207.3 356.2,205.2 354.4,206.2 		"/>
		<polygon class="st15" points="357,206.8 358.8,205.7 358.8,203.6 357,204.7 		"/>
		<polygon class="st15" points="359.6,205.3 361.4,204.2 361.4,202.1 359.6,203.2 		"/>
		<polygon class="st15" points="362.2,203.8 364.1,202.7 364.1,200.6 362.2,201.7 		"/>
		<polygon class="st15" points="382.6,177.2 384.4,176.1 384.4,174 382.6,175.1 		"/>
		<polygon class="st15" points="385.2,175.7 387,174.6 387,172.5 385.2,173.6 		"/>
		<polygon class="st15" points="387.8,174.2 389.6,173.1 389.6,171 387.8,172.1 		"/>
		<polygon class="st15" points="390.4,172.7 392.3,171.6 392.3,169.5 390.4,170.6 		"/>
		<polygon class="st15" points="382.6,182.2 384.4,181.1 384.4,179 382.6,180.1 		"/>
		<polygon class="st15" points="385.2,180.7 387,179.6 387,177.5 385.2,178.6 		"/>
		<polygon class="st15" points="387.8,179.2 389.6,178.1 389.6,176 387.8,177.1 		"/>
		<polygon class="st15" points="390.4,177.7 392.3,176.6 392.3,174.5 390.4,175.6 		"/>
		<polygon class="st15" points="382.6,187.2 384.4,186.1 384.4,184 382.6,185.1 		"/>
		<polygon class="st15" points="385.2,185.7 387,184.6 387,182.5 385.2,183.6 		"/>
		<polygon class="st15" points="387.8,184.2 389.6,183.1 389.6,181 387.8,182.1 		"/>
		<polygon class="st15" points="390.4,182.6 392.3,181.6 392.3,179.5 390.4,180.5 		"/>
		<polygon class="st15" points="382.6,192.2 384.4,191.1 384.4,189 382.6,190.1 		"/>
		<polygon class="st15" points="385.2,190.6 387,189.6 387,187.5 385.2,188.5 		"/>
		<polygon class="st15" points="387.8,189.1 389.6,188.1 389.6,186 387.8,187 		"/>
		<polygon class="st15" points="390.4,187.6 392.3,186.6 392.3,184.5 390.4,185.5 		"/>
		<polygon class="st15" points="321.9,181 324.3,182.4 322,183.8 319.5,182.4 318.1,183.2 324.5,186.9 325.9,186.1 323.2,184.5 
			325.6,183.2 328.3,184.7 329.7,183.9 323.3,180.2 		"/>
		<path class="st15" d="M331.5,188c-4.2,2.4-11,2.4-15.2,0c-4.2-2.4-4.2-6.4,0-8.8c4.2-2.4,11-2.4,15.2,0
			C335.7,181.6,335.7,185.5,331.5,188 M317,179.6c-3.8,2.2-3.7,5.7,0,7.9c3.8,2.2,9.9,2.2,13.7,0c3.8-2.2,3.7-5.7,0-7.9
			C326.9,177.4,320.8,177.4,317,179.6"/>
		<path class="st37" d="M375.3,157.9c0.9-0.5,0.9-1.3,0-1.8c-0.9-0.5-2.3-0.5-3.1,0c-0.9,0.5-0.9,1.3,0,1.8
			C373,158.4,374.4,158.4,375.3,157.9"/>
		<path class="st37" d="M379.8,160.5c0.9-0.5,0.9-1.3,0-1.8c-0.9-0.5-2.3-0.5-3.1,0c-0.9,0.5-0.9,1.3,0,1.8
			C377.6,161,379,161,379.8,160.5"/>
		<path class="st37" d="M384.4,163.1c0.9-0.5,0.9-1.3,0-1.8c-0.9-0.5-2.3-0.5-3.1,0c-0.9,0.5-0.9,1.3,0,1.8
			C382.1,163.6,383.5,163.6,384.4,163.1"/>
		<path class="st37" d="M388.9,165.8c0.9-0.5,0.9-1.3,0-1.8c-0.9-0.5-2.3-0.5-3.1,0c-0.9,0.5-0.9,1.3,0,1.8
			C386.6,166.3,388,166.3,388.9,165.8"/>
		<path class="st37" d="M348.3,173.4c0.9-0.5,0.9-1.3,0-1.8c-0.9-0.5-2.3-0.5-3.1,0c-0.9,0.5-0.9,1.3,0,1.8
			C346,173.9,347.5,173.9,348.3,173.4"/>
		<path class="st37" d="M352.9,176c0.9-0.5,0.9-1.3,0-1.8c-0.9-0.5-2.3-0.5-3.1,0c-0.9,0.5-0.9,1.3,0,1.8
			C350.6,176.5,352,176.5,352.9,176"/>
		<path class="st37" d="M357.4,178.6c0.9-0.5,0.9-1.3,0-1.8c-0.9-0.5-2.3-0.5-3.1,0c-0.9,0.5-0.9,1.3,0,1.8
			C355.1,179.1,356.5,179.1,357.4,178.6"/>
		<path class="st37" d="M361.9,181.3c0.9-0.5,0.9-1.3,0-1.8c-0.9-0.5-2.3-0.5-3.1,0c-0.9,0.5-0.9,1.3,0,1.8
			C359.7,181.8,361.1,181.8,361.9,181.3"/>
		<polygon class="st38" points="352.7,151.2 354.4,150.2 353.6,149.7 351.9,150.7 		"/>
		<polygon class="st31" points="352.7,153.2 352.7,151.2 351.9,150.7 351.9,152.7 		"/>
		<polygon class="st39" points="354.4,152.2 354.4,150.2 352.7,151.2 352.7,153.2 		"/>
		<polygon class="st38" points="354.9,152.4 356.6,151.5 355.7,151 354,152 		"/>
		<polygon class="st31" points="354.9,154.4 354.9,152.5 354,152 354,153.9 		"/>
		<polygon class="st39" points="356.6,153.4 356.6,151.5 354.8,152.5 354.8,154.4 		"/>
		<polygon class="st38" points="357,153.7 358.7,152.7 357.9,152.2 356.1,153.2 		"/>
		<polygon class="st31" points="357,155.7 357,153.7 356.1,153.2 356.1,155.2 		"/>
		<polygon class="st39" points="358.7,154.7 358.7,152.7 357,153.7 357,155.7 		"/>
		<polygon class="st38" points="359.1,154.9 360.8,153.9 360,153.4 358.3,154.4 		"/>
		<polygon class="st31" points="359.1,156.9 359.1,154.9 358.3,154.4 358.3,156.4 		"/>
		<polygon class="st39" points="360.8,155.9 360.8,153.9 359.1,154.9 359.1,156.9 		"/>
		<polygon class="st40" points="322.1,161.2 325.7,159.2 329.1,161.1 325.5,163.2 		"/>
		<polygon class="st32" points="322.1,161.2 325.5,163.2 325.5,167.2 322.1,165.2 		"/>
		<polygon class="st41" points="325.5,163.2 329.1,161.1 329.1,165.1 325.5,167.2 		"/>
		<polygon class="st32" points="344.5,153.7 376.9,172.4 365.2,179.2 344.4,167.2 344.4,153.7 		"/>
		<polygon class="st34" points="344.4,153.7 344.4,167.2 332.8,160.4 		"/>
		<polygon class="st36" points="346.1,159.1 348,160.2 348,158.1 346.1,157 		"/>
		<polygon class="st36" points="348.7,160.7 350.6,161.7 350.6,159.6 348.7,158.6 		"/>
		<polygon class="st36" points="351.4,162.2 353.2,163.2 353.2,161.1 351.4,160.1 		"/>
		<polygon class="st36" points="354,163.7 355.8,164.7 355.8,162.6 354,161.6 		"/>
		<polygon class="st36" points="359.2,166.7 361,167.8 361,165.7 359.2,164.6 		"/>
		<polygon class="st36" points="361.8,168.2 363.7,169.3 363.7,167.2 361.8,166.1 		"/>
		<polygon class="st36" points="364.4,169.7 366.3,170.8 366.3,168.7 364.4,167.6 		"/>
		<polygon class="st36" points="367.1,171.2 368.9,172.3 368.9,170.2 367.1,169.1 		"/>
		<polygon class="st36" points="369.6,172.8 371.4,173.9 371.4,171.8 369.6,170.7 		"/>
		<polygon class="st36" points="372.3,174.3 373,174.7 374.1,174 374.1,173.2 372.3,172.2 		"/>
		<polygon class="st36" points="346.1,164.1 348,165.2 348,163.1 346.1,162 		"/>
		<polygon class="st36" points="348.7,165.6 350.6,166.7 350.6,164.6 348.7,163.5 		"/>
		<polygon class="st36" points="351.4,167.2 353.2,168.2 353.2,166.1 351.4,165 		"/>
		<polygon class="st36" points="354,168.7 355.8,169.7 355.8,167.6 354,166.6 		"/>
		<polygon class="st36" points="359.2,171.7 361,172.7 361,170.6 359.2,169.6 		"/>
		<polygon class="st36" points="361.8,173.2 363.7,174.3 363.7,172.2 361.8,171.1 		"/>
		<polygon class="st36" points="364.4,174.7 366.3,175.8 366.3,173.7 364.4,172.6 		"/>
		<polygon class="st36" points="368.9,177.1 368.9,175.2 367.1,174.1 367.1,176.2 368.7,177.2 		"/>
		<polygon class="st36" points="370.5,176.1 369.6,175.6 369.6,176.7 		"/>
		<polygon class="st36" points="346.1,168.1 348,169.2 348,168.1 346.1,167 		"/>
		<polygon class="st36" points="348.7,169.6 350.6,170.7 350.6,169.6 348.7,168.5 		"/>
		<polygon class="st36" points="351.4,171.2 353.2,172.2 353.2,171.1 351.4,170 		"/>
		<polygon class="st36" points="354,172.7 355.8,173.7 355.8,172.6 354,171.5 		"/>
		<polygon class="st36" points="359.2,175.7 361,176.7 361,175.6 359.2,174.6 		"/>
		<polygon class="st36" points="356.6,165.3 358.5,166.3 358.5,164.2 356.6,163.2 		"/>
		<polygon class="st36" points="356.6,170.2 358.5,171.3 358.5,169.2 356.6,168.1 		"/>
		<polygon class="st36" points="356.6,174.2 358.5,175.3 358.5,174.2 356.6,173.1 		"/>
		<polygon class="st36" points="361.8,177.2 363.7,178.3 363.7,177.1 361.8,176.1 		"/>
		<polygon class="st36" points="364.4,178.7 365.2,179.2 366.3,178.6 364.4,177.6 		"/>
		<polygon class="st38" points="334.8,162.5 336.5,161.6 335.7,161.1 334,162 		"/>
		<polygon class="st31" points="334.8,164.5 334.8,162.5 334,162 334,164 		"/>
		<polygon class="st39" points="336.5,163.5 336.5,161.5 334.8,162.5 334.8,164.5 		"/>
		<polygon class="st38" points="336.9,163.8 338.7,162.8 337.8,162.3 336.1,163.3 		"/>
		<polygon class="st31" points="336.9,165.8 336.9,163.8 336.1,163.3 336.1,165.3 		"/>
		<polygon class="st39" points="338.7,164.8 338.7,162.8 336.9,163.8 336.9,165.8 		"/>
		<polygon class="st38" points="339.1,165 340.8,164 339.9,163.5 338.2,164.5 		"/>
		<polygon class="st31" points="339.1,167 339.1,165 338.2,164.5 338.2,166.5 		"/>
		<polygon class="st39" points="340.8,166 340.8,164 339.1,165 339.1,167 		"/>
		<polygon class="st38" points="341.2,166.3 342.9,165.3 342.1,164.8 340.4,165.8 		"/>
		<polygon class="st31" points="341.2,168.2 341.2,166.3 340.4,165.8 340.4,167.7 		"/>
		<polygon class="st39" points="342.9,167.2 342.9,165.3 341.2,166.3 341.2,168.2 		"/>
		<path class="st42" d="M373.6,183.6c-2.9,1.7-5.2,5.7-5.2,9c0,3.3,2.3,4.7,5.2,3c2.9-1.7,5.2-5.7,5.2-9
			C378.9,183.3,376.5,182,373.6,183.6 M370.5,190.1l1.9-1.1v-2.2l2.4-1.4v2.2l1.9-1.1v2.8l-1.9,1.1v2.2l-2.4,1.4v-2.2l-1.9,1.1
			V190.1z"/>
	</g>
	<g>
		<g>
			<path class="st18" d="M394.1,326.9c0,0-0.1,3.2-0.1,4c0,0.8-1.9,0.8-1.8-0.3c0.1-2,0.1-3.8,0.1-3.8L394.1,326.9z"/>
			<polygon class="st43" points="398.8,320 397.7,325.2 393.1,328 389.1,324.7 387.8,319.7 389.5,314.8 393.6,312.5 398.1,314.7 			
				"/>
		</g>
		<g>
			<path class="st22" d="M384.2,327.4v9.1c0,0.8-1.8,0.9-1.8-0.2v-8.9H384.2z"/>
			<polygon class="st19" points="390.5,325.1 387.9,329.5 383.1,330.9 378.8,328.7 377.1,324.8 379.1,321 383.4,320.2 388.1,320.7 
							"/>
		</g>
		<g>
			<path class="st22" d="M363.5,343v5.3c0,0.8-1.8,0.9-1.8-0.2V343H363.5z"/>
			<polygon class="st19" points="367.9,338.2 366.4,342.2 362.7,343.9 359.3,341.9 357.3,337.9 358.8,333.4 363,332.3 366.8,333.9 
							"/>
		</g>
		<g>
			<path class="st18" d="M374.9,337.9v4c0,0.8-1.8,0.9-1.8-0.2v-3.8H374.9z"/>
			<polygon class="st43" points="379.7,331.5 378.7,336.7 374.1,338.5 369.8,336.4 369.4,331.3 370.8,326.5 374.5,324.3 
				377.8,326.9 			"/>
		</g>
	</g>
	<g>
		<g>
			<path class="st18" d="M352.1,351.7c0,0-0.1,3.2-0.1,4c0,0.8-1.9,0.8-1.8-0.3c0.1-2,0.1-3.8,0.1-3.8L352.1,351.7z"/>
			<polygon class="st43" points="356.8,344.8 355.7,350 351.1,352.8 347.1,349.5 345.7,344.5 347.5,339.6 351.6,337.3 356.1,339.5 
							"/>
		</g>
		<g>
			<path class="st22" d="M342.2,352.1v9.1c0,0.8-1.8,0.9-1.8-0.2v-8.9H342.2z"/>
			<polygon class="st19" points="348.5,349.9 345.9,354.3 341.1,355.7 336.8,353.5 335.1,349.5 337.1,345.8 341.4,345 346.1,345.5 
							"/>
		</g>
		<g>
			<path class="st22" d="M321.5,367.8v5.3c0,0.8-1.8,0.9-1.8-0.2v-5.1H321.5z"/>
			<polygon class="st19" points="325.9,363 324.4,367 320.7,368.6 317.3,366.7 315.3,362.7 316.8,358.2 321,357.1 324.8,358.7 			
				"/>
		</g>
		<g>
			<path class="st18" d="M332.9,362.7v4c0,0.8-1.8,0.9-1.8-0.2v-3.8H332.9z"/>
			<polygon class="st43" points="337.7,356.3 336.6,361.5 332.1,363.2 327.8,361.2 327.4,356 328.8,351.3 332.5,349.1 335.8,351.7 
							"/>
		</g>
	</g>
	<g>
		<g>
			<path class="st18" d="M310.1,376.5c0,0-0.1,3.2-0.1,4c0,0.8-1.9,0.8-1.8-0.3c0.1-2,0.1-3.8,0.1-3.8L310.1,376.5z"/>
			<polygon class="st43" points="314.8,369.6 313.7,374.8 309.1,377.6 305.1,374.3 303.7,369.3 305.5,364.3 309.6,362.1 314,364.3 
							"/>
		</g>
		<g>
			<path class="st22" d="M300.2,376.9v9.1c0,0.8-1.8,0.9-1.8-0.2v-8.9H300.2z"/>
			<polygon class="st19" points="306.5,374.7 303.9,379.1 299.1,380.5 294.8,378.3 293.1,374.3 295.1,370.6 299.4,369.7 
				304.1,370.3 			"/>
		</g>
		<g>
			<path class="st22" d="M279.5,392.6v5.3c0,0.8-1.8,0.9-1.8-0.2v-5.1H279.5z"/>
			<polygon class="st19" points="283.9,387.7 282.3,391.8 278.7,393.4 275.3,391.5 273.3,387.5 274.8,383 279,381.9 282.8,383.5 			
				"/>
		</g>
		<g>
			<path class="st18" d="M290.9,387.5v4c0,0.8-1.8,0.9-1.8-0.2v-3.8H290.9z"/>
			<polygon class="st43" points="295.7,381.1 294.6,386.3 290.1,388 285.8,386 285.4,380.8 286.8,376.1 290.5,373.9 293.8,376.5 			
				"/>
		</g>
	</g>
	<g>
		<path class="st44" d="M404.4,316.1V327h0c0,0.2,0.2,0.3,0.4,0.3c0.2,0,0.4-0.1,0.4-0.3h0v-10.9H404.4z"/>
		<path class="st45" d="M404.4,316.4v1.3h0c0,0.2,0.2,0.3,0.4,0.3c0.2,0,0.4-0.1,0.4-0.3h0v-1.3H404.4z"/>
		<polygon class="st46" points="404.4,309.4 403.3,308 404.5,307.3 406.8,308 		"/>
		<polygon class="st44" points="404.4,317 404.4,309.4 406.8,308 406.8,315.6 		"/>
		<polygon class="st47" points="403.3,315.6 403.3,308 404.5,309.4 404.5,317 		"/>
		<path class="st48" d="M406.3,310c0,0.4-0.3,1-0.7,1.2c-0.4,0.2-0.7,0-0.7-0.4c0-0.4,0.3-1,0.7-1.2
			C406,309.4,406.3,309.6,406.3,310"/>
		<path class="st49" d="M406.3,312.2c0,0.4-0.3,1-0.7,1.2c-0.4,0.2-0.7,0-0.7-0.4c0-0.4,0.3-1,0.7-1.2
			C406,311.5,406.3,311.7,406.3,312.2"/>
		<path class="st50" d="M406.3,314.3c0,0.4-0.3,1-0.7,1.2c-0.4,0.2-0.7,0-0.7-0.4c0-0.4,0.3-1,0.7-1.2
			C406,313.7,406.3,313.9,406.3,314.3"/>
		<path class="st51" d="M406.3,310c0,0,0.6-0.2,0.5-0.4c-0.1-0.2-0.6-0.1-0.6-0.1S406.3,309.8,406.3,310"/>
		<path class="st46" d="M406,310.1c0.1-0.2,0.3-0.3,0.4-0.4c0.1-0.1,0.3-0.1,0.4-0.1v0l-0.7-0.4l0,0c-0.1-0.1-0.3-0.1-0.5,0
			c-0.4,0.2-0.7,0.7-0.7,1.2C405,310.4,405.8,310.5,406,310.1"/>
		<path class="st51" d="M406.3,312.4c0,0,0.6-0.2,0.5-0.4c-0.1-0.2-0.6-0.1-0.6-0.1S406.3,312.1,406.3,312.4"/>
		<path class="st46" d="M406,312.5c0.1-0.2,0.3-0.3,0.4-0.4c0.1-0.1,0.3-0.1,0.4-0.1v0l-0.7-0.4l0,0c-0.1-0.1-0.3-0.1-0.5,0
			c-0.4,0.2-0.7,0.7-0.7,1.2C405,312.7,405.8,312.8,406,312.5"/>
		<path class="st51" d="M406.3,314.5c0,0,0.6-0.2,0.5-0.4c-0.1-0.2-0.6-0.1-0.6-0.1S406.3,314.3,406.3,314.5"/>
		<path class="st46" d="M406,314.6c0.1-0.2,0.3-0.3,0.4-0.4c0.1-0.1,0.3-0.1,0.4-0.1v0l-0.7-0.4l0,0c-0.1-0.1-0.3-0.1-0.5,0
			c-0.4,0.2-0.7,0.7-0.7,1.2C405,314.9,405.8,314.9,406,314.6"/>
	</g>
	<g>
		<polygon class="st52" points="361.5,228.8 346,219.8 356.8,213.5 372.3,222.5 		"/>
		<polygon class="st53" points="361.4,228.8 361.4,221.5 345.8,230.5 345.8,252.6 360.5,244.1 361.4,243.6 372.3,237.2 372.3,222.4 
					"/>
		<polygon class="st54" points="371.1,237.4 367.1,239.7 367.1,231.2 371.1,228.9 		"/>
		<polygon class="st55" points="345.8,252.6 330.2,243.6 330.2,221.5 345.8,230.5 		"/>
		<polygon class="st56" points="335.7,246.8 330.9,244 330.9,234.7 335.7,237.4 		"/>
		<polygon class="st56" points="345.2,250.5 336.3,245.4 336.3,237.8 345.2,242.9 		"/>
		<polygon class="st57" points="345.2,251.1 336,245.8 336.3,245.3 345.2,250.4 		"/>
		<path class="st57" d="M342.4,232.2v-0.6l-8.7-5v0.6c-0.3-0.2-0.5,0-0.5,0.3c0,0.3,0.2,0.7,0.5,0.9v0.6l8.7,5v-0.6
			c0.3,0.2,0.5,0,0.5-0.3C342.9,232.7,342.7,232.3,342.4,232.2"/>
		<polygon class="st57" points="335.3,243.6 335,243.4 335,241.6 335.3,241.8 		"/>
		<path class="st58" d="M371.2,233.7c0,0.2-0.2,0.4-0.4,0.5c-0.2,0.1-0.3,0.1-0.3-0.1c0-0.2,0.2-0.4,0.4-0.5
			C371.1,233.6,371.2,233.6,371.2,233.7"/>
		<path class="st59" d="M327.6,233.9c0,0.5-0.3,0.7-0.6,0.5c-0.3-0.2-0.6-0.7-0.6-1.2L327.6,233.9z"/>
		<path class="st60" d="M328.8,234.6c0,0.5-0.3,0.7-0.6,0.5c-0.3-0.2-0.6-0.7-0.6-1.2L328.8,234.6z"/>
		<path class="st59" d="M330,235.3c0,0.5-0.3,0.7-0.6,0.5c-0.3-0.2-0.6-0.7-0.6-1.2L330,235.3z"/>
		<path class="st60" d="M331.3,236c0,0.5-0.3,0.7-0.6,0.5c-0.3-0.2-0.6-0.7-0.6-1.2L331.3,236z"/>
		<path class="st59" d="M332.5,236.7c0,0.5-0.3,0.7-0.6,0.5c-0.3-0.2-0.6-0.7-0.6-1.2L332.5,236.7z"/>
		<path class="st60" d="M333.7,237.4c0,0.5-0.3,0.7-0.6,0.5c-0.3-0.2-0.6-0.7-0.6-1.2L333.7,237.4z"/>
		<path class="st59" d="M334.9,238.1c0,0.5-0.3,0.7-0.6,0.5c-0.3-0.2-0.6-0.7-0.6-1.2L334.9,238.1z"/>
		<path class="st60" d="M336.2,238.8c0,0.5-0.3,0.7-0.6,0.5c-0.3-0.2-0.6-0.7-0.6-1.2L336.2,238.8z"/>
		<path class="st59" d="M337.4,239.5c0,0.5-0.3,0.7-0.6,0.5c-0.3-0.2-0.6-0.7-0.6-1.2L337.4,239.5z"/>
		<path class="st60" d="M338.6,240.2c0,0.5-0.3,0.7-0.6,0.5c-0.3-0.2-0.6-0.7-0.6-1.2L338.6,240.2z"/>
		<path class="st59" d="M339.8,241c0,0.5-0.3,0.7-0.6,0.5c-0.3-0.2-0.6-0.7-0.6-1.2L339.8,241z"/>
		<path class="st60" d="M341,241.7c0,0.5-0.3,0.7-0.6,0.5c-0.3-0.2-0.6-0.7-0.6-1.2L341,241.7z"/>
		<polygon class="st61" points="330.9,228.9 332.1,229.6 327.6,233.9 326.4,233.2 		"/>
		<polygon class="st62" points="332.1,229.6 333.4,230.3 328.8,234.6 327.6,233.9 		"/>
		<polygon class="st61" points="333.4,230.3 334.6,231 330,235.3 328.8,234.6 		"/>
		<polygon class="st62" points="334.6,231 335.8,231.7 331.3,236 330,235.3 		"/>
		<polygon class="st61" points="335.8,231.7 337,232.4 332.5,236.7 331.3,236 		"/>
		<polygon class="st62" points="337,232.4 338.3,233.1 333.7,237.4 332.5,236.7 		"/>
		<polygon class="st61" points="338.3,233.1 339.5,233.8 334.9,238.1 333.7,237.4 		"/>
		<polygon class="st62" points="339.5,233.8 340.7,234.5 336.2,238.8 334.9,238.1 		"/>
		<polygon class="st61" points="340.7,234.5 341.9,235.3 337.4,239.5 336.2,238.8 		"/>
		<polygon class="st62" points="341.9,235.3 343.2,236 338.6,240.2 337.4,239.5 		"/>
		<polygon class="st61" points="343.2,236 344.4,236.7 339.8,241 338.6,240.2 		"/>
		<polygon class="st62" points="344.4,236.7 345.6,237.4 341,241.7 339.8,241 		"/>
		<polygon class="st60" points="345.8,230.5 330.2,221.5 345.8,212.5 361.3,221.5 		"/>
	</g>
	<g>
		<polygon class="st1" points="351.3,236 372.2,224 394.1,236.6 373.2,248.7 		"/>
		<polygon class="st2" points="351.3,237 372.2,225 394.1,237.6 373.2,249.7 		"/>
		<path class="st3" d="M372.2,222.7L349.1,236l24.1,13.9l23.1-13.3L372.2,222.7z M351.3,236l20.9-12.1l21.9,12.7l-20.9,12.1
			L351.3,236z"/>
		<polygon class="st4" points="396.3,236.6 373.3,249.9 373.3,269.1 386,261.7 386.8,261.3 396.3,255.8 396.3,243 		"/>
		<polygon class="st5" points="373.3,269.1 349.2,255.2 349.2,236 373.3,249.9 		"/>
		<polygon class="st6" points="357.8,256.1 350.8,252 350.8,245.3 357.8,249.4 		"/>
		<polygon class="st7" points="350.8,252 357.8,256.1 357.8,256.8 350.2,252.4 		"/>
		<polygon class="st4" points="350.8,252 350.8,245.3 350.2,244.9 350.2,252.4 		"/>
		<polygon class="st8" points="364.1,262.2 358.6,259 358.6,248.8 364.1,251.9 		"/>
		<polygon class="st6" points="361,251.2 359.2,250.1 359.2,255.6 361,257.6 		"/>
		<polygon class="st6" points="363.5,252.6 361.6,251.5 361.6,257.9 363.5,258.1 		"/>
		<polygon class="st9" points="361.3,257.1 360.9,256.9 360.9,258 361.3,258.2 		"/>
		<polygon class="st9" points="361.7,257.3 361.4,257.1 361.4,258.3 361.7,258.5 		"/>
		<polygon class="st5" points="361.4,265.4 355.8,262.1 355.8,261.3 361.4,264.6 		"/>
		<polygon class="st7" points="361.4,264.6 355.8,261.3 356.5,260.9 362.1,264.2 		"/>
		<polygon class="st5" points="362.1,264.2 356.5,260.9 356.5,260.1 362.1,263.4 		"/>
		<polygon class="st7" points="362.1,263.4 356.5,260.1 358.5,259 364.1,262.2 		"/>
		<polygon class="st4" points="362.1,263.4 362.1,263.4 362.1,264.2 362.1,264.2 362.1,264.2 362.1,264.2 362.1,264.2 361.4,264.6 
			361.4,264.6 361.4,265.4 364.1,263.8 364.1,262.2 		"/>
		<polygon class="st10" points="357.8,248 355.8,249.2 355.8,248.7 357.8,247.6 		"/>
		<polygon class="st11" points="357.8,247.6 355.8,248.7 355.6,248.6 357.6,247.4 		"/>
		<polyline class="st10" points="356.1,247.3 356.1,247.3 356.1,247.3 356.1,247.3 		"/>
		<path class="st11" d="M352.9,250.6c0-1.2,0.8-2.6,1.8-3.2c0.5-0.3,0.9-0.3,1.3-0.1l-0.6-0.3c-0.3-0.2-0.8-0.1-1.2,0.2
			c-1,0.6-1.8,2-1.8,3.2c0,0.6,0.2,1,0.5,1.2l0.1,0.1l0.4,0.2C353.1,251.6,352.9,251.2,352.9,250.6"/>
		<polyline class="st10" points="353.6,251.9 353.6,251.9 353.6,251.9 353.6,251.9 		"/>
		<path class="st12" d="M352.9,250.6c0,1.2,0.8,1.6,1.8,1.1c1-0.6,1.8-2,1.8-3.2c0-1.2-0.8-1.6-1.8-1.1
			C353.8,248,352.9,249.4,352.9,250.6"/>
		<polygon class="st13" points="353.7,249.7 354.4,249.3 354.4,248.5 355.3,248 355.3,248.8 356,248.4 356,249.3 355.3,249.7 
			355.3,250.5 354.4,251 354.4,250.2 353.7,250.6 		"/>
		<polygon class="st8" points="366.4,252 356.4,246.2 356.4,243.3 366.4,249 		"/>
		<polygon class="st6" points="372.5,265.1 365.4,261.1 365.5,254.3 372.5,258.4 		"/>
		<polygon class="st7" points="365.4,261.1 372.5,265.1 372.5,265.8 364.8,261.4 		"/>
		<polygon class="st4" points="365.4,261.1 365.5,254.3 364.8,254 364.8,261.4 		"/>
	</g>
	<g>
		<polygon class="st1" points="413.2,238.1 434.2,226 456.1,238.7 435.2,250.8 		"/>
		<polygon class="st2" points="413.2,239.1 434.2,227 456.1,239.7 435.2,251.8 		"/>
		<path class="st3" d="M434.2,224.8l-23.1,13.3l24.1,13.9l23.1-13.3L434.2,224.8z M413.2,238.1l20.9-12.1l21.9,12.7l-20.9,12.1
			L413.2,238.1z"/>
		<polygon class="st4" points="458.3,238.7 435.2,252 435.2,271.1 448,263.8 448.8,263.3 458.3,257.8 458.3,245 		"/>
		<polygon class="st5" points="435.2,271.1 411.2,257.2 411.2,238.1 435.2,252 		"/>
		<polygon class="st6" points="419.8,258.1 412.8,254.1 412.8,247.4 419.8,251.4 		"/>
		<polygon class="st7" points="412.8,254.1 419.8,258.1 419.8,258.9 412.1,254.4 		"/>
		<polygon class="st4" points="412.8,254.1 412.8,247.4 412.1,247 412.1,254.4 		"/>
		<polygon class="st8" points="426,264.2 420.6,261.1 420.6,250.8 426,254 		"/>
		<polygon class="st6" points="423,253.3 421.1,252.2 421.1,257.7 423,259.7 		"/>
		<polygon class="st6" points="425.5,254.7 423.6,253.6 423.6,260 425.5,260.2 		"/>
		<polygon class="st9" points="423.3,259.2 422.9,259 422.9,260.1 423.3,260.3 		"/>
		<polygon class="st9" points="423.7,259.4 423.4,259.2 423.4,260.4 423.7,260.6 		"/>
		<polygon class="st5" points="423.4,267.4 417.8,264.2 417.8,263.4 423.4,266.6 		"/>
		<polygon class="st7" points="423.4,266.6 417.8,263.4 418.5,263 424.1,266.2 		"/>
		<polygon class="st5" points="424.1,266.2 418.5,263 418.5,262.2 424.1,265.4 		"/>
		<polygon class="st7" points="424.1,265.4 418.5,262.2 420.5,261 426.1,264.3 		"/>
		<polygon class="st4" points="424.1,265.4 424.1,265.4 424.1,266.2 424.1,266.2 424.1,266.2 424.1,266.2 424,266.2 423.4,266.6 
			423.4,266.6 423.4,267.4 426.1,265.9 426.1,264.3 		"/>
		<polygon class="st10" points="419.8,250.1 417.8,251.2 417.8,250.8 419.8,249.6 		"/>
		<polygon class="st11" points="419.8,249.6 417.8,250.8 417.6,250.6 419.6,249.5 		"/>
		<polyline class="st10" points="418.1,249.4 418.1,249.4 418.1,249.4 418.1,249.4 		"/>
		<path class="st11" d="M414.9,252.7c0-1.2,0.8-2.6,1.8-3.2c0.5-0.3,0.9-0.3,1.3-0.1l-0.6-0.3c-0.3-0.2-0.8-0.1-1.2,0.2
			c-1,0.6-1.8,2-1.8,3.2c0,0.6,0.2,1,0.5,1.2l0.1,0.1l0.4,0.2C415.1,253.6,414.9,253.2,414.9,252.7"/>
		<polyline class="st10" points="415.6,253.9 415.6,253.9 415.6,253.9 415.6,253.9 		"/>
		<path class="st12" d="M414.9,252.7c0,1.2,0.8,1.6,1.8,1.1c1-0.6,1.8-2,1.8-3.2c0-1.2-0.8-1.6-1.8-1.1
			C415.7,250.1,414.9,251.5,414.9,252.7"/>
		<polygon class="st13" points="415.7,251.7 416.4,251.3 416.4,250.5 417.3,250 417.3,250.8 417.9,250.4 417.9,251.4 417.3,251.8 
			417.3,252.6 416.4,253.1 416.4,252.3 415.7,252.7 		"/>
		<polygon class="st8" points="428.4,254.1 418.4,248.3 418.4,245.3 428.4,251.1 		"/>
		<polygon class="st6" points="434.5,267.2 427.4,263.1 427.4,256.4 434.5,260.5 		"/>
		<polygon class="st7" points="427.4,263.1 434.5,267.2 434.5,267.9 426.8,263.5 		"/>
		<polygon class="st4" points="427.4,263.1 427.4,256.4 426.8,256 426.8,263.5 		"/>
	</g>
	<g>
		<polygon class="st63" points="376,259.8 399.5,246.3 403.6,247.3 391.4,254.3 391.4,263 		"/>
		<polygon class="st35" points="391.4,254.3 414.9,240.7 438.3,258.5 414.9,272 		"/>
		<polygon class="st64" points="408.3,263.3 427.1,252.4 432.5,253.7 413.6,264.6 		"/>
		<polygon class="st65" points="423.4,279.8 416.1,284 416.1,287.7 423.3,283.5 		"/>
		<polygon class="st66" points="430.4,284.1 423.3,283.5 423.4,279.8 430.4,275.8 		"/>
		<polygon class="st64" points="438.3,258.5 438.3,279.5 430.4,284.1 430.4,275.8 416.1,284 416.1,292.3 414.9,293 414.9,272 		"/>
		<path class="st65" d="M423,275.3l-6.8,3.9v-4.7l6.8-3.9V275.3z M430.4,266.3l-6.8,3.9v4.7l6.8-3.9V266.3z"/>
		<polygon class="st67" points="391.4,254.3 391.4,263 376,259.8 376,270.6 391.4,279.5 414.9,293 414.9,272 		"/>
		<polygon class="st68" points="406.1,279.7 392.3,271.8 392.3,280 406.1,288 		"/>
		<polygon class="st68" points="390.5,270.7 383.6,266.8 383.6,271.5 390.5,275.4 		"/>
		<polygon class="st68" points="398,262.1 394.6,260.1 394.6,264.8 398,266.8 		"/>
		<polygon class="st65" points="432.5,256.8 413.6,267.7 413.6,264.6 432.5,253.7 		"/>
		<polygon class="st67" points="413.6,267.7 408.3,263.3 413.6,264.6 		"/>
		<polygon class="st64" points="416.5,266.1 416.2,266.2 416.2,263.1 416.5,262.9 		"/>
		<polygon class="st64" points="418.9,264.7 418.6,264.9 418.6,261.7 418.9,261.6 		"/>
		<polygon class="st64" points="421.2,263.3 420.9,263.5 420.9,260.4 421.2,260.2 		"/>
		<polygon class="st64" points="423.6,262 423.3,262.1 423.3,259 423.6,258.8 		"/>
		<polygon class="st64" points="426,260.6 425.7,260.8 425.7,257.6 426,257.4 		"/>
		<polygon class="st64" points="428.4,259.2 428.1,259.4 428.1,256.2 428.4,256.1 		"/>
		<polygon class="st64" points="430.7,257.8 430.4,258 430.4,254.9 430.7,254.7 		"/>
		<polygon class="st64" points="426,247.6 424.2,246.6 422.5,247.6 424.3,248.6 		"/>
		<polygon class="st69" points="422.9,247.6 424.2,246.8 425.6,247.6 424.3,248.4 		"/>
		<polygon class="st64" points="426,247.6 424.3,248.6 424.3,250.8 426,249.8 		"/>
		<polygon class="st67" points="424.3,248.6 422.5,247.6 422.5,249.5 424.3,250.8 		"/>
	</g>
	<g>
		<path class="st70" d="M155.7,212.7l-109.9-65l69.3-40l143.5,82.6l-14.7,8.3c0,0-16.2-7.3-44.6-3.9
			C175.8,197.5,155.7,212.7,155.7,212.7z"/>
		<path class="st71" d="M136.5,175.8c2.2-1.1,8.5-4.9,8.5-4.9c0.5-0.3,0.1-1-1-1.7l-26.7-15.4c-1.1-0.6-2.3-0.9-2.9-0.6l-6.4,3.9
			c-0.8,0.4-1.9,2.1-0.3,3.1c0,0,17.6,11.2,25.3,15.2C135.5,176.7,136,176,136.5,175.8"/>
		<path class="st71" d="M181.4,152.9c-0.8,0.4,0.7,1.8,2.6,2.4c0.9,0.3,1.9,0.6,3,1c7,2.2,12.2,4.8,15.5,7.4
			c3.1,2.5,3.7,4.7,3.2,7.2c-0.2,1.2-0.7,1.7-0.3,2.9c0.4,1.1,4.2,2.8,5.1,2.3l8-4.6c0.5-0.3,0-1.1-1.2-1.8L187,152.2
			c-1.2-0.7-2.6-1-3.1-0.7L181.4,152.9z"/>
		
			<rect x="181.5" y="153.6" transform="matrix(0.4998 -0.8661 0.8661 0.4998 -58.7117 243.7684)" class="st15" width="0.5" height="38.1"/>
		
			<rect x="173.2" y="158.4" transform="matrix(0.5003 -0.8658 0.8658 0.5003 -66.9823 238.8674)" class="st15" width="0.5" height="38.1"/>
		
			<rect x="165" y="163.2" transform="matrix(0.5013 -0.8653 0.8653 0.5013 -75.2681 233.8425)" class="st15" width="0.5" height="38.1"/>
		
			<rect x="156.8" y="167.9" transform="matrix(0.4994 -0.8664 0.8664 0.4994 -83.39 229.6257)" class="st15" width="0.5" height="38.1"/>
		
			<rect x="132" y="144" transform="matrix(0.5005 -0.8657 0.8657 0.5005 -91.6634 205.4515)" class="st15" width="0.5" height="76.4"/>
		<polygon class="st15" points="195.9,183.8 201.1,180.9 200.8,180.5 195.7,183.4 		"/>
		<polygon class="st15" points="192.9,182.1 198,179.2 197.8,178.7 192.7,181.7 		"/>
		<polygon class="st15" points="189.9,180.4 195,177.4 194.8,177 189.7,180 		"/>
		
			<rect x="186.4" y="176.7" transform="matrix(0.8661 -0.4999 0.4999 0.8661 -63.1038 118.3599)" class="st15" width="5.9" height="0.5"/>
		
			<rect x="183.4" y="175" transform="matrix(0.8661 -0.4999 0.4999 0.8661 -62.6389 116.6256)" class="st15" width="5.9" height="0.5"/>
		<polygon class="st15" points="180.9,175.2 186,172.2 185.8,171.8 180.7,174.8 		"/>
		<polygon class="st15" points="177.9,173.4 183,170.5 182.8,170.1 177.7,173 		"/>
		<polygon class="st15" points="174.9,171.7 180,168.8 179.8,168.3 174.7,171.3 		"/>
		
			<rect x="171.4" y="168.1" transform="matrix(0.8661 -0.4999 0.4999 0.8661 -60.7808 109.6922)" class="st15" width="5.9" height="0.5"/>
		
			<rect x="168.4" y="166.3" transform="matrix(0.8661 -0.4998 0.4998 0.8661 -60.3132 107.9465)" class="st15" width="5.9" height="0.5"/>
		<rect x="165.4" y="164.6" transform="matrix(0.866 -0.5 0.5 0.866 -59.8584 106.2513)" class="st15" width="5.9" height="0.5"/>
		<polygon class="st15" points="162.9,164.8 168,161.8 167.8,161.4 162.7,164.4 		"/>
		
			<rect x="187.1" y="186.7" transform="matrix(0.8661 -0.4999 0.4999 0.8661 -68.0181 120.0484)" class="st15" width="5.9" height="0.5"/>
		<rect x="184.1" y="185" transform="matrix(0.866 -0.5 0.5 0.866 -67.5582 118.3324)" class="st15" width="5.9" height="0.5"/>
		
			<rect x="181.1" y="183.3" transform="matrix(0.866 -0.5001 0.5001 0.866 -67.1037 116.6366)" class="st15" width="5.9" height="0.5"/>
		
			<rect x="178.1" y="181.5" transform="matrix(0.866 -0.5001 0.5001 0.866 -66.6386 114.901)" class="st15" width="5.9" height="0.5"/>
		
			<rect x="175.1" y="179.8" transform="matrix(0.8661 -0.4999 0.4999 0.8661 -66.1562 113.1014)" class="st15" width="5.9" height="0.5"/>
		<polygon class="st15" points="172.6,180 177.7,177 177.5,176.6 172.3,179.6 		"/>
		
			<rect x="169.1" y="176.3" transform="matrix(0.8661 -0.4999 0.4999 0.8661 -65.225 109.6276)" class="st15" width="5.9" height="0.5"/>
		
			<rect x="166.1" y="174.6" transform="matrix(0.866 -0.5001 0.5001 0.866 -64.7774 107.9533)" class="st15" width="5.9" height="0.5"/>
		<rect x="163.1" y="172.9" transform="matrix(0.866 -0.5 0.5 0.866 -64.3064 106.1971)" class="st15" width="5.9" height="0.5"/>
		<rect x="160.1" y="171.1" transform="matrix(0.866 -0.5 0.5 0.866 -63.8455 104.4756)" class="st15" width="5.9" height="0.5"/>
		<rect x="157.1" y="169.4" transform="matrix(0.866 -0.5 0.5 0.866 -63.3767 102.7281)" class="st15" width="5.9" height="0.5"/>
		
			<rect x="154.1" y="167.7" transform="matrix(0.866 -0.5001 0.5001 0.866 -62.9191 101.0167)" class="st15" width="5.9" height="0.5"/>
		
			<rect x="178.8" y="191.5" transform="matrix(0.8661 -0.4999 0.4999 0.8661 -71.4969 116.5568)" class="st15" width="5.9" height="0.5"/>
		
			<rect x="175.8" y="189.8" transform="matrix(0.8661 -0.4999 0.4999 0.8661 -71.032 114.8226)" class="st15" width="5.9" height="0.5"/>
		
			<rect x="172.8" y="188" transform="matrix(0.8662 -0.4998 0.4998 0.8662 -70.556 113.0516)" class="st15" width="5.9" height="0.5"/>
		
			<rect x="169.8" y="186.3" transform="matrix(0.8661 -0.4999 0.4999 0.8661 -70.1071 111.3695)" class="st15" width="5.9" height="0.5"/>
		
			<rect x="166.8" y="184.6" transform="matrix(0.8661 -0.4998 0.4998 0.8661 -69.6311 109.5995)" class="st15" width="5.9" height="0.5"/>
		
			<rect x="163.8" y="182.8" transform="matrix(0.8661 -0.4999 0.4999 0.8661 -69.1783 107.903)" class="st15" width="5.9" height="0.5"/>
		<polygon class="st15" points="161.3,183 166.5,180.1 166.2,179.6 161.1,182.6 		"/>
		<polygon class="st15" points="158.3,181.3 163.5,178.3 163.2,177.9 158.1,180.9 		"/>
		
			<rect x="154.8" y="177.6" transform="matrix(0.8661 -0.4998 0.4998 0.8661 -67.7718 102.6652)" class="st15" width="5.9" height="0.5"/>
		
			<rect x="151.8" y="175.9" transform="matrix(0.8661 -0.4999 0.4999 0.8661 -67.3202 100.97)" class="st15" width="5.9" height="0.5"/>
		<polygon class="st15" points="149.3,176.1 154.5,173.1 154.2,172.7 149.1,175.7 		"/>
		
			<rect x="145.8" y="172.4" transform="matrix(0.8661 -0.4998 0.4998 0.8661 -66.3797 97.4706)" class="st15" width="5.9" height="0.5"/>
		
			<rect x="170.6" y="196.3" transform="matrix(0.8661 -0.4999 0.4999 0.8661 -74.9991 113.0664)" class="st15" width="5.9" height="0.5"/>
		
			<rect x="167.6" y="194.5" transform="matrix(0.866 -0.5001 0.5001 0.866 -74.5525 111.3852)" class="st15" width="5.9" height="0.5"/>
		
			<rect x="164.6" y="192.8" transform="matrix(0.8661 -0.4999 0.4999 0.8661 -74.0706 109.6014)" class="st15" width="5.9" height="0.5"/>
		<rect x="161.6" y="191.1" transform="matrix(0.866 -0.5 0.5 0.866 -73.6116 107.8834)" class="st15" width="5.9" height="0.5"/>
		
			<rect x="158.6" y="189.3" transform="matrix(0.8661 -0.4998 0.4998 0.8661 -73.1326 106.1091)" class="st15" width="5.9" height="0.5"/>
		<rect x="155.6" y="187.6" transform="matrix(0.866 -0.5 0.5 0.866 -72.6819 104.4142)" class="st15" width="5.9" height="0.5"/>
		
			<rect x="152.5" y="185.9" transform="matrix(0.866 -0.5001 0.5001 0.866 -72.2301 102.7156)" class="st15" width="5.9" height="0.5"/>
		<rect x="149.5" y="184.1" transform="matrix(0.866 -0.5 0.5 0.866 -71.7523 100.946)" class="st15" width="5.9" height="0.5"/>
		<rect x="146.5" y="182.4" transform="matrix(0.866 -0.5 0.5 0.866 -71.2883 99.2138)" class="st15" width="5.9" height="0.5"/>
		
			<rect x="143.5" y="180.7" transform="matrix(0.8661 -0.4999 0.4999 0.8661 -70.8192 97.4687)" class="st15" width="5.9" height="0.5"/>
		
			<rect x="140.5" y="178.9" transform="matrix(0.866 -0.5001 0.5001 0.866 -70.3677 95.7687)" class="st15" width="5.9" height="0.5"/>
		
			<rect x="137.5" y="177.2" transform="matrix(0.8661 -0.4999 0.4999 0.8661 -69.8893 93.9998)" class="st15" width="5.9" height="0.5"/>
		
			<rect x="162.3" y="201" transform="matrix(0.8661 -0.4999 0.4999 0.8661 -78.4782 109.5906)" class="st15" width="5.9" height="0.5"/>
		<polygon class="st15" points="159.8,201.2 165,198.3 164.7,197.8 159.6,200.8 		"/>
		<rect x="156.3" y="197.6" transform="matrix(0.866 -0.5 0.5 0.866 -77.5531 106.1343)" class="st15" width="5.9" height="0.5"/>
		
			<rect x="153.3" y="195.8" transform="matrix(0.866 -0.5001 0.5001 0.866 -77.0978 104.4245)" class="st15" width="5.9" height="0.5"/>
		<rect x="150.3" y="194.1" transform="matrix(0.866 -0.5 0.5 0.866 -76.6245 102.6688)" class="st15" width="5.9" height="0.5"/>
		
			<rect x="147.3" y="192.4" transform="matrix(0.866 -0.5001 0.5001 0.866 -76.1741 100.9698)" class="st15" width="5.9" height="0.5"/>
		<rect x="144.3" y="190.6" transform="matrix(0.866 -0.5 0.5 0.866 -75.6957 99.202)" class="st15" width="5.9" height="0.5"/>
		
			<rect x="141.3" y="188.9" transform="matrix(0.8661 -0.4999 0.4999 0.8661 -75.2219 97.4465)" class="st15" width="5.9" height="0.5"/>
		
			<rect x="138.3" y="187.1" transform="matrix(0.8661 -0.4999 0.4999 0.8661 -74.7608 95.7215)" class="st15" width="5.9" height="0.5"/>
		<rect x="135.3" y="185.4" transform="matrix(0.866 -0.5 0.5 0.866 -74.3032 94.0042)" class="st15" width="5.9" height="0.5"/>
		<rect x="132.3" y="183.7" transform="matrix(0.866 -0.5 0.5 0.866 -73.8402 92.2739)" class="st15" width="5.9" height="0.5"/>
		<rect x="129.3" y="181.9" transform="matrix(0.866 -0.5 0.5 0.866 -73.379 90.5479)" class="st15" width="5.9" height="0.5"/>
		<rect x="126.3" y="180.2" transform="matrix(0.866 -0.5 0.5 0.866 -72.9127 88.8102)" class="st15" width="5.9" height="0.5"/>
		<rect x="123.3" y="178.5" transform="matrix(0.866 -0.5 0.5 0.866 -72.4436 87.0669)" class="st15" width="5.9" height="0.5"/>
		
			<rect x="120.3" y="176.7" transform="matrix(0.866 -0.5001 0.5001 0.866 -71.989 85.3544)" class="st15" width="5.9" height="0.5"/>
		
			<rect x="117.3" y="175" transform="matrix(0.8661 -0.4999 0.4999 0.8661 -71.5109 83.5921)" class="st15" width="5.9" height="0.5"/>
		<polygon class="st15" points="114.8,175.2 119.9,172.3 119.7,171.8 114.6,174.8 		"/>
		
			<rect x="111.3" y="171.5" transform="matrix(0.8661 -0.4999 0.4999 0.8661 -70.5777 80.1167)" class="st15" width="5.9" height="0.5"/>
		<polygon class="st15" points="108.8,171.7 113.9,168.8 113.7,168.4 108.6,171.3 		"/>
		<polygon class="st15" points="105.8,170 110.9,167.1 110.7,166.6 105.6,169.6 		"/>
		
			<rect x="102.3" y="166.3" transform="matrix(0.8661 -0.4999 0.4999 0.8661 -69.1834 74.9157)" class="st15" width="5.9" height="0.5"/>
		
			<rect x="99.3" y="164.6" transform="matrix(0.8661 -0.4999 0.4999 0.8661 -68.7234 73.1912)" class="st15" width="5.9" height="0.5"/>
		<polygon class="st15" points="96.8,164.8 101.9,161.9 101.7,161.4 96.6,164.4 		"/>
		
			<rect x="123.7" y="148.7" transform="matrix(0.4999 -0.8661 0.8661 0.4999 -99.8801 200.8493)" class="st15" width="0.5" height="76.4"/>
		
			<rect x="154.1" y="205.8" transform="matrix(0.8661 -0.4998 0.4998 0.8661 -81.9454 106.086)" class="st15" width="5.9" height="0.5"/>
		
			<rect x="151.1" y="204" transform="matrix(0.8661 -0.4999 0.4999 0.8661 -81.4922 104.3791)" class="st15" width="5.9" height="0.5"/>
		
			<rect x="148.1" y="202.3" transform="matrix(0.8661 -0.4999 0.4999 0.8661 -81.0221 102.6334)" class="st15" width="5.9" height="0.5"/>
		
			<rect x="145.1" y="200.6" transform="matrix(0.8661 -0.4999 0.4999 0.8661 -80.554 100.892)" class="st15" width="5.9" height="0.5"/>
		<polygon class="st15" points="142.6,200.8 147.7,197.8 147.5,197.4 142.4,200.3 		"/>
		<polygon class="st15" points="139.6,199 144.7,196.1 144.5,195.7 139.4,198.6 		"/>
		
			<rect x="136.1" y="195.4" transform="matrix(0.8661 -0.4999 0.4999 0.8661 -79.1639 95.7004)" class="st15" width="5.9" height="0.5"/>
		
			<rect x="133.1" y="193.6" transform="matrix(0.8661 -0.4998 0.4998 0.8661 -78.6939 93.956)" class="st15" width="5.9" height="0.5"/>
		
			<rect x="130.1" y="191.9" transform="matrix(0.8661 -0.4999 0.4999 0.8661 -78.2354 92.2353)" class="st15" width="5.9" height="0.5"/>
		<polygon class="st15" points="127.6,192.1 132.7,189.1 132.5,188.7 127.4,191.7 		"/>
		
			<rect x="124.1" y="188.4" transform="matrix(0.8661 -0.4999 0.4999 0.8661 -77.3083 88.773)" class="st15" width="5.9" height="0.5"/>
		
			<rect x="121.1" y="186.7" transform="matrix(0.8661 -0.4999 0.4999 0.8661 -76.8423 87.0369)" class="st15" width="5.9" height="0.5"/>
		
			<rect x="118.1" y="185" transform="matrix(0.8661 -0.4998 0.4998 0.8661 -76.3678 85.2842)" class="st15" width="5.9" height="0.5"/>
		<polygon class="st15" points="115.6,185.2 120.7,182.2 120.5,181.8 115.3,184.7 		"/>
		<polygon class="st15" points="112.6,183.4 117.7,180.5 117.5,180.1 112.3,183 		"/>
		
			<rect x="109.1" y="179.8" transform="matrix(0.8661 -0.4999 0.4999 0.8661 -74.9839 80.1039)" class="st15" width="5.9" height="0.5"/>
		
			<rect x="106.1" y="178" transform="matrix(0.8661 -0.4999 0.4999 0.8661 -74.5246 78.3804)" class="st15" width="5.9" height="0.5"/>
		
			<rect x="103.1" y="176.3" transform="matrix(0.8661 -0.4999 0.4999 0.8661 -74.0603 76.6476)" class="st15" width="5.9" height="0.5"/>
		<polygon class="st15" points="100.6,176.5 105.7,173.5 105.5,173.1 100.3,176.1 		"/>
		<polygon class="st15" points="97.6,174.8 102.7,171.8 102.5,171.4 97.3,174.3 		"/>
		
			<rect x="94.1" y="171.1" transform="matrix(0.8662 -0.4998 0.4998 0.8662 -72.6465 71.4134)" class="st15" width="5.9" height="0.5"/>
		
			<rect x="91" y="169.4" transform="matrix(0.8661 -0.4999 0.4999 0.8661 -72.1933 69.6993)" class="st15" width="5.9" height="0.5"/>
		<rect x="88" y="167.6" transform="matrix(0.866 -0.5 0.5 0.866 -71.7426 67.989)" class="st15" width="5.9" height="0.5"/>
		<polygon class="st72" points="115.1,115.7 169.4,147.1 169.4,141.6 115.1,110.2 		"/>
		<polygon class="st73" points="115.1,115.7 60.9,147.1 60.9,141.5 115.1,110.2 		"/>
		<polygon class="st74" points="115.1,116.9 163.7,144.9 164.7,144.3 115.1,115.7 		"/>
		<polygon class="st75" points="114.8,116.7 66.2,144.7 65.5,144.3 115.1,115.7 115.1,116.9 		"/>
		<path class="st76" d="M60.3,141.3l0.5,0.3l0,0l5.4,3.2l0,0l15,8.9l33.8-19.5l33.6,19.6l13.7-8l0,0l7.8-4.5l0,0l14.5-8.3
			l-54.4-31.4L115,92.7l-69.2,40L60.3,141.3L60.3,141.3z M61.5,141.2l53.6-30.9l53.7,31l-5.7,3.3l-48.2-27.8l-47.9,27.7L61.5,141.2z
			"/>
		<polygon class="st77" points="148.5,168.6 184.6,147.9 184.6,132.9 148.5,153.6 		"/>
		<polygon class="st72" points="81.2,168.6 45.8,147.6 45.8,132.7 81.2,153.6 		"/>
		<polygon class="st78" points="81.2,168.6 114.9,149.1 114.9,139.6 81.2,159.1 		"/>
		<polygon class="st77" points="81.2,159.1 114.9,139.6 114.9,134.2 81.2,153.6 		"/>
		<polygon class="st79" points="114.9,149 148.6,168.5 148.6,159 114.9,139.5 		"/>
		<polygon class="st72" points="114.9,139.5 148.6,159 148.6,153.6 114.9,134.1 		"/>
		<polygon class="st79" points="173.7,139.2 177.1,134.4 135.4,110.3 132,115.3 		"/>
		<polygon class="st80" points="180.6,135.2 138.8,111.3 135.4,110.3 177.1,134.4 		"/>
		<polygon class="st78" points="180.6,135.2 180.6,144.2 173.7,148.2 173.7,139.2 177.1,134.4 		"/>
		<polygon class="st81" points="173.7,154.1 180.6,150.2 180.6,144.2 173.7,148.2 		"/>
		<polygon class="st79" points="154.3,150.4 157.7,145.6 116,121.5 112.6,126.5 		"/>
		<polygon class="st80" points="161.1,146.4 119.4,122.5 116,121.5 157.7,145.6 		"/>
		<polygon class="st78" points="161.1,146.4 161.2,155.4 154.3,159.4 154.3,150.4 157.7,145.6 		"/>
		<polygon class="st81" points="154.3,165.3 161.2,161.3 161.2,155.4 154.3,159.4 		"/>
		<path class="st82" d="M165.6,150.5c0.5,1,1.7,0.5,2.7-1.1c1-1.6,1.5-3.7,1-4.7c-0.5-1-1.7-0.5-2.7,1.1
			C165.5,147.4,165.1,149.5,165.6,150.5"/>
		<path class="st83" d="M164.5,147c-0.5,0.9,0.3,1.9,2,2.2c1.6,0.3,3.4-0.2,3.9-1.1c0.5-0.9-0.3-1.9-2-2.2
			C166.8,145.6,165,146.1,164.5,147"/>
		<path class="st84" d="M164.8,147.1c-0.5,0.8,0.3,1.7,1.7,1.9c1.4,0.3,3-0.2,3.5-0.9c0.5-0.8-0.3-1.7-1.7-1.9
			C166.9,145.8,165.3,146.3,164.8,147.1"/>
		<path class="st85" d="M138.9,152.4v26.7h0c0,0.4-0.5,0.7-1.1,0.7c-0.6,0-1.1-0.3-1.1-0.7h0v-26.7H138.9z"/>
		<path class="st86" d="M138.9,153v3.1h0c0,0.4-0.5,0.7-1.1,0.7c-0.6,0-1.1-0.3-1.1-0.7h0V153H138.9z"/>
		<path class="st87" d="M131.5,157.2l12.2-7c1-0.6,1.8-2.1,1.8-3.5v-7.2c0-1.3-0.8-2-1.8-1.4l-12.2,7c-1,0.6-1.8,2.1-1.8,3.5v7.2
			C129.6,157.2,130.5,157.8,131.5,157.2"/>
		<path class="st77" d="M131.9,157.4l12.2-7c1-0.6,1.8-2.1,1.8-3.5v-7.2c0-1.3-0.8-2-1.8-1.4l-12.2,7c-1,0.6-1.8,2.1-1.8,3.5v7.2
			C130.1,157.4,130.9,158,131.9,157.4"/>
		<path class="st82" d="M136.1,151.1c0.5,1,1.7,0.5,2.7-1.1c1-1.6,1.5-3.7,1-4.7c-0.5-1-1.7-0.5-2.7,1.1
			C136,148,135.6,150.1,136.1,151.1"/>
		<path class="st83" d="M135,147.7c-0.5,0.9,0.3,1.9,2,2.2c1.6,0.3,3.4-0.2,3.9-1.1c0.5-0.9-0.3-1.9-2-2.2
			C137.3,146.3,135.5,146.7,135,147.7"/>
		<path class="st84" d="M135.3,147.7c-0.5,0.8,0.3,1.7,1.7,1.9c1.4,0.3,3-0.2,3.5-0.9c0.5-0.8-0.3-1.7-1.7-1.9
			C137.4,146.5,135.8,146.9,135.3,147.7"/>
	</g>
	<g>
		<polygon class="st14" points="-78.2,355.5 -60.3,365.8 194.8,213.5 176.9,203.2 		"/>
		<path class="st15" d="M150.2,228.9l0.6,0.3l-2.4,1.4l-0.6-0.3L150.2,228.9z M154.9,226.1l0.6,0.3l-2.4,1.4l-0.6-0.3L154.9,226.1z
			 M159.7,223.4l0.6,0.3l-2.4,1.4l-0.6-0.3L159.7,223.4z M164.4,220.7l0.6,0.3l-2.4,1.4L162,222L164.4,220.7z M169.1,217.9l0.6,0.3
			l-2.4,1.4l-0.6-0.3L169.1,217.9z M173.9,215.2l0.6,0.3l-2.4,1.4l-0.6-0.3L173.9,215.2z M178.6,212.5l0.6,0.3l-2.4,1.4l-0.6-0.3
			L178.6,212.5z M183.4,209.7l0.6,0.3l-2.4,1.4l-0.6-0.3L183.4,209.7z"/>
		<path class="st15" d="M112,250.8l0.6,0.3l-2.4,1.4l-0.6-0.3L112,250.8z M116.7,248l0.6,0.3l-2.4,1.4l-0.6-0.3L116.7,248z
			 M121.5,245.3l0.6,0.3l-2.4,1.4l-0.6-0.3L121.5,245.3z M126.2,242.6l0.6,0.3l-2.4,1.4l-0.6-0.3L126.2,242.6z M130.9,239.8l0.6,0.3
			l-2.4,1.4l-0.6-0.3L130.9,239.8z M135.7,237.1l0.6,0.3l-2.4,1.4l-0.6-0.3L135.7,237.1z M140.4,234.4l0.6,0.3l-2.4,1.4l-0.6-0.3
			L140.4,234.4z M145.2,231.6l0.6,0.3l-2.4,1.4l-0.6-0.3L145.2,231.6z"/>
		<path class="st15" d="M74.2,273l0.6,0.3l-2.4,1.4l-0.6-0.3L74.2,273z M78.9,270.2l0.6,0.3l-2.4,1.4l-0.6-0.3L78.9,270.2z
			 M83.7,267.5l0.6,0.3l-2.4,1.4l-0.6-0.3L83.7,267.5z M88.4,264.8l0.6,0.3l-2.4,1.4l-0.6-0.3L88.4,264.8z M93.1,262l0.6,0.3
			l-2.4,1.4l-0.6-0.3L93.1,262z M97.9,259.3l0.6,0.3l-2.4,1.4l-0.6-0.3L97.9,259.3z M102.6,256.6l0.6,0.3l-2.4,1.4l-0.6-0.3
			L102.6,256.6z M107.4,253.8l0.6,0.3l-2.4,1.4l-0.6-0.3L107.4,253.8z"/>
		<path class="st15" d="M36.4,295.2l0.6,0.3l-2.4,1.4l-0.6-0.3L36.4,295.2z M41.1,292.4l0.6,0.3l-2.4,1.4l-0.6-0.3L41.1,292.4z
			 M45.9,289.7l0.6,0.3l-2.4,1.4l-0.6-0.3L45.9,289.7z M50.6,287l0.6,0.3l-2.4,1.4l-0.6-0.3L50.6,287z M55.4,284.2l0.6,0.3l-2.4,1.4
			l-0.6-0.3L55.4,284.2z M60.1,281.5l0.6,0.3l-2.4,1.4l-0.6-0.3L60.1,281.5z M64.8,278.8l0.6,0.3l-2.4,1.4l-0.6-0.3L64.8,278.8z
			 M69.6,276l0.6,0.3l-2.4,1.4l-0.6-0.3L69.6,276z"/>
		<path class="st15" d="M-1.4,317.4l0.6,0.3l-2.4,1.4l-0.6-0.3L-1.4,317.4z M3.3,314.6l0.6,0.3l-2.4,1.4L1,316L3.3,314.6z
			 M8.1,311.9l0.6,0.3l-2.4,1.4l-0.6-0.3L8.1,311.9z M12.8,309.2l0.6,0.3l-2.4,1.4l-0.6-0.3L12.8,309.2z M17.6,306.4l0.6,0.3
			l-2.4,1.4l-0.6-0.3L17.6,306.4z M22.3,303.7l0.6,0.3l-2.4,1.4l-0.6-0.3L22.3,303.7z M27,300.9l0.6,0.3l-2.4,1.4l-0.6-0.3L27,300.9
			z M31.8,298.2l0.6,0.3l-2.4,1.4l-0.6-0.3L31.8,298.2z"/>
		<path class="st15" d="M-39.2,339.6l0.6,0.3l-2.4,1.4l-0.6-0.3L-39.2,339.6z M-34.5,336.8l0.6,0.3l-2.4,1.4l-0.6-0.3L-34.5,336.8z
			 M-29.7,334.1l0.6,0.3l-2.4,1.4l-0.6-0.3L-29.7,334.1z M-25,331.4l0.6,0.3l-2.4,1.4l-0.6-0.3L-25,331.4z M-20.2,328.6l0.6,0.3
			l-2.4,1.4l-0.6-0.3L-20.2,328.6z M-15.5,325.9l0.6,0.3l-2.4,1.4l-0.6-0.3L-15.5,325.9z M-10.8,323.1l0.6,0.3l-2.4,1.4l-0.6-0.3
			L-10.8,323.1z M-6,320.4l0.6,0.3l-2.4,1.4l-0.6-0.3L-6,320.4z"/>
		<path class="st15" d="M-77,361.8l0.6,0.3l-2.4,1.4l-0.6-0.3L-77,361.8z M-72.3,359l0.6,0.3l-2.4,1.4l-0.6-0.3L-72.3,359z
			 M-67.5,356.3l0.6,0.3l-2.4,1.4l-0.6-0.3L-67.5,356.3z M-62.8,353.6l0.6,0.3l-2.4,1.4l-0.6-0.3L-62.8,353.6z M-58,350.8l0.6,0.3
			l-2.4,1.4l-0.6-0.3L-58,350.8z M-53.3,348.1l0.6,0.3l-2.4,1.4l-0.6-0.3L-53.3,348.1z M-48.6,345.3l0.6,0.3l-2.4,1.4l-0.6-0.3
			L-48.6,345.3z M-43.8,342.6l0.6,0.3l-2.4,1.4l-0.6-0.3L-43.8,342.6z"/>
	</g>
	<g>
		<path class="st14" d="M253.5,206c-22.4-12.9-61.4-13.5-80.9-0.1l17.9,10.3c12.4-7.2,32.7-7.1,45.2,0.1L253.5,206z"/>
		<path class="st15" d="M244.3,211.3c-0.8-0.5-1.6-0.9-2.4-1.3l0.5-0.4c0.9,0.4,1.7,0.9,2.5,1.3L244.3,211.3z M239.3,208.8
			c-0.9-0.4-1.8-0.7-2.8-1.1l0.4-0.4c1,0.3,1.9,0.7,2.8,1.1L239.3,208.8z M233.6,206.8c-1-0.3-2-0.6-3-0.8l0.3-0.4
			c1,0.3,2.1,0.5,3.1,0.9L233.6,206.8z M227.5,205.2c-1-0.2-2.1-0.4-3.2-0.6l0.2-0.5c1.1,0.2,2.2,0.4,3.3,0.6L227.5,205.2z
			 M221,204.3c-1.1-0.1-2.2-0.2-3.3-0.3l0.1-0.5c1.1,0.1,2.3,0.2,3.4,0.3L221,204.3z M214.4,203.8c-1.1,0-2.2,0-3.3,0l0-0.5
			c1.1,0,2.3,0,3.4,0L214.4,203.8z M207.8,204c-1.1,0.1-2.2,0.2-3.3,0.3l-0.2-0.5c1.1-0.1,2.2-0.2,3.3-0.3L207.8,204z M201.3,204.7
			c-1.1,0.2-2.1,0.4-3.2,0.6l-0.3-0.5c1.1-0.2,2.1-0.4,3.2-0.6L201.3,204.7z M195,206c-1,0.3-2,0.5-3,0.8l-0.4-0.4
			c1-0.3,2-0.6,3-0.9L195,206z M189.2,207.8c-0.9,0.3-1.8,0.7-2.7,1.1l-0.5-0.4c0.9-0.4,1.8-0.8,2.8-1.1L189.2,207.8z M183.9,210.1
			c-0.7,0.3-1.4,0.7-2,1.1l-0.6-0.3c0.7-0.4,1.3-0.8,2-1.1L183.9,210.1z"/>
	</g>
	<path class="st0" d="M228.5,217.5c0,0-16.5-9.1-38.2,2.4s-82.7,49.7-82.7,49.7l11.9,13.7L228.5,217.5z"/>
	<g>
		<g>
			<g>
				<path class="st18" d="M223.6,210.8c0,0-0.1,3.2-0.1,4c0,0.8-1.9,0.8-1.8-0.3c0.1-2,0.1-3.8,0.1-3.8L223.6,210.8z"/>
				<polygon class="st43" points="228.3,203.9 227.2,209.1 222.6,211.9 218.6,208.7 217.2,203.6 219,198.7 223.1,196.5 227.5,198.6 
									"/>
			</g>
			<g>
				<path class="st22" d="M213.7,211.3v9.1c0,0.8-1.8,0.9-1.8-0.2v-8.9H213.7z"/>
				<polygon class="st19" points="220,209.1 217.4,213.4 212.6,214.8 208.3,212.6 206.6,208.7 208.6,204.9 212.9,204.1 217.6,204.6 
									"/>
			</g>
			<g>
				<path class="st22" d="M193,226.9v5.3c0,0.8-1.8,0.9-1.8-0.2v-5.1H193z"/>
				<polygon class="st19" points="197.4,222.1 195.8,226.1 192.2,227.8 188.8,225.8 186.8,221.8 188.3,217.3 192.5,216.2 
					196.3,217.8 				"/>
			</g>
			<g>
				<path class="st18" d="M204.4,221.8v4c0,0.8-1.8,0.9-1.8-0.2v-3.8H204.4z"/>
				<polygon class="st43" points="209.2,215.5 208.1,220.6 203.6,222.4 199.3,220.4 198.9,215.2 200.3,210.4 204,208.2 207.3,210.8 
									"/>
			</g>
		</g>
		<g>
			<g>
				<path class="st18" d="M185,234.2c0,0-0.1,3.2-0.1,4c0,0.8-1.9,0.8-1.8-0.3c0.1-2,0.1-3.8,0.1-3.8L185,234.2z"/>
				<polygon class="st43" points="189.7,227.3 188.6,232.5 184,235.3 180,232.1 178.6,227 180.4,222.1 184.4,219.9 188.9,222.1 				
					"/>
			</g>
			<g>
				<path class="st22" d="M175,234.7v9.1c0,0.8-1.8,0.9-1.8-0.2v-8.9H175z"/>
				<polygon class="st19" points="181.3,232.5 178.8,236.9 174,238.2 169.7,236 167.9,232.1 169.9,228.3 174.3,227.5 179,228.1 				
					"/>
			</g>
			<g>
				<path class="st22" d="M154.4,250.3v5.3c0,0.8-1.8,0.9-1.8-0.2v-5.1H154.4z"/>
				<polygon class="st19" points="158.8,245.5 157.2,249.6 153.5,251.2 150.1,249.2 148.2,245.2 149.6,240.7 153.9,239.6 
					157.7,241.2 				"/>
			</g>
			<g>
				<path class="st18" d="M165.7,245.3v4c0,0.8-1.8,0.9-1.8-0.2v-3.8H165.7z"/>
				<polygon class="st43" points="170.6,238.9 169.5,244.1 165,245.8 160.6,243.8 160.3,238.6 161.6,233.8 165.4,231.6 168.7,234.2 
									"/>
			</g>
		</g>
		<g>
			<g>
				<path class="st18" d="M146.1,257.5c0,0-0.1,3.2-0.1,4c0,0.8-1.9,0.8-1.8-0.3c0.1-2,0.1-3.8,0.1-3.8L146.1,257.5z"/>
				<polygon class="st43" points="150.8,250.6 149.8,255.8 145.2,258.5 141.1,255.3 139.8,250.3 141.5,245.3 145.6,243.1 
					150.1,245.3 				"/>
			</g>
			<g>
				<path class="st22" d="M136.2,257.9v9.1c0,0.8-1.8,0.9-1.8-0.2v-8.9H136.2z"/>
				<polygon class="st19" points="142.5,255.7 140,260.1 135.1,261.5 130.9,259.2 129.1,255.3 131.1,251.6 135.4,250.7 140.1,251.3 
									"/>
			</g>
			<g>
				<path class="st22" d="M115.5,273.6v5.3c0,0.8-1.8,0.9-1.8-0.2v-5.1H115.5z"/>
				<polygon class="st19" points="120,268.7 118.4,272.8 114.7,274.4 111.3,272.5 109.3,268.4 110.8,264 115,262.8 118.8,264.4 				
					"/>
			</g>
			<g>
				<path class="st18" d="M126.9,268.5v4c0,0.8-1.8,0.9-1.8-0.2v-3.8H126.9z"/>
				<polygon class="st43" points="131.7,262.1 130.7,267.3 126.2,269 121.8,267 121.4,261.8 122.8,257.1 126.6,254.9 129.8,257.5 
									"/>
			</g>
		</g>
	</g>
	<g>
		<path class="st88" d="M275,210.1C274.9,210.1,274.9,210.1,275,210.1c-0.3-0.1-0.4-0.4-0.4-0.4c-0.1,0.5-0.1,0.9-0.1,0.9l-0.7,1.7
			l0.3,0.2c0,0,0.8-1.2,0.9-1.3l0,0L275,210.1z"/>
		<path class="st89" d="M277.8,217.2c0,0-0.1,0.1-0.2,0.1c-0.1,0-0.3,0-0.3,0c-0.1,0.2-0.3,0.5-0.2,0.7c0.1,0.1,0.7-0.2,0.8-0.5
			C277.8,217.5,277.8,217.4,277.8,217.2"/>
		<path class="st89" d="M274.8,217.5c-0.1,0.1-0.3,0.4-0.2,0.5c0.1,0.1,0.7-0.1,0.8-0.2c0.1,0,0.2-0.1,0.2-0.1l-0.1-0.3
			c0,0-0.1,0.1-0.3,0.1c-0.2,0-0.3,0-0.3-0.1L274.8,217.5z"/>
		<path class="st90" d="M277.4,215.7C277.4,215.7,277.4,215.7,277.4,215.7l-0.2-2.3l0-0.8c0,0-0.4,0.2-0.9,0.1
			c-0.3,0-0.6-0.1-0.9-0.3c-0.3-0.1-0.4-0.4-0.4-0.5l0,0l0,0.6l-0.1,2.9c0,0,0,0,0,0l0.1,1.8c0,0,0,0,0,0c0,0,0.1,0.1,0.3,0.1
			c0.2,0,0.2,0,0.3-0.1c0,0,0,0,0,0l0-1.8c0,0,0-0.1,0-0.1l0.2-2c0,0,0-0.1,0.1-0.1c0.1,0,0.1,0,0.1,0.1l0.4,2.2l0.7,1.6
			c0,0,0,0,0,0c0.1,0,0.2,0.1,0.3,0c0.1,0,0.2-0.1,0.2-0.1c0,0,0-0.1,0-0.1L277.4,215.7z"/>
		<path class="st91" d="M277.6,209.9c-0.1-0.3-0.3-0.5-0.4-0.5c0,0,0,0,0,0c0,0,0,0,0,0l-0.8-0.6l-0.6-0.1c-0.3,0-0.4,0-0.6,0
			c0,0-0.1,0-0.1,0c-0.2,0.1-0.4,0.5-0.4,1c0,0,0,0.3,0.3,0.3c0,0,0.1,0,0.1,0l0,1.9l0,0c0,0.1,0.1,0.3,0.4,0.5
			c0.3,0.2,0.6,0.3,0.9,0.3c0.5,0,0.9-0.1,0.9-0.1l0.2-2.2c0.2-0.1,0.3-0.1,0.4-0.3c0,0,0,0,0,0C277.7,210.1,277.6,210,277.6,209.9"
			/>
		<path class="st92" d="M276.4,209l-0.1-0.4h0c0,0,0-0.1-0.1-0.1c-0.1-0.1-0.3-0.1-0.5,0c-0.1,0-0.1,0.1-0.1,0.1h0l-0.1,0.4h0
			c0,0.1,0,0.1,0.1,0.2c0.2,0.1,0.4,0.1,0.6,0.1C276.4,209.1,276.4,209,276.4,209L276.4,209z"/>
		<path class="st88" d="M276.3,206.8c-0.2-0.1-0.4-0.1-0.6-0.1c-0.1,0-0.1,0.1-0.2,0.1c-0.1,0.1-0.2,0.3-0.2,0.7
			c0,0.5,0.3,0.9,0.3,0.9c0.1,0.2,0.5,0.3,0.9,0c0.1-0.1,0.2-0.3,0.2-0.7c0-0.5-0.3-0.8-0.3-0.8
			C276.3,206.9,276.3,206.9,276.3,206.8"/>
		<path class="st88" d="M278.1,213.5v0.3c0,0,0.3,0,0,0.1c-0.3,0.1-0.6-0.1-0.4-0.6L278.1,213.5z"/>
		<path class="st88" d="M278.3,211.9c0-0.2-0.4-1.2-0.6-1.7c0,0,0,0,0,0c-0.1,0.1-0.4,0.3-0.6,0.3c0,0,0,0-0.1,0
			c0.2,0.4,0.6,1.3,0.6,1.4c0.1,0.2,0,1.5,0,1.5l0.4,0.1C278.1,213.5,278.3,212.2,278.3,211.9"/>
	</g>
	<path class="st93" d="M403.8,152c-4.6,32.5-36.1,75-36.1,75s-29-36-36.8-73.8c-6.7-32.7,15.5-47.9,36.8-47.9S408.5,119,403.8,152z"
		/>
	<circle class="st15" cx="367.7" cy="142.7" r="24.1"/>
</g>
<g>
</g>
<g>
</g>
<g>
</g>
<g>
</g>
<g>
</g>
<g>
</g>
<g>
</g>
<g>
</g>
<g>
</g>
<g>
</g>
<g>
</g>
</svg>
