<?xml version="1.0" encoding="utf-8"?>
<!-- Generator: Adobe Illustrator 19.2.1, SVG Export Plug-In . SVG Version: 6.00 Build 0)  -->
<svg version="1.0" id="Слой_1" xmlns="http://www.w3.org/2000/svg" xmlns:xlink="http://www.w3.org/1999/xlink" x="0px" y="0px"
	 viewBox="0 0 500 500" style="enable-background:new 0 0 500 500;" xml:space="preserve">
<style type="text/css">
	.st0{fill:#ED963E;}
	.st1{fill:#B3B3B3;}
	.st2{fill:#808080;}
	.st3{fill:#E6E6E6;}
	.st4{fill:#F2F2F2;}
	.st5{fill:#CCCCCC;}
	.st6{fill:#D681EA;}
	.st7{fill:#C52CE5;}
</style>
<g>
	<path class="st0" d="M429.8,233.4c22.1,12.7,22.1,33.6,0,46.4s-58.2,12.7-80.3,0c-22.1-12.7-22.1-33.6,0-46.4
		C371.6,220.7,407.7,220.7,429.8,233.4z"/>
	<rect x="332.9" y="150.6" class="st1" width="113.4" height="105.5"/>
	<path class="st2" d="M429.8,233.3c22.1,12.7,22.1,33.6,0,46.4c-22.1,12.7-58.2,12.7-80.3,0c-22.1-12.7-22.1-33.6,0-46.4
		S407.7,220.5,429.8,233.3z"/>
	<g>
		<path class="st3" d="M432.5,126.5c23.6,13.6,23.6,35.9,0,49.5c-23.6,13.6-62.1,13.6-85.7,0c-23.6-13.6-23.6-35.9,0-49.5
			S408.9,112.9,432.5,126.5z"/>
		<rect x="329.2" y="130.7" class="st3" width="121" height="20.5"/>
		<path class="st4" d="M432.5,106c23.6,13.6,23.6,35.9,0,49.5c-23.6,13.6-62.1,13.6-85.7,0c-23.6-13.6-23.6-35.9,0-49.5
			C370.4,92.4,408.9,92.4,432.5,106z"/>
	</g>
	<g>
		<path class="st5" d="M354.8,203.4v35.2c20.4,9.1,49.3,9.1,69.7,0v-35.2C404.1,212.5,375.2,212.5,354.8,203.4z"/>
	</g>
	<g>
		<path class="st0" d="M150.5,233.4c22.1,12.7,22.1,33.6,0,46.4s-58.2,12.7-80.3,0s-22.1-33.6,0-46.4S128.4,220.7,150.5,233.4z"/>
		<rect x="53.6" y="150.6" class="st1" width="113.4" height="105.5"/>
		<path class="st2" d="M150.5,233.3c22.1,12.7,22.1,33.6,0,46.4c-22.1,12.7-58.2,12.7-80.3,0c-22.1-12.7-22.1-33.6,0-46.4
			S128.4,220.5,150.5,233.3z"/>
		<g>
			<path class="st3" d="M153.2,126.5c23.6,13.6,23.6,35.9,0,49.5c-23.6,13.6-62.1,13.6-85.7,0c-23.6-13.6-23.6-35.9,0-49.5
				S129.6,112.9,153.2,126.5z"/>
			<rect x="49.8" y="130.7" class="st3" width="121" height="20.5"/>
			<path class="st4" d="M153.2,106c23.6,13.6,23.6,35.9,0,49.5c-23.6,13.6-62.1,13.6-85.7,0C44,141.8,44,119.6,67.5,106
				S129.6,92.4,153.2,106z"/>
		</g>
		<g>
			<path class="st5" d="M75.5,203.4v35.2c20.4,9.1,49.3,9.1,69.7,0v-35.2C124.8,212.5,95.9,212.5,75.5,203.4z"/>
		</g>
	</g>
	<g>
		<path class="st0" d="M285,230.8c22.1,12.7,22.1,33.6,0,46.4s-58.2,12.7-80.3,0s-22.1-33.6,0-46.4S262.9,218,285,230.8z"/>
		<rect x="188.2" y="148" class="st1" width="113.4" height="105.5"/>
		<path class="st2" d="M285,230.6c22.1,12.7,22.1,33.6,0,46.4s-58.2,12.7-80.3,0s-22.1-33.6,0-46.4S262.9,217.9,285,230.6z"/>
		<g>
			<path class="st3" d="M287.7,123.9c23.6,13.6,23.6,35.9,0,49.5c-23.6,13.6-62.1,13.6-85.7,0s-23.6-35.9,0-49.5
				S264.2,110.3,287.7,123.9z"/>
			<rect x="184.4" y="128.1" class="st3" width="121" height="20.5"/>
			<path class="st4" d="M287.7,103.3c23.6,13.6,23.6,35.9,0,49.5s-62.1,13.6-85.7,0s-23.6-35.9,0-49.5S264.2,89.7,287.7,103.3z"/>
		</g>
		<g>
			<path class="st5" d="M210,200.7v35.2c20.4,9.1,49.3,9.1,69.7,0v-35.2C259.3,209.9,230.4,209.9,210,200.7z"/>
		</g>
	</g>
	<path class="st0" d="M381.2,274.7c22.1,12.7,22.1,33.6,0,46.4c-22.1,12.7-58.2,12.7-80.3,0c-22.1-12.7-22.1-33.6,0-46.4
		C323,262,359.1,262,381.2,274.7z"/>
	<rect x="284.3" y="191.9" class="st1" width="113.4" height="105.5"/>
	<path class="st2" d="M381.2,274.6c22.1,12.7,22.1,33.6,0,46.4c-22.1,12.7-58.2,12.7-80.3,0c-22.1-12.7-22.1-33.6,0-46.4
		C323,261.8,359.1,261.8,381.2,274.6z"/>
	<g>
		<path class="st3" d="M383.8,167.8c23.6,13.6,23.6,35.9,0,49.5c-23.6,13.6-62.1,13.6-85.7,0c-23.6-13.6-23.6-35.9,0-49.5
			C321.7,154.2,360.3,154.2,383.8,167.8z"/>
		<rect x="280.5" y="172" class="st3" width="121" height="20.5"/>
		<path class="st4" d="M383.8,147.3c23.6,13.6,23.6,35.9,0,49.5s-62.1,13.6-85.7,0c-23.6-13.6-23.6-35.9,0-49.5
			C321.7,133.7,360.3,133.7,383.8,147.3z"/>
	</g>
	<g>
		<path class="st5" d="M306.2,244.7v35.2c20.4,9.1,49.3,9.1,69.7,0v-35.2C355.5,253.8,326.6,253.8,306.2,244.7z"/>
	</g>
	<g>
		<path class="st0" d="M188.2,274.7c22.1,12.7,22.1,33.6,0,46.4c-22.1,12.7-58.2,12.7-80.3,0c-22.1-12.7-22.1-33.6,0-46.4
			C130,262,166.1,262,188.2,274.7z"/>
		<rect x="91.3" y="191.9" class="st1" width="113.4" height="105.5"/>
		<path class="st2" d="M188.2,274.6c22.1,12.7,22.1,33.6,0,46.4c-22.1,12.7-58.2,12.7-80.3,0c-22.1-12.7-22.1-33.6,0-46.4
			C130,261.8,166.1,261.8,188.2,274.6z"/>
		<g>
			<path class="st3" d="M190.8,167.8c23.6,13.6,23.6,35.9,0,49.5s-62.1,13.6-85.7,0s-23.6-35.9,0-49.5S167.3,154.2,190.8,167.8z"/>
			<rect x="87.5" y="172" class="st3" width="121" height="20.5"/>
			<path class="st4" d="M190.8,147.3c23.6,13.6,23.6,35.9,0,49.5s-62.1,13.6-85.7,0s-23.6-35.9,0-49.5
				C128.7,133.7,167.3,133.7,190.8,147.3z"/>
		</g>
		<g>
			<path class="st5" d="M113.2,244.7v35.2c20.4,9.1,49.3,9.1,69.7,0v-35.2C162.5,253.8,133.6,253.8,113.2,244.7z"/>
		</g>
	</g>
	<g>
		<path class="st0" d="M285,350.9c22.1,12.7,22.1,33.6,0,46.4s-58.2,12.7-80.3,0s-22.1-33.6,0-46.4
			C226.8,338.2,262.9,338.2,285,350.9z"/>
		<rect x="188.2" y="268.1" class="st6" width="113.4" height="105.5"/>
		<path class="st7" d="M285,350.8c22.1,12.7,22.1,33.6,0,46.4s-58.2,12.7-80.3,0s-22.1-33.6,0-46.4
			C226.8,338.1,262.9,338.1,285,350.8z"/>
		<g>
			<path class="st3" d="M287.7,244c23.6,13.6,23.6,35.9,0,49.5s-62.1,13.6-85.7,0s-23.6-35.9,0-49.5S264.2,230.4,287.7,244z"/>
			<rect x="184.4" y="248.2" class="st3" width="121" height="20.5"/>
			<path class="st4" d="M287.7,223.5c23.6,13.6,23.6,35.9,0,49.5c-23.6,13.6-62.1,13.6-85.7,0s-23.6-35.9,0-49.5
				S264.2,209.9,287.7,223.5z"/>
		</g>
		<g>
			<path class="st5" d="M210,320.9v35.2c20.4,9.1,49.3,9.1,69.7,0v-35.2C259.3,330,230.4,330,210,320.9z"/>
		</g>
	</g>
</g>
<g>
</g>
<g>
</g>
<g>
</g>
<g>
</g>
<g>
</g>
<g>
</g>
<g>
</g>
<g>
</g>
<g>
</g>
<g>
</g>
<g>
</g>
</svg>
