<?xml version="1.0" encoding="utf-8"?>
<!-- Generator: Adobe Illustrator 19.2.1, SVG Export Plug-In . SVG Version: 6.00 Build 0)  -->
<svg version="1.0" id="Слой_1" xmlns="http://www.w3.org/2000/svg" xmlns:xlink="http://www.w3.org/1999/xlink" x="0px" y="0px"
	 viewBox="0 0 500 500" style="enable-background:new 0 0 500 500;" xml:space="preserve">
<style type="text/css">
	.st0{fill:#E6E6E6;}
	.st1{fill:#C69C6D;}
	.st2{fill:#CCCCCC;}
	.st3{fill:#FFFFFF;}
	.st4{fill:#B3B3B3;}
	.st5{fill:#935319;}
	.st6{fill:#D3781E;}
	.st7{fill:#603512;}
	.st8{fill:#F7931E;}
	.st9{fill:#9B1821;}
	.st10{fill:#7F131E;}
	.st11{fill:#ED1C24;}
	.st12{fill:#6D121B;}
	.st13{fill:#1FAA25;}
	.st14{fill:#24DD35;}
	.st15{fill:#1C8E1C;}
	.st16{fill:#197219;}
	.st17{opacity:0.55;}
	.st18{fill:#808080;}
	.st19{fill:#999999;}
	.st20{fill:#ED963E;}
	.st21{fill:#E8842A;}
	.st22{fill:#F2F2F2;}
</style>
<g>
	<g>
		<polygon class="st0" points="290.5,81.1 214.2,81.1 218,63.9 286.7,63.9 		"/>
		<path class="st1" d="M303.4,105.6L303.4,105.6c0-7.6-5-15.1-14.9-20.9c-19.9-11.5-52.4-11.5-72.2,0c-9.9,5.7-14.9,13.3-14.9,20.9
			l0,0V189h0c0,7.6,5,15.1,14.9,20.9c19.9,11.5,52.4,11.5,72.2,0c9.9-5.7,14.9-13.3,14.9-20.9h0V105.6z"/>
		<g>
			<path class="st0" d="M279.3,65.5c14.8,8.6,14.8,22.6,0,31.2c-14.8,8.6-39.1,8.6-54,0c-14.8-8.6-14.8-22.6,0-31.2
				C239.1,57.6,265.6,57.6,279.3,65.5z"/>
			<path class="st0" d="M279.3,65.5c14.8,8.6,14.8,22.6,0,31.2c-14.8,8.6-39.1,8.6-54,0c-14.8-8.6-14.8-22.6,0-31.2
				C239.1,57.6,265.6,57.6,279.3,65.5z"/>
		</g>
		<g>
			<path class="st2" d="M276.6,49.9c13.4,7.7,17.5,21,2.7,29.6s-39.1,8.6-54,0c-14.8-8.6-10.7-21.9,2.7-29.6
				C241.4,42.2,263.3,42.2,276.6,49.9z"/>
			<path class="st0" d="M276.6,49.9c13.4,7.7,13.4,20.3,0,28.1c-13.4,7.7-35.2,7.7-48.6,0c-13.4-7.7-13.4-20.3,0-28.1
				C241.4,42.2,263.3,42.2,276.6,49.9z"/>
		</g>
		<path class="st3" d="M290.5,127c-0.6,0.4-1.3,0.8-2,1.2c-19.9,11.5-52.4,11.5-72.2,0c-1.4-0.8-2.8-1.7-4-2.6v42.5
			c1.2,0.9,2.6,1.8,4,2.6c19.9,11.5,52.4,11.5,72.2,0c0.7-0.4,1.4-0.8,2-1.2V127z"/>
		<g>
			<path class="st4" d="M218.6,138.3v5.6c17.7,9,43.9,9.7,62.9,2.1v-5.6C262.5,148,236.3,147.3,218.6,138.3z"/>
		</g>
		<g>
			<path class="st4" d="M218.6,150.3v5.6c17.7,9,43.9,9.7,62.9,2.1v-5.6C262.5,159.9,236.3,159.3,218.6,150.3z"/>
		</g>
		<g>
			<path class="st4" d="M218.6,159.9v5.6c17.7,9,43.9,9.7,62.9,2.1V162C262.5,169.6,236.3,168.9,218.6,159.9z"/>
		</g>
	</g>
	<g>
		<polygon class="st0" points="83.3,268.8 45.1,202.8 32.1,214.7 66.5,274.1 		"/>
		<path class="st1" d="M110.9,267.7L110.9,267.7c-6.5,3.8-15.6,3.3-25.5-2.5c-19.9-11.5-36.1-39.6-36.1-62.6
			c0-11.5,4.1-19.6,10.6-23.3l0,0l72.2-41.7l0,0c6.5-3.8,15.6-3.3,25.5,2.5c19.9,11.5,36.1,39.6,36.1,62.6
			c0,11.5-4.1,19.6-10.6,23.3l0,0L110.9,267.7z"/>
		<g>
			<path class="st0" d="M64.2,267c14.8,8.6,27,1.6,27-15.6c0-17.1-12.1-38.2-27-46.8s-27-1.6-27,15.6C37.2,236.1,50.5,259,64.2,267z
				"/>
			<path class="st0" d="M64.2,267c14.8,8.6,27,1.6,27-15.6c0-17.1-12.1-38.2-27-46.8s-27-1.6-27,15.6C37.2,236.1,50.5,259,64.2,267z
				"/>
		</g>
		<g>
			<path class="st2" d="M49.3,272.4c13.4,7.7,27,4.7,27-12.5c0-17.1-12.1-38.2-27-46.8S25,214.9,25,230.4S35.9,264.7,49.3,272.4z"/>
			<path class="st0" d="M49.3,272.4c13.4,7.7,24.3,1.4,24.3-14c0-15.4-10.9-34.4-24.3-42.1s-24.3-1.4-24.3,14S35.9,264.7,49.3,272.4
				z"/>
		</g>
		<path class="st3" d="M123,245.8c0-0.8,0.1-1.6,0.1-2.4c0-22.9-16.3-51.1-36.1-62.6c-1.4-0.8-2.9-1.5-4.2-2.2l36.8-21.3
			c1.4,0.6,2.8,1.3,4.2,2.2c19.9,11.5,36.1,39.6,36.1,62.6c0,0.8,0,1.6-0.1,2.4L123,245.8z"/>
		<g>
			<path class="st4" d="M96.9,178l4.9-2.8c16.7,10.8,30.3,33.2,33.2,53.5l-4.9,2.8C127.2,211.1,113.5,188.8,96.9,178z"/>
		</g>
		<g>
			<path class="st4" d="M107.2,172l4.9-2.8c16.7,10.8,30.3,33.2,33.2,53.5l-4.9,2.8C137.5,205.2,123.9,182.9,107.2,172z"/>
		</g>
		<g>
			<path class="st4" d="M115.6,167.2l4.9-2.8c16.7,10.8,30.3,33.2,33.2,53.5l-4.9,2.8C145.9,200.3,132.2,178,115.6,167.2z"/>
		</g>
	</g>
	<g>
		<path class="st5" d="M180,301.4c9.9,5.7,9.9,15.1,0,20.9c-9.9,5.7-26.2,5.7-36.1,0c-9.9-5.7-9.9-15.1,0-20.9
			c7.9-4.5,19.7-5.5,29.2-2.8l0,1.3c0,0,4.3,1.4,6.1,2.4C179.4,302.4,179.8,301.3,180,301.4z"/>
		<rect x="136.5" y="311.8" class="st6" width="51" height="8"/>
		<path class="st7" d="M150.8,326.4l28.6-24c-1.9-1-4-1.8-6.2-2.5l-28.6,24C146.5,324.9,148.6,325.7,150.8,326.4z"/>
		<g>
			<path class="st6" d="M180,309.4c-1.8-1-3.8-1.9-6-2.6L150.8,325v1.3c-2.2-0.6-4.3-1.4-6.2-2.5l22.1-18.6c-8-0.9-16.6,0.5-22.8,4
				c-9.9,5.7-9.9,15.1,0,20.9c9.9,5.7,26.2,5.7,36.1,0C190,324.5,190,315.1,180,309.4z"/>
		</g>
		<g>
			<path class="st8" d="M179.3,301"/>
			<path class="st8" d="M150.8,325c9.8,3.2,20.9,2,29.2-2.8c9.9-5.7,9.9-15.1,0-20.9c-0.2-0.1-0.4-0.2-0.7-0.3L150.8,325z"/>
			<g>
				<path class="st8" d="M144.6,322.6l28.6-24c-9.5-2.7-21.4-1.7-29.2,2.8c-9.9,5.7-9.9,15.1,0,20.9L144.6,322.6z"/>
			</g>
		</g>
		<path class="st6" d="M144.6,322.6"/>
		<polygon class="st5" points="144.6,322.6 144.6,323.9 173.1,299.9 173.1,298.6 		"/>
	</g>
	<g>
		<path class="st5" d="M129.7,293.8c-5.7,9.9-15.1,9.9-20.9,0c-5.7-9.9-5.7-26.2,0-36.1c5.7-9.9,15.1-9.9,20.9,0
			c4.5,7.9,5.5,19.7,2.8,29.2l-1.3,0c0,0-1.4,4.3-2.4,6.1C128.7,293.2,129.8,293.6,129.7,293.8z"/>
		
			<rect x="89.8" y="271.7" transform="matrix(-1.836970e-016 1 -1 -1.836970e-016 391.0053 160.4699)" class="st9" width="51" height="8"/>
		<path class="st10" d="M104.7,264.6l24,28.6c1-1.9,1.8-4,2.5-6.2l-24-28.6C106.2,260.2,105.3,262.3,104.7,264.6z"/>
		<g>
			<path class="st9" d="M121.7,293.8c1-1.8,1.9-3.8,2.6-6L106,264.6h-1.3c0.6-2.2,1.4-4.3,2.5-6.2l18.6,22.1c0.9-8-0.5-16.6-4-22.8
				c-5.7-9.9-15.1-9.9-20.9,0c-5.7,9.9-5.7,26.2,0,36.1C106.6,303.7,116,303.7,121.7,293.8z"/>
		</g>
		<path class="st11" d="M106,264.6c-3.2,9.8-2,20.9,2.8,29.2c5.7,9.9,15.1,9.9,20.9,0c0.1-0.2,0.2-0.4,0.3-0.7L106,264.6z"/>
		<g>
			<path class="st11" d="M108.5,258.3l24,28.6c2.7-9.5,1.7-21.4-2.8-29.2c-5.7-9.9-15.1-9.9-20.9,0L108.5,258.3z"/>
		</g>
		<path class="st6" d="M108.5,258.3"/>
		<polygon class="st12" points="108.5,258.3 107.2,258.3 131.2,286.9 132.5,286.9 		"/>
	</g>
	<g>
		<rect x="192.5" y="319.9" class="st6" width="51" height="8"/>
		<path class="st6" d="M236.1,317.5c9.9,5.7,9.9,15.1,0,20.9c-9.9,5.7-26.2,5.7-36.1,0c-9.9-5.7-9.9-15.1,0-20.9
			C209.9,311.7,226.2,311.7,236.1,317.5z"/>
		<path class="st8" d="M236.1,309.5c-9.9-5.7-26.2-5.7-36.1,0c-6,3.5-8.4,8.3-7.1,12.9l46.6-10.4C238.5,311,237.4,310.2,236.1,309.5
			z"/>
		<path class="st7" d="M239.5,313.2l-46.6,10.4c0.6,1.9,1.8,3.8,3.7,5.5v-1.3l46.6-9.1C242.6,316.8,241.4,314.9,239.5,313.2z"/>
		<path class="st8" d="M196.6,327.9c1,0.9,2.1,1.7,3.4,2.4c9.9,5.7,26.2,5.7,36.1,0c6.1-3.5,8.4-8.3,7.1-12.9L196.6,327.9z"/>
		<polygon class="st5" points="192.9,322.4 192.9,323.7 239.5,313.2 239.5,311.9 		"/>
	</g>
	<g>
		<rect x="292.7" y="351.5" class="st9" width="51" height="8"/>
		<path class="st9" d="M336.3,349.1c9.9,5.7,9.9,15.1,0,20.9c-9.9,5.7-26.2,5.7-36.1,0c-9.9-5.7-9.9-15.1,0-20.9
			S326.3,343.3,336.3,349.1z"/>
		<path class="st11" d="M336.3,341.1c-9.9-5.7-26.2-5.7-36.1,0c-6.1,3.5-8.4,8.3-7.1,12.9l46.6-10.4
			C338.7,342.7,337.6,341.8,336.3,341.1z"/>
		<path class="st10" d="M339.7,344.8l-46.6,10.4c0.6,1.9,1.8,3.8,3.7,5.5v-1.3l46.6-9.1C342.8,348.4,341.6,346.5,339.7,344.8z"/>
		<path class="st11" d="M296.7,359.5c1,0.9,2.1,1.7,3.4,2.4c9.9,5.7,26.2,5.7,36.1,0c6.1-3.5,8.4-8.3,7.1-12.9L296.7,359.5z"/>
		<polygon class="st12" points="293.1,354 293.1,355.3 339.7,344.8 339.7,343.5 		"/>
	</g>
	<g>
		<rect x="209.4" y="223.1" class="st13" width="6.8" height="51"/>
		<path class="st13" d="M205.8,266.7c5.7,9.9,15.1,9.9,20.9,0c5.7-9.9,5.7-26.2,0-36.1c-5.7-9.9-15.1-9.9-20.9,0
			C200.1,240.5,200.1,256.7,205.8,266.7z"/>
		<path class="st14" d="M197.8,266.7c-5.7-9.9-5.7-26.2,0-36.1c2.1-3.6,4.6-5.9,7.3-6.9v49.9C202.5,272.6,199.9,270.3,197.8,266.7z"
			/>
		<path class="st15" d="M206.3,273.6v-49.9c2-0.7,4.1-0.7,6.2,0l-1.1,0v49.9l1.1,0C210.4,274.3,208.3,274.3,206.3,273.6z"/>
		<path class="st14" d="M218.7,230.6c5.7,9.9,5.7,26.2,0,36.1c-2.1,3.6-4.6,5.9-7.3,6.9v-49.9C214,224.7,216.6,227,218.7,230.6z"/>
		<rect x="205.2" y="223.7" class="st16" width="1.1" height="49.9"/>
	</g>
	<g>
		<rect x="217.7" y="359.7" class="st6" width="51" height="6.8"/>
		<path class="st6" d="M261.2,356.2c9.9,5.7,9.9,15.1,0,20.9c-9.9,5.7-26.2,5.7-36.1,0c-9.9-5.7-9.9-15.1,0-20.9
			C235,350.4,251.3,350.4,261.2,356.2z"/>
		<path class="st8" d="M261.2,348.2c-9.9-5.7-26.2-5.7-36.1,0c-3.6,2.1-5.9,4.6-6.9,7.3h49.9C267.1,352.8,264.8,350.2,261.2,348.2z"
			/>
		<path class="st7" d="M268.1,356.6h-49.9c-0.7,2-0.7,4.1,0,6.2l0-1.1h49.9l0,1.1C268.9,360.8,268.9,358.7,268.1,356.6z"/>
		<path class="st8" d="M225.1,369c9.9,5.7,26.2,5.7,36.1,0c3.6-2.1,5.9-4.6,6.9-7.3h-49.9C219.2,364.4,221.5,366.9,225.1,369z"/>
		<rect x="218.2" y="355.5" class="st5" width="49.9" height="1.1"/>
	</g>
	<g>
		<rect x="184.6" y="226.6" class="st13" width="6.8" height="51"/>
		<path class="st13" d="M181,270.2c5.7,9.9,15.1,9.9,20.9,0c5.7-9.9,5.7-26.2,0-36.1c-5.7-9.9-15.1-9.9-20.9,0
			C175.3,244,175.3,260.3,181,270.2z"/>
		<path class="st14" d="M173.1,270.2c-5.7-9.9-5.7-26.2,0-36.1c2.1-3.6,4.6-5.9,7.3-6.9v49.9C177.7,276.1,175.1,273.8,173.1,270.2z"
			/>
		<path class="st15" d="M181.5,277.1v-49.9c2-0.7,4.1-0.7,6.2,0l-1.1,0v49.9l1.1,0C185.7,277.8,183.6,277.8,181.5,277.1z"/>
		<path class="st14" d="M193.9,234.1c5.7,9.9,5.7,26.2,0,36.1c-2.1,3.6-4.6,5.9-7.3,6.9v-49.9C189.3,228.2,191.8,230.5,193.9,234.1z
			"/>
		<rect x="180.4" y="227.2" class="st16" width="1.1" height="49.9"/>
	</g>
	<g>
		<g>
			<path class="st2" d="M179,446.9c-8.6,4.9-22.6,5-31.2,0l-88.6-51c-8.6-4.9-8.6-13,0-18l38-21.9c8.6-4.9,22.6-5,31.2,0l88.6,51
				c8.6,4.9,8.6,13,0,18L179,446.9z"/>
		</g>
		<path class="st5" d="M95,378.7c5.4,3.1,5.4,8.2,0,11.2c-5.4,3.1-14.1,3.1-19.5,0c-5.4-3.1-5.4-8.2,0-11.2c4.2-2.5,10.6-3,15.8-1.5
			l0,0.7c0,0,2.3,0.8,3.3,1.3C94.7,379.2,94.9,378.6,95,378.7z"/>
		<rect x="71.5" y="384.3" class="st6" width="27.5" height="4.3"/>
		<path class="st7" d="M79.2,392.2l15.4-13c-1-0.6-2.2-1-3.4-1.3l-15.4,13C76.9,391.4,78,391.8,79.2,392.2z"/>
		<g>
			<path class="st6" d="M95,383c-1-0.6-2.1-1-3.2-1.4l-12.5,9.8v0.7c-1.2-0.3-2.3-0.8-3.4-1.3l11.9-10c-4.3-0.5-9,0.3-12.3,2.2
				c-5.4,3.1-5.4,8.2,0,11.2c5.4,3.1,14.1,3.1,19.5,0C100.3,391.2,100.3,386.1,95,383z"/>
		</g>
		<g>
			<path class="st8" d="M94.6,378.5"/>
			<path class="st8" d="M79.2,391.5c5.3,1.7,11.3,1.1,15.8-1.5c5.4-3.1,5.4-8.2,0-11.2c-0.1-0.1-0.2-0.1-0.4-0.2L79.2,391.5z"/>
			<g>
				<path class="st8" d="M75.9,390.1l15.4-13c-5.1-1.4-11.5-0.9-15.8,1.5c-5.4,3.1-5.4,8.2,0,11.2L75.9,390.1z"/>
			</g>
		</g>
		<path class="st6" d="M75.9,390.1"/>
		<polygon class="st5" points="75.9,390.1 75.9,390.8 91.3,377.9 91.3,377.2 		"/>
		<g class="st17">
			<path class="st18" d="M97.3,396c-6.6,3.8-17.4,3.8-24.1,0c-6.6-3.8-6.6-10.1,0-13.9c6.6-3.8,17.4-3.8,24.1,0
				C103.9,385.9,103.9,392.2,97.3,396z"/>
			<polygon class="st18" points="101.9,387 68.5,387.3 70.3,381.8 100.1,381.7 			"/>
			<path class="st19" d="M96.1,390c-6,3.4-15.7,3.4-21.6,0c-6-3.4-6-9.1,0-12.5c6-3.4,15.7-3.4,21.6,0C102,380.9,102,386.6,96.1,390
				z"/>
		</g>
		<path class="st5" d="M126.3,360.6c5.4,3.1,5.4,8.2,0,11.2c-5.4,3.1-14.1,3.1-19.5,0c-5.4-3.1-5.4-8.2,0-11.2
			c4.2-2.5,10.6-3,15.8-1.5l0,0.7c0,0,2.3,0.8,3.3,1.3C126,361.1,126.2,360.5,126.3,360.6z"/>
		<rect x="102.8" y="366.2" class="st6" width="27.5" height="4.3"/>
		<path class="st7" d="M110.5,374l15.4-13c-1-0.6-2.2-1-3.4-1.3l-15.4,13C108.2,373.3,109.3,373.7,110.5,374z"/>
		<g>
			<path class="st6" d="M126.3,364.9c-1-0.6-2.1-1-3.2-1.4l-12.5,9.8v0.7c-1.2-0.3-2.3-0.8-3.4-1.3l11.9-10c-4.3-0.5-9,0.3-12.3,2.2
				c-5.4,3.1-5.4,8.2,0,11.2c5.4,3.1,14.1,3.1,19.5,0C131.6,373,131.6,368,126.3,364.9z"/>
		</g>
		<g>
			<path class="st8" d="M125.9,360.4"/>
			<path class="st8" d="M110.5,373.3c5.3,1.7,11.3,1.1,15.8-1.5c5.4-3.1,5.4-8.2,0-11.2c-0.1-0.1-0.2-0.1-0.4-0.2L110.5,373.3z"/>
			<g>
				<path class="st8" d="M107.2,372l15.4-13c-5.1-1.4-11.5-0.9-15.8,1.5c-5.4,3.1-5.4,8.2,0,11.2L107.2,372z"/>
			</g>
		</g>
		<path class="st6" d="M107.2,372"/>
		<polygon class="st5" points="107.2,372 107.2,372.7 122.6,359.7 122.6,359 		"/>
		<g class="st17">
			<path class="st18" d="M128.6,377.8c-6.6,3.8-17.4,3.8-24.1,0c-6.6-3.8-6.6-10.1,0-13.9c6.6-3.8,17.4-3.8,24.1,0
				C135.2,367.8,135.2,374,128.6,377.8z"/>
			<polygon class="st18" points="133.2,368.9 99.8,369.2 101.6,363.7 131.4,363.6 			"/>
			<path class="st19" d="M127.4,371.8c-6,3.4-15.7,3.4-21.6,0c-6-3.4-6-9.1,0-12.5c6-3.4,15.7-3.4,21.6,0
				C133.3,362.8,133.3,368.4,127.4,371.8z"/>
		</g>
		<path class="st5" d="M170.4,421.2c5.4,3.1,5.4,8.2,0,11.2c-5.4,3.1-14.1,3.1-19.5,0c-5.4-3.1-5.4-8.2,0-11.2
			c4.2-2.5,10.6-3,15.8-1.5l0,0.7c0,0,2.3,0.8,3.3,1.3C170.1,421.7,170.3,421.1,170.4,421.2z"/>
		<rect x="146.9" y="426.8" class="st6" width="27.5" height="4.3"/>
		<path class="st7" d="M154.7,434.7l15.4-13c-1-0.6-2.2-1-3.4-1.3l-15.4,13C152.3,433.9,153.5,434.4,154.7,434.7z"/>
		<g>
			<path class="st6" d="M170.4,425.5c-1-0.6-2.1-1-3.2-1.4l-12.5,9.8v0.7c-1.2-0.3-2.3-0.8-3.4-1.3l11.9-10c-4.3-0.5-9,0.3-12.3,2.2
				c-5.4,3.1-5.4,8.2,0,11.2c5.4,3.1,14.1,3.1,19.5,0C175.8,433.7,175.8,428.6,170.4,425.5z"/>
		</g>
		<g>
			<path class="st8" d="M170,421"/>
			<path class="st8" d="M154.7,434c5.3,1.7,11.3,1.1,15.8-1.5c5.4-3.1,5.4-8.2,0-11.2c-0.1-0.1-0.2-0.1-0.4-0.2L154.7,434z"/>
			<g>
				<path class="st8" d="M151.3,432.6l15.4-13c-5.1-1.4-11.5-0.9-15.8,1.5c-5.4,3.1-5.4,8.2,0,11.2L151.3,432.6z"/>
			</g>
		</g>
		<polygon class="st5" points="151.3,432.6 151.3,433.4 166.7,420.4 166.7,419.7 		"/>
		<g class="st17">
			<path class="st18" d="M172.7,438.5c-6.6,3.8-17.4,3.8-24.1,0s-6.6-10.1,0-13.9c6.6-3.8,17.4-3.8,24.1,0
				C179.3,428.4,179.3,434.7,172.7,438.5z"/>
			<polygon class="st18" points="177.3,429.6 144,429.8 145.8,424.3 175.6,424.2 			"/>
			<path class="st19" d="M171.5,432.5c-6,3.4-15.7,3.4-21.6,0c-6-3.4-6-9.1,0-12.5s15.7-3.4,21.6,0
				C177.5,423.4,177.5,429.1,171.5,432.5z"/>
		</g>
		<path class="st5" d="M201.7,403.1c5.4,3.1,5.4,8.2,0,11.2c-5.4,3.1-14.1,3.1-19.5,0c-5.4-3.1-5.4-8.2,0-11.2
			c4.2-2.5,10.6-3,15.8-1.5l0,0.7c0,0,2.3,0.8,3.3,1.3C201.4,403.6,201.6,403,201.7,403.1z"/>
		<rect x="178.2" y="411.1" class="st6" width="27.5" height="4.3"/>
		<path class="st7" d="M186,416.5l15.4-13c-1-0.6-2.2-1-3.4-1.3l-15.4,13C183.6,415.8,184.8,416.2,186,416.5z"/>
		<g>
			<path class="st6" d="M201.7,407.4c-1-0.6-2.1-1-3.2-1.4l-12.5,9.8v0.7c-1.2-0.3-2.3-0.8-3.4-1.3l11.9-10c-4.3-0.5-9,0.3-12.3,2.2
				c-5.4,3.1-5.4,8.2,0,11.2c5.4,3.1,14.1,3.1,19.5,0C207.1,415.5,207.1,410.5,201.7,407.4z"/>
		</g>
		<g>
			<path class="st8" d="M201.3,402.9"/>
			<path class="st8" d="M186,415.8c5.3,1.7,11.3,1.1,15.8-1.5c5.4-3.1,5.4-8.2,0-11.2c-0.1-0.1-0.2-0.1-0.4-0.2L186,415.8z"/>
			<g>
				<path class="st8" d="M182.6,414.5l15.4-13c-5.1-1.4-11.5-0.9-15.8,1.5c-5.4,3.1-5.4,8.2,0,11.2L182.6,414.5z"/>
			</g>
		</g>
		<path class="st6" d="M182.6,414.5"/>
		<polygon class="st5" points="182.6,414.5 182.6,415.2 198,402.3 198,401.5 		"/>
		<g class="st17">
			<path class="st18" d="M204,420.3c-6.6,3.8-17.4,3.8-24.1,0c-6.6-3.8-6.6-10.1,0-13.9c6.6-3.8,17.4-3.8,24.1,0
				C210.6,410.3,210.6,416.5,204,420.3z"/>
			<polygon class="st18" points="208.6,411.4 175.3,411.7 177.1,406.2 206.9,406.1 			"/>
			<path class="st19" d="M202.8,414.4c-6,3.4-15.7,3.4-21.6,0c-6-3.4-6-9.1,0-12.5s15.7-3.4,21.6,0S208.8,410.9,202.8,414.4z"/>
		</g>
		<path class="st5" d="M131.5,399.7c5.4,3.1,5.4,8.2,0,11.2c-5.4,3.1-14.1,3.1-19.5,0c-5.4-3.1-5.4-8.2,0-11.2
			c4.2-2.5,10.6-3,15.8-1.5l0,0.7c0,0,2.3,0.8,3.3,1.3C131.1,400.3,131.3,399.7,131.5,399.7z"/>
		<rect x="108" y="405.4" class="st6" width="27.5" height="4.3"/>
		<path class="st7" d="M115.7,413.2l15.4-13c-1-0.6-2.2-1-3.4-1.3l-15.4,13C113.4,412.4,114.5,412.9,115.7,413.2z"/>
		<g>
			<path class="st6" d="M131.5,404c-1-0.6-2.1-1-3.2-1.4l-12.5,9.8v0.7c-1.2-0.3-2.3-0.8-3.4-1.3l11.9-10c-4.3-0.5-9,0.3-12.3,2.2
				c-5.4,3.1-5.4,8.2,0,11.2c5.4,3.1,14.1,3.1,19.5,0C136.8,412.2,136.8,407.1,131.5,404z"/>
		</g>
		<g>
			<path class="st8" d="M131.1,399.5"/>
			<path class="st8" d="M115.7,412.5c5.3,1.7,11.3,1.1,15.8-1.5c5.4-3.1,5.4-8.2,0-11.2c-0.1-0.1-0.2-0.1-0.4-0.2L115.7,412.5z"/>
			<g>
				<path class="st8" d="M112.3,411.2l15.4-13c-5.1-1.4-11.5-0.9-15.8,1.5c-5.4,3.1-5.4,8.2,0,11.2L112.3,411.2z"/>
			</g>
		</g>
		<path class="st6" d="M112.3,411.2"/>
		<polygon class="st5" points="112.3,411.2 112.3,411.9 127.7,398.9 127.7,398.2 		"/>
		<g class="st17">
			<path class="st18" d="M133.7,417c-6.6,3.8-17.4,3.8-24.1,0c-6.6-3.8-6.6-10.1,0-13.9c6.6-3.8,17.4-3.8,24.1,0
				C140.4,406.9,140.4,413.2,133.7,417z"/>
			<polygon class="st18" points="138.4,408.1 105,408.3 106.8,402.9 136.6,402.7 			"/>
			<path class="st19" d="M132.5,411c-6,3.4-15.7,3.4-21.6,0c-6-3.4-6-9.1,0-12.5c6-3.4,15.7-3.4,21.6,0S138.5,407.6,132.5,411z"/>
		</g>
		<path class="st5" d="M162.8,381.6c5.4,3.1,5.4,8.2,0,11.2c-5.4,3.1-14.1,3.1-19.5,0c-5.4-3.1-5.4-8.2,0-11.2
			c4.2-2.5,10.6-3,15.8-1.5l0,0.7c0,0,2.3,0.8,3.3,1.3C162.5,382.1,162.6,381.5,162.8,381.6z"/>
		<rect x="139.3" y="387.2" class="st6" width="27.5" height="4.3"/>
		<path class="st7" d="M147,395.1l15.4-13c-1-0.6-2.2-1-3.4-1.3l-15.4,13C144.7,394.3,145.8,394.7,147,395.1z"/>
		<g>
			<path class="st6" d="M162.8,385.9c-1-0.6-2.1-1-3.2-1.4l-12.5,9.8v0.7c-1.2-0.3-2.3-0.8-3.4-1.3l11.9-10c-4.3-0.5-9,0.3-12.3,2.2
				c-5.4,3.1-5.4,8.2,0,11.2c5.4,3.1,14.1,3.1,19.5,0C168.1,394.1,168.1,389,162.8,385.9z"/>
		</g>
		<g>
			<path class="st8" d="M162.4,381.4"/>
			<path class="st8" d="M147,394.4c5.3,1.7,11.3,1.1,15.8-1.5c5.4-3.1,5.4-8.2,0-11.2c-0.1-0.1-0.2-0.1-0.4-0.2L147,394.4z"/>
			<g>
				<path class="st8" d="M143.6,393l15.4-13c-5.1-1.4-11.5-0.9-15.8,1.5c-5.4,3.1-5.4,8.2,0,11.2L143.6,393z"/>
			</g>
		</g>
		<path class="st6" d="M143.6,393"/>
		<polygon class="st5" points="143.6,393 143.6,393.7 159,380.8 159,380.1 		"/>
		<g class="st17">
			<path class="st18" d="M165,398.9c-6.6,3.8-17.4,3.8-24.1,0s-6.6-10.1,0-13.9c6.6-3.8,17.4-3.8,24.1,0
				C171.7,388.8,171.7,395,165,398.9z"/>
			<polygon class="st18" points="169.7,389.9 136.3,390.2 138.1,384.7 167.9,384.6 			"/>
			<path class="st19" d="M163.8,392.9c-6,3.4-15.7,3.4-21.6,0c-6-3.4-6-9.1,0-12.5s15.7-3.4,21.6,0S169.8,389.4,163.8,392.9z"/>
		</g>
	</g>
	<g>
		<path class="st20" d="M338.4,224.3c-19.9,11.5-36.1,2.1-36.1-20.9s16.3-51.1,36.1-62.6s36.1-2.1,36.1,20.9
			C374.5,184.7,358.2,212.8,338.4,224.3z"/>
		<rect x="328.8" y="159" transform="matrix(-0.5 0.866 -0.866 -0.5 748.619 -19.1523)" class="st20" width="102" height="95"/>
		<path class="st21" d="M338.5,224.4c-19.9,11.5-36.1,2.1-36.1-20.9s16.3-51.1,36.1-62.6c19.9-11.5,36.1-2.1,36.1,20.9
			C374.6,184.7,358.3,212.9,338.5,224.4z"/>
		<g>
			<path class="st0" d="M420.5,274.5c-21.2,12.2-38.5,2.2-38.5-22.2s17.3-54.5,38.5-66.7s38.5-2.2,38.5,22.2
				C459,232.2,441.7,262.2,420.5,274.5z"/>
			
				<rect x="374" y="225.4" transform="matrix(-0.5 0.866 -0.866 -0.5 845.8623 -19.1523)" class="st0" width="108.9" height="18.5"/>
			<path class="st22" d="M436.5,283.7c-21.2,12.2-38.5,2.2-38.5-22.2c0-24.5,17.3-54.5,38.5-66.7c21.2-12.2,38.5-2.2,38.5,22.2
				S457.7,271.5,436.5,283.7z"/>
		</g>
		<g>
			<path class="st2" d="M395.5,179.4l-27.4-15.8c-16.3,11.8-29.3,34.3-31.3,54.3l27.4,15.8C366.2,213.7,379.2,191.2,395.5,179.4z"/>
		</g>
	</g>
	<g>
		<path class="st20" d="M321,265.6c19.9,11.5,19.9,30.2,0,41.7c-19.9,11.5-52.4,11.5-72.2,0c-19.9-11.5-19.9-30.2,0-41.7
			S301.2,254.1,321,265.6z"/>
		<rect x="233.9" y="191.1" class="st20" width="102" height="95"/>
		<path class="st21" d="M321,265.5c19.9,11.5,19.9,30.2,0,41.7c-19.9,11.5-52.4,11.5-72.2,0s-19.9-30.2,0-41.7
			C268.6,254,301.2,254,321,265.5z"/>
		<g>
			<path class="st0" d="M323.4,169.4c21.2,12.2,21.2,32.3,0,44.5c-21.2,12.2-55.9,12.2-77.1,0s-21.2-32.3,0-44.5
				S302.2,157.2,323.4,169.4z"/>
			<rect x="230.5" y="173.2" class="st0" width="108.9" height="18.5"/>
			<path class="st22" d="M323.4,151c21.2,12.2,21.2,32.3,0,44.5c-21.2,12.2-55.9,12.2-77.1,0s-21.2-32.3,0-44.5
				S302.2,138.7,323.4,151z"/>
		</g>
		<g>
			<path class="st2" d="M253.6,238.6v31.6c18.3,8.2,44.3,8.2,62.7,0v-31.6C297.9,246.8,271.9,246.8,253.6,238.6z"/>
		</g>
	</g>
</g>
<g>
</g>
<g>
</g>
<g>
</g>
<g>
</g>
<g>
</g>
<g>
</g>
<g>
</g>
<g>
</g>
<g>
</g>
<g>
</g>
<g>
</g>
</svg>
