<?xml version="1.0" encoding="utf-8"?>
<!-- Generator: Adobe Illustrator 19.2.1, SVG Export Plug-In . SVG Version: 6.00 Build 0)  -->
<svg version="1.0" id="Слой_1" xmlns="http://www.w3.org/2000/svg" xmlns:xlink="http://www.w3.org/1999/xlink" x="0px" y="0px"
	 viewBox="0 0 474.7 474.3" style="enable-background:new 0 0 474.7 474.3;" xml:space="preserve">
<style type="text/css">
	.st0{fill:#29ABE2;}
	.st1{enable-background:new    ;}
	.st2{fill:#F15A24;}
	.st3{fill:#2891AD;}
	.st4{fill:#C44923;}
	.st5{fill:#ED963E;}
	.st6{fill:#D681EA;}
	.st7{fill:#C52CE5;}
	.st8{fill:#E6E6E6;}
	.st9{fill:#F2F2F2;}
	.st10{fill:#CCCCCC;}
</style>
<g>
	<g>
		<path class="st0" d="M214.1,85.6c1.5,0.8,2.9,2.2,4.1,3.8l-0.6,1.3l0,0.1l0,0.1c-0.2,0.8-0.3,1.6-0.4,2.5c-2.3,0-4,1.3-4.6,3.7
			c-0.3,0.5-0.5,1.1-0.6,1.7c-0.3-0.2-0.6-0.3-0.9-0.4c-1.4-0.7-2.4-0.8-3.8-1l-0.1,0l-0.1,0c-0.4,0-0.7,0-1,0.1
			c-1.4-1.4-2.8-2.5-4.3-3.4l-0.1,0l-0.1,0c-1.7-0.8-3-1.4-4.4-1.6c-0.4-1.3-0.6-2.5-0.6-3.7c0-2.3,0.8-4,2.2-4.8
			c1.4-0.8,3.3-0.6,5.3,0.5c1.1,0.6,2.1,1.5,3.1,2.5c0.9-2,2.7-2.9,5-2.3C212.7,84.9,213.4,85.2,214.1,85.6z"/>
	</g>
	<g class="st1">
		<g>
			<path class="st0" d="M236.1,140.7c0.3,2-0.3,3.8-1,5.2c-0.8,1.3-1.8,2.2-3.2,2.5c-0.7,0-1.5,0-2.2,0.1c-1.1-0.2-2.2-0.6-3.4-1.3
				c-0.6-0.3-1.2-0.8-1.8-1.2c-1.5-1.3-2.3-2.1-3.2-3.3c-0.6-0.7-1.1-1.4-1.6-2.1c-0.1-0.1-0.2-0.3-0.3-0.4
				c-0.7,0.5-1.6,0.8-2.5,0.8c-1.2,0.5-2.7,0.2-4.3-0.7c-1-0.6-2-1.4-2.9-2.4c-2.2-2.3-3.7-5.3-4.3-8.2c-0.1-0.1-0.3-0.1-0.4-0.2
				c-0.2-0.1-0.4-0.2-0.6-0.3c-1.8-1.1-3.6-2.8-5-5c-1-1.6-1.8-3.3-2.3-5.1c-0.1-0.9-0.3-1.7-0.4-2.6c0-0.1,0-0.2,0-0.3
				c-0.1-1.7,0.1-3.1,0.7-4.2c0.4-0.4,0.7-0.9,1.1-1.3c0.7-0.6,1.6-0.8,2.6-0.8c0.5,2.1,1.2,4.3,2.4,6.4c0.1,0.1,0.1,0.2,0.2,0.3
				c0.2,0.3,0.4,0.6,0.6,1c1,1.6,1.4,2.1,1.5,2.3c0.8,1,1.6,1.9,2.3,2.6c0.1,0.1,0.3,0.3,0.4,0.4l0.2,0.2l0.2,0.2l0.5,0.4l2,1.6
				l0.1,0.1l0.1,0.1c0.2,0.2,0.5,0.3,0.7,0.5c1.8,1,3.5,1.6,5.1,1.6c0.6,0.9,1.2,1.7,1.8,2.5c1.3,1.7,2.9,3.1,4.4,4
				c0.9,0.5,1.8,0.9,2.6,1c1.5,0.2,2.6,0,3.5-0.5c1.2,2.2,2.9,4.1,4.8,5.2c0.5,0.3,1,0.5,1.5,0.6
				C236.1,140.6,236.1,140.7,236.1,140.7z"/>
		</g>
		<g>
			<path class="st0" d="M230.8,116.3c1.8,1.1,3.2,2.7,4.5,4.9c0.7,1.1,1.3,2.1,1.8,3.4l0.7,1.9c0,0-0.1-0.2-0.3-0.7
				c0.1,0.4,0.3,0.7,0.4,1.1c0.5,1.5,1,2.9,1.1,4.3c0.2,1.3,0.3,2.6,0.3,3.9c0,3-2.2,4.1-4.7,2.7c-2.2-1.3-3.9-3.9-4.5-6.5
				c-1.2,1.2-2.5,1.8-4.4,1.5c-0.6-0.1-1.3-0.4-2-0.8c-1.2-0.7-2.5-1.8-3.5-3.1c-2.6-3.4-4.4-7.6-4.8-11.4c-0.2-1.9-0.3-4.3,0.2-5.7
				c0.2-0.5,0.5-1.7,1.2-2.4c0.5-0.4,1.4-0.3,2.3,0.2c0.4,0.2,0.7,0.5,1,0.8c1.4,1.5,1.9,3.2,2.4,5c0.1,0.4,0.3,0.9,0.4,1.3l0,0.1
				c0.2,0.6,0.3,1.2,0.5,1.8c0.6-1,1.3-2,2.2-2.5c0.6-0.3,1.2-0.6,1.9-0.7c0.2,0,0.6,0,1,0c0.4-0.1,0.8,0,1.3,0.2
				C230,115.9,230.4,116.1,230.8,116.3z"/>
		</g>
		<g>
			<path class="st0" d="M253.3,139.9c0.8,0.8,1.6,1.8,2.2,2.9c1.4,2.3,2.2,4.8,2.2,7s-0.7,3.9-2,4.7c-1.3,0.8-3.1,0.7-5-0.3
				c-0.1,0-0.1-0.1-0.2-0.1c-1.8-1-3.6-2.9-4.9-5.1c-0.5-0.9-0.9-1.7-1.3-2.6c-1.4,0.4-3.1,0.2-5-0.8c-0.1,0-0.2-0.1-0.3-0.1
				c-0.5-0.3-1-0.6-1.4-1c0.2-1,0.2-2.1,0.1-3.2c0-0.2,0-0.4-0.1-0.6c0.5,0,1-0.2,1.5-0.4c1.2-0.7,1.9-2.2,1.9-4.2
				c0-0.1,0-0.2,0-0.3c1.3,1.5,2.8,2.8,4.4,3.7c2.8,1.6,5.4,1.8,7.4,0.7C253,140.1,253.2,140,253.3,139.9z"/>
		</g>
		<g>
			<path class="st0" d="M231.3,101.9c0.2,0.1,0.3,0.2,0.5,0.3c1.4,0.9,2.6,2.1,3.8,3.6c0.5,0.8,1,1.7,1.6,2.5
				c0.1,0.1,0.1,0.2,0.2,0.3c0.1,0.3,0.3,0.5,0.4,0.8c-1.1-1.2-2.3-2.2-3.5-2.9c-2.3-1.4-4.7-1.6-6.3-0.6c-1.7,0.9-2.6,3-2.6,5.7
				c0,0.6,0,1.2,0.1,1.9c-0.4,0.1-0.8,0.3-1.1,0.5c-0.2,0.1-0.4,0.2-0.5,0.3c-0.5-1.6-1.3-3.6-3-5.4c-0.5-0.6-1.1-1-1.7-1.4
				c-1.5-0.9-2.9-0.9-3.7-0.2c-0.7,0.7-1.1,1.7-1.3,2.4c0,0.1-0.1,0.2-0.1,0.3c-0.5,1.4-0.6,3.6-0.3,6.6c0.3,2.7,1.2,5.7,2.6,8.5
				c-1.2-0.1-2.5-0.6-3.8-1.3c-0.2-0.1-0.4-0.2-0.6-0.4c-0.8-0.7-1.7-1.3-2.5-2c-0.8-0.9-1.7-1.8-2.4-2.8c-0.6-0.9-2.2-3.4-2.1-3.4
				c-1.2-2-1.8-4.5-2.2-6.5c-0.3-2.1-0.2-3.9,0.3-5.5c0.4-0.7,0.7-1.3,1.1-2c1-1.1,2.3-1.7,3.9-1.7c1.5,0.2,2.2,0.3,3.4,0.9
				c0.4,0.2,0.8,0.4,1.3,0.6c0.2,0.1,0.4,0.2,0.6,0.4c0.1,0.1,0.2,0.2,0.3,0.2c0.1-1.1,0.4-2.2,0.9-3c0.6-2.5,2.6-3.6,5.2-2.8
				c0.6,0.2,1.2,0.4,1.8,0.8c1.7,1,3.3,2.6,4.6,4.5c0.1-0.1,0.2-0.1,0.3-0.1C227.6,100.6,229.4,100.8,231.3,101.9z"/>
		</g>
		<g>
			<path class="st0" d="M234.2,108.6c1.9,1.1,3.7,3,5,5.3c0.5,0.9,0.9,1.7,1.2,2.6c1.4-0.4,3.2-0.1,5.1,1c4.7,2.7,8.6,9.5,8.6,14.9
				c0,5.4-4,7.7-8.7,5c-1.7-1-3.3-2.5-4.6-4.2c0-0.4-0.1-0.8-0.1-1.2c-0.2-1.5-0.6-2.9-1.1-4.3c-0.1-0.2-0.1-0.4-0.2-0.6
				c-0.1-0.3-0.2-0.8-0.5-1.5c-0.1-0.3-0.2-0.7-0.3-0.9c-0.6-1.8-1.4-3.2-2.1-4.2c-1.6-2.9-3.5-4.9-5.7-6.1
				c-0.4-0.2-0.9-0.5-1.3-0.7c-0.7-0.3-1.3-0.4-1.9-0.4c-0.1,0-0.3,0-0.5,0c0-0.2,0-0.4,0-0.6c0-2.2,0.8-3.8,2.1-4.6
				C230.5,107.3,232.3,107.5,234.2,108.6z"/>
		</g>
		<g>
			<path class="st0" d="M229.8,89.4c1.9,1.1,3.7,2.7,5.3,4.7l2.1,3.1c1.1,1.9,1.9,3.8,2.4,5.8c-0.7,0.4-1.2,1-1.7,1.7
				c-0.2,0.4-0.4,0.9-0.6,1.4l-0.7-1.1l-0.1-0.2l-0.1-0.1c-1.4-1.9-2.9-3.4-4.6-4.4c-0.2-0.1-0.4-0.3-0.6-0.4c-2-1.2-4-1.6-5.6-1.2
				c-1.4-1.7-2.9-3-4.5-4c-0.7-0.4-1.5-0.7-2.2-1l-0.1,0c0.1-0.4,0.1-0.8,0.3-1.2c0.4-0.8,0.7-1.5,1.1-2.3c0.8-1.3,2.5-2.2,4-2.3
				C226.3,87.7,227.5,88.3,229.8,89.4z"/>
		</g>
		<g>
			<path class="st0" d="M263.9,137.1c1.2,2,2.1,4.1,2.4,6.2c0.6,4.3,0.2,7.7-2.3,9.1c-0.8,0.5-1.8,0.7-2.9,0.6c0.6,1.5,1,3.1,1,4.5
				c0,4.2-3.1,6-6.8,3.9c-1.9-1.1-3.7-3.1-4.9-5.3c0.1,0.1,0.2,0.1,0.3,0.2c0.1,0.1,0.2,0.1,0.3,0.1c2.4,1.3,4.6,1.4,6.2,0.4
				c1.6-1,2.5-3.2,2.4-5.9c-0.1-2.7-1.1-5.9-2.8-8.8c-0.7-1.2-1.5-2.3-2.4-3.2c0.5-0.7,0.9-1.6,1.2-2.6c0.3,0.2,0.6,0.4,0.9,0.6
				c1.1,0.6,2.1,1,3.1,1.2C261.3,138.3,262.8,138,263.9,137.1z"/>
		</g>
		<g>
			<path class="st0" d="M246.2,105.6c1.1,0.6,2.2,1.5,3.2,2.7c1.7,2,3.1,4.5,3.7,6.9c0.1,0.2,0.1,0.4,0.1,0.6c0.3,0,0.6,0,0.9,0.1
				c0.8,0.1,1.7,0.5,2.5,1c1.2,0.7,2.3,1.6,3.4,2.9c1.8,2.1,3.3,4.8,3.9,7.4c0.7,2.6,0.5,5-0.4,6.6c-0.9,1.6-2.5,2.3-4.5,2
				c-0.8-0.1-1.7-0.5-2.5-1c-0.2-0.1-0.4-0.3-0.6-0.4c0-0.3,0-0.5,0-0.8c0-3.2-1.1-6.8-3.1-10.3c-2-3.4-4.6-6.2-7.4-7.8
				c-1.6-0.9-3.1-1.4-4.6-1.4c-0.1-0.2-0.2-0.3-0.3-0.5c-0.3-1.6-0.9-3.3-1.7-4.9c0.1-0.8,0.3-1.5,0.7-2.1c0.8-1.5,2.4-2.2,4.2-1.8
				C244.6,104.8,245.4,105.2,246.2,105.6z"/>
		</g>
	</g>
	<g>
		<path class="st0" d="M244,149c0.2,0.3,0.3,0.6,0.5,0.9c1.5,2.5,3.5,4.6,5.5,6c-0.4,0.7-1,1.3-1.7,1.7c-1.7,1-4,0.7-6.3-0.6
			c-2.4-1.4-4.7-3.8-6.3-6.7c-0.1-0.2-0.3-0.5-0.4-0.7c0.5-0.5,1-1,1.4-1.7l0,0l0-0.1c0.2-0.4,0.4-0.9,0.5-1.4
			c0.6,0.5,1.2,0.9,1.9,1.3c0.1,0.1,0.2,0.1,0.3,0.2C241.1,148.7,242.6,149.1,244,149z"/>
	</g>
	<g>
		<path class="st0" d="M201.6,96.3c0.9,0.5,1.7,1.1,2.5,1.8c-0.7,0.3-1.2,0.8-1.8,1.4l-0.1,0.1l-0.1,0.1l-0.3,0.5l-0.8,1.5l-0.1,0.1
			l0,0.1c-0.6,1.7-0.7,3.6-0.5,5.9c-1.4-0.1-2.6,0.2-3.5,1l-0.1,0.1l-0.1,0.1l-0.3,0.4l-0.7,0.9l-0.1,0.1l-0.1,0.1
			c-0.6,1.1-0.9,2.5-0.9,4.1c-1.8-2.6-3.1-5.7-3.7-8.5c-0.5-2.4-0.5-4.6,0-6.4c0.4-0.8,0.7-1.5,1.1-2.3c0.8-1.3,2.5-2.2,4-2.3
			C198.1,94.6,199.3,95.2,201.6,96.3z"/>
	</g>
</g>
<g>
	<g class="st1">
		<g>
			<path class="st2" d="M326.5,159.7c0.4,0.2,0.8,0.5,1.2,0.7c-2.9,1.7-7,6-7.1,17c0,1.7,0,3.5,0.1,5.3c-2.6-7.1-6-18.5-3.9-22
				c1.2-2.1,3.3-3,5.9-2.5C323.8,158.4,325.1,158.9,326.5,159.7z"/>
		</g>
		<g>
			<path class="st2" d="M338,145.4c0.8,0.5,1.9,1.3,3.2,2.7c-8.6-0.3-10.9,5.7-11.2,11.3c-0.1,0-0.1,0-0.2,0c-0.3-0.3-0.7-0.5-1-0.8
				c-0.9-3.6-1.6-7.1-2-9.9c0.6-1.4,1.4-2.6,2.6-3.5c0.2-0.2,5.8-1.3,6.3-1.1c0.1,0.1,0.3,0.3,0.5,0.4c0.2,0.1,0.4,0.2,0.5,0.2
				C336.7,144.9,337.2,145,338,145.4z"/>
		</g>
		<g>
			<path class="st2" d="M355,178.4c5.5,3.2,9.8,7.3,12.8,12.4c6.7,11.2,6.9,24,6.5,38.6c-0.2,8.2-3.1,12.6-8.5,9.5
				c-0.9,2.4-1.8,2.7-2.7,2.1c-1.3-0.7-2.7-3.1-4.2-3.9c-5.7-11-3.2-24.5-1.5-34.3c0.2-1.1,0.4-2.2,0.5-3.1c0.1-0.9,0.3-1.6,0.3-2.4
				c1.3,3.2,3.3,6.7,6.4,8.9c3.9,2.8,4,10.5,4,10.6c0,0.7,0.5,1.5,1.1,1.9c0.1,0.1,0.2,0.1,0.3,0.1c0.4,0.1,0.8-0.2,0.7-0.8
				c0-0.3-0.1-6.1-2.8-10.6c1.3,0,2.5-0.7,3.3-2c0.3-0.5,0.1-1.3-0.5-2c-0.2-0.2-0.3-0.3-0.5-0.4c-0.4-0.2-0.8-0.2-1,0.1
				c-0.9,1.6-2.4,1.9-4.1,0.9c-0.4-0.3-0.9-0.6-1.3-1c-4-3.8-5.5-11.1-5.7-12c-0.6-5.2-2.7-10.2-4.2-13.2
				C354.4,178.1,354.7,178.2,355,178.4z"/>
		</g>
		<g>
			<path class="st2" d="M349.3,152.4l3,6.7c-2.5-0.2-7.7,0.1-8,4.7c-0.4,5.3,4.2,10.4,7.1,12.7c1,1.8,5.7,10.7,5,18.3
				c-0.1,0.9-0.3,2-0.4,3.2c-1.1,1.4-3.1,1.8-5.1,2.1c-0.4,0.1-0.9,0.1-1.3,0.2c-6,0.1-9.1-1-10.7-1.9c-0.9-0.5-1.3-1-1.5-1.2
				c-0.2-0.3-0.4-0.5-0.6-0.6c-0.3-0.2-0.7-0.2-0.9,0c-0.4,0.4-0.3,1.2,0.2,1.9c0.4,0.5,1,1.5,2.6,2.4c0.9,0.5,2.2,1.1,3.9,1.5
				c-2.3,0.5-4.5,0.6-6.6,0.2c-0.6-0.1-0.9,0.4-0.7,1.2c0.2,0.6,0.6,1.2,1,1.5c0.1,0.1,0.2,0.1,0.3,0.1c2.5,0.5,5,0.3,7.7-0.3
				c-0.5,2.9,0.5,6.3,0.5,6.5c0.2,0.6,0.6,1.1,1,1.3c0.1,0.1,0.2,0.1,0.3,0.1c0.6,0.1,0.9-0.5,0.7-1.3c0-0.1-1.5-5.1,0.7-7.2
				c0.2-0.2,0.5-0.4,0.7-0.6c0.8-0.3,1.6-0.5,2.5-0.8c0.4-0.1,0.9-0.2,1.3-0.2c1.1-0.2,2.2-0.4,3.2-0.7c-1.6,9.5-3.8,22.9,0.9,34.4
				c-3.1-2.2-6.5-5-10.3-8.6c-23.4-22.5-23.2-40.9-23.1-48.9c0.2-15.2,8.6-16.5,8.9-16.6c0.3,0,0.5-0.3,0.5-0.7
				c0.2-10.4,7.5-11.2,13.5-10C346.8,151.6,348,152,349.3,152.4z"/>
		</g>
		<g>
			<path class="st2" d="M356.5,158.8l1.3,2.5c-1.4,1.6-1.3,5.4-1.3,5.9c0,0.6,0.3,1.2,0.8,1.6c0.1,0.1,0.2,0.2,0.3,0.2
				c0.4,0.2,0.7,0.2,0.9,0c0.6-0.7,2.5-0.9,3.9-1l1.3,2.6c-2.6,1-2.8,5.8-2.7,9.6c-1.9-1.6-4-3.1-6.2-4.3c-0.9-0.5-1.9-1.1-2.9-1.5
				c-0.8-0.7-5.9-4.8-5.5-9.1c0.3-3.7,5.8-3.6,7.9-3.2c0.3,0.1,0.6-0.1,0.7-0.4c0.1-0.3,0.1-0.7-0.1-1.2l-0.6-1.2L356.5,158.8z"/>
		</g>
	</g>
</g>
<g>
	<path class="st0" d="M228.8,56.7c30,17.3,54.2,59.4,54.1,93.8c-0.1,34.4-24.5,48.3-54.5,31.1c-29.9-17.3-54.2-59.4-54.1-93.8
		C174.4,53.4,198.8,39.4,228.8,56.7z M228.4,177.5c28,16.2,50.9,3.1,51-29c0.1-32.2-22.6-71.6-50.7-87.7c-28-16.2-50.9-3.1-51,29.1
		C177.7,122,200.4,161.4,228.4,177.5"/>
</g>
<g>
	<path class="st2" d="M345.7,127.3c30,17.3,54.2,59.4,54.1,93.8c-0.1,34.4-24.5,48.3-54.5,31.1c-29.9-17.3-54.2-59.4-54.1-93.8
		C291.3,123.9,315.8,110,345.7,127.3z M345.4,248.1c28,16.2,50.9,3.1,51-29c0.1-32.2-22.6-71.6-50.7-87.7c-28-16.2-50.9-3.1-51,29.1
		C294.7,192.5,317.4,231.9,345.4,248.1"/>
</g>
<polygon class="st0" points="227.8,280.2 222.8,277.3 222.8,177.2 227.8,180.1 "/>
<polygon class="st3" points="150.8,318.8 222.8,277.3 227.8,280.2 155.7,321.7 "/>
<g>
	<path class="st3" d="M154.3,319.4c17.1,9.9,17.2,25.9,0.2,35.7c-17,9.9-44.6,9.9-61.7,0s-17.2-25.9-0.2-35.7
		C109.5,309.6,137.2,309.6,154.3,319.4z M96.2,353.2c15.1,8.7,39.7,8.7,54.7,0c15-8.7,15-23-0.2-31.7c-15.1-8.7-39.7-8.7-54.7,0
		C81,330.2,81.1,344.4,96.2,353.2"/>
</g>
<polygon class="st2" points="347.6,352.4 342.7,349.6 342.7,249.5 347.6,252.3 "/>
<polygon class="st4" points="270.6,391.1 342.7,349.6 347.6,352.4 275.6,393.9 "/>
<g>
	<path class="st4" d="M274.1,391.7c17.1,9.9,17.2,25.9,0.2,35.7c-17,9.9-44.6,9.9-61.7,0c-17.1-9.9-17.2-25.9-0.2-35.7
		C229.4,381.8,257.1,381.8,274.1,391.7z M216.1,425.4c15.1,8.7,39.7,8.7,54.7,0c15-8.7,15-23-0.2-31.7c-15.1-8.7-39.7-8.7-54.7,0
		C200.9,402.4,201,416.7,216.1,425.4"/>
</g>
<g>
	<path class="st5" d="M148.1,322.5c13.5,7.8,13.5,20.6,0,28.4c-13.5,7.8-35.6,7.8-49.2,0c-13.5-7.8-13.5-20.6,0-28.4
		C112.4,314.6,134.6,314.6,148.1,322.5z"/>
	<rect x="88.8" y="271.7" class="st6" width="69.5" height="64.6"/>
	<path class="st7" d="M148.1,322.4c13.5,7.8,13.5,20.6,0,28.4c-13.5,7.8-35.6,7.8-49.2,0c-13.5-7.8-13.5-20.6,0-28.4
		S134.6,314.6,148.1,322.4z"/>
	<g>
		<path class="st8" d="M149.7,257c14.4,8.3,14.4,22,0,30.3c-14.4,8.3-38,8.3-52.5,0c-14.4-8.3-14.4-22,0-30.3
			C111.7,248.7,135.3,248.7,149.7,257z"/>
		<rect x="86.4" y="259.6" class="st8" width="74.1" height="12.6"/>
		<path class="st9" d="M149.7,244.4c14.4,8.3,14.4,22,0,30.3c-14.4,8.3-38,8.3-52.5,0c-14.4-8.3-14.4-22,0-30.3
			S135.3,236.1,149.7,244.4z"/>
	</g>
	<g>
		<path class="st10" d="M102.2,304.1v21.5c12.5,5.6,30.2,5.6,42.7,0v-21.5C132.3,309.7,114.6,309.7,102.2,304.1z"/>
	</g>
</g>
<g>
	<path class="st5" d="M268,394.5c13.5,7.8,13.5,20.6,0,28.4c-13.5,7.8-35.6,7.8-49.2,0s-13.5-20.6,0-28.4S254.4,386.7,268,394.5z"/>
	<rect x="208.6" y="343.8" class="st6" width="69.5" height="64.6"/>
	<path class="st7" d="M268,394.4c13.5,7.8,13.5,20.6,0,28.4c-13.5,7.8-35.6,7.8-49.2,0c-13.5-7.8-13.5-20.6,0-28.4
		C232.3,386.6,254.4,386.6,268,394.4z"/>
	<g>
		<path class="st8" d="M269.6,329c14.4,8.3,14.4,22,0,30.3c-14.4,8.3-38,8.3-52.5,0c-14.4-8.3-14.4-22,0-30.3
			C231.6,320.7,255.2,320.7,269.6,329z"/>
		<rect x="206.3" y="331.6" class="st8" width="74.1" height="12.6"/>
		<path class="st9" d="M269.6,316.5c14.4,8.3,14.4,22,0,30.3c-14.4,8.3-38,8.3-52.5,0c-14.4-8.3-14.4-22,0-30.3
			C231.6,308.1,255.2,308.1,269.6,316.5z"/>
	</g>
	<g>
		<path class="st10" d="M222,376.1v21.5c12.5,5.6,30.2,5.6,42.7,0v-21.5C252.2,381.7,234.5,381.7,222,376.1z"/>
	</g>
</g>
<g>
</g>
<g>
</g>
<g>
</g>
<g>
</g>
<g>
</g>
<g>
</g>
<g>
</g>
<g>
</g>
<g>
</g>
<g>
</g>
<g>
</g>
</svg>
