<?xml version="1.0" encoding="utf-8"?>
<!-- Generator: Adobe Illustrator 19.2.1, SVG Export Plug-In . SVG Version: 6.00 Build 0)  -->
<svg version="1.0" id="Слой_1" xmlns="http://www.w3.org/2000/svg" xmlns:xlink="http://www.w3.org/1999/xlink" x="0px" y="0px"
	 viewBox="0 0 500 500" style="enable-background:new 0 0 500 500;" xml:space="preserve">
<style type="text/css">
	.st0{fill:#B926EF;stroke:#FFFFFF;stroke-width:6;stroke-miterlimit:10;}
	.st1{fill:#ED963E;}
	.st2{fill:#E8842A;}
	.st3{fill:#E6E6E6;}
	.st4{fill:#F2F2F2;}
	.st5{fill:#CCCCCC;}
	.st6{fill:#D681EA;}
	.st7{fill:#C52CE5;}
	.st8{fill:#24DD35;}
	.st9{fill:#1FAA25;}
	.st10{fill:none;stroke:#FFFFFF;stroke-width:2;stroke-miterlimit:10;}
</style>
<g>
	<path class="st0" d="M94.9,308.3"/>
	<g>
		<path class="st1" d="M415.3,142.4c18.8,10.9,18.8,28.7,0,39.6s-49.7,10.9-68.5,0c-18.8-10.9-18.8-28.7,0-39.6
			C365.6,131.6,396.4,131.6,415.3,142.4z"/>
		<rect x="332.6" y="71.8" class="st1" width="96.8" height="90.1"/>
		<path class="st2" d="M415.3,142.3c18.8,10.9,18.8,28.7,0,39.6c-18.8,10.9-49.7,10.9-68.5,0s-18.8-28.7,0-39.6
			C365.6,131.4,396.4,131.4,415.3,142.3z"/>
		<g>
			<path class="st3" d="M417.6,51.2c20.1,11.6,20.1,30.6,0,42.2c-20.1,11.6-53,11.6-73.1,0s-20.1-30.6,0-42.2S397.5,39.6,417.6,51.2
				z"/>
			<rect x="329.4" y="54.8" class="st3" width="103.2" height="17.5"/>
			<path class="st4" d="M417.6,33.7c20.1,11.6,20.1,30.6,0,42.2c-20.1,11.6-53,11.6-73.1,0s-20.1-30.6,0-42.2S397.5,22.1,417.6,33.7
				z"/>
		</g>
		<g>
			<path class="st5" d="M351.3,116.8v30c17.4,7.8,42.1,7.8,59.4,0v-30C393.3,124.6,368.7,124.6,351.3,116.8z"/>
		</g>
		<path class="st1" d="M308.2,142.4c18.8,10.9,18.8,28.7,0,39.6s-49.7,10.9-68.5,0s-18.8-28.7,0-39.6S289.4,131.6,308.2,142.4z"/>
		<rect x="225.6" y="71.8" class="st1" width="96.8" height="90.1"/>
		<path class="st2" d="M308.2,142.3c18.8,10.9,18.8,28.7,0,39.6c-18.8,10.9-49.7,10.9-68.5,0s-18.8-28.7,0-39.6
			C258.6,131.4,289.4,131.4,308.2,142.3z"/>
		<g>
			<path class="st3" d="M310.5,51.2c20.1,11.6,20.1,30.6,0,42.2c-20.1,11.6-53,11.6-73.1,0s-20.1-30.6,0-42.2S290.4,39.6,310.5,51.2
				z"/>
			<rect x="222.4" y="54.8" class="st3" width="103.2" height="17.5"/>
			<path class="st4" d="M310.5,33.7c20.1,11.6,20.1,30.6,0,42.2s-53,11.6-73.1,0s-20.1-30.6,0-42.2S290.4,22.1,310.5,33.7z"/>
		</g>
		<g>
			<path class="st5" d="M244.3,116.8v30c17.4,7.8,42.1,7.8,59.4,0v-30C286.3,124.6,261.7,124.6,244.3,116.8z"/>
		</g>
		<path class="st1" d="M198.5,142.4c18.8,10.9,18.8,28.7,0,39.6s-49.7,10.9-68.5,0s-18.8-28.7,0-39.6S179.6,131.6,198.5,142.4z"/>
		<rect x="115.8" y="71.8" class="st1" width="96.8" height="90.1"/>
		<path class="st2" d="M198.5,142.3c18.8,10.9,18.8,28.7,0,39.6s-49.7,10.9-68.5,0s-18.8-28.7,0-39.6
			C148.8,131.4,179.6,131.4,198.5,142.3z"/>
		<g>
			<path class="st3" d="M200.8,51.2c20.1,11.6,20.1,30.6,0,42.2s-53,11.6-73.1,0s-20.1-30.6,0-42.2S180.7,39.6,200.8,51.2z"/>
			<rect x="112.6" y="54.8" class="st3" width="103.2" height="17.5"/>
			<path class="st4" d="M200.8,33.7c20.1,11.6,20.1,30.6,0,42.2s-53,11.6-73.1,0s-20.1-30.6,0-42.2S180.7,22.1,200.8,33.7z"/>
		</g>
		<g>
			<path class="st5" d="M134.5,116.8v30c17.4,7.8,42.1,7.8,59.4,0v-30C176.6,124.6,151.9,124.6,134.5,116.8z"/>
		</g>
	</g>
	<g>
		<path class="st1" d="M389.7,246.2c18.8,10.9,18.8,28.7,0,39.6s-49.7,10.9-68.5,0c-18.8-10.9-18.8-28.7,0-39.6
			C340,235.4,370.8,235.4,389.7,246.2z"/>
		<rect x="307" y="175.6" class="st1" width="96.8" height="90.1"/>
		<path class="st2" d="M389.7,246.1c18.8,10.9,18.8,28.7,0,39.6c-18.8,10.9-49.7,10.9-68.5,0c-18.8-10.9-18.8-28.7,0-39.6
			C340,235.2,370.8,235.2,389.7,246.1z"/>
		<g>
			<path class="st3" d="M392,155c20.1,11.6,20.1,30.6,0,42.2c-20.1,11.6-53,11.6-73.1,0s-20.1-30.6,0-42.2S371.9,143.4,392,155z"/>
			<rect x="303.8" y="158.6" class="st3" width="103.2" height="17.5"/>
			<path class="st4" d="M392,137.5c20.1,11.6,20.1,30.6,0,42.2c-20.1,11.6-53,11.6-73.1,0c-20.1-11.6-20.1-30.6,0-42.2
				S371.9,125.9,392,137.5z"/>
		</g>
		<g>
			<path class="st5" d="M325.7,220.6v30c17.4,7.8,42.1,7.8,59.4,0v-30C367.7,228.4,343.1,228.4,325.7,220.6z"/>
		</g>
		<path class="st1" d="M282.6,246.2c18.8,10.9,18.8,28.7,0,39.6s-49.7,10.9-68.5,0s-18.8-28.7,0-39.6S263.8,235.4,282.6,246.2z"/>
		<rect x="200" y="175.6" class="st1" width="96.8" height="90.1"/>
		<path class="st2" d="M282.6,246.1c18.8,10.9,18.8,28.7,0,39.6c-18.8,10.9-49.7,10.9-68.5,0s-18.8-28.7,0-39.6
			C233,235.2,263.8,235.2,282.6,246.1z"/>
		<g>
			<path class="st3" d="M284.9,155c20.1,11.6,20.1,30.6,0,42.2c-20.1,11.6-53,11.6-73.1,0s-20.1-30.6,0-42.2S264.8,143.4,284.9,155z
				"/>
			<rect x="196.8" y="158.6" class="st3" width="103.2" height="17.5"/>
			<path class="st4" d="M284.9,137.5c20.1,11.6,20.1,30.6,0,42.2c-20.1,11.6-53,11.6-73.1,0c-20.1-11.6-20.1-30.6,0-42.2
				S264.8,125.9,284.9,137.5z"/>
		</g>
		<g>
			<path class="st5" d="M218.7,220.6v30c17.4,7.8,42.1,7.8,59.4,0v-30C260.7,228.4,236.1,228.4,218.7,220.6z"/>
		</g>
		<path class="st1" d="M172.9,246.2c18.8,10.9,18.8,28.7,0,39.6s-49.7,10.9-68.5,0s-18.8-28.7,0-39.6S154,235.4,172.9,246.2z"/>
		<rect x="90.2" y="175.6" class="st1" width="96.8" height="90.1"/>
		<path class="st2" d="M172.9,246.1c18.8,10.9,18.8,28.7,0,39.6s-49.7,10.9-68.5,0s-18.8-28.7,0-39.6
			C123.2,235.2,154,235.2,172.9,246.1z"/>
		<g>
			<path class="st3" d="M175.2,155c20.1,11.6,20.1,30.6,0,42.2s-53,11.6-73.1,0s-20.1-30.6,0-42.2S155.1,143.4,175.2,155z"/>
			<rect x="87" y="158.6" class="st3" width="103.2" height="17.5"/>
			<path class="st4" d="M175.2,137.5c20.1,11.6,20.1,30.6,0,42.2c-20.1,11.6-53,11.6-73.1,0c-20.1-11.6-20.1-30.6,0-42.2
				S155.1,125.9,175.2,137.5z"/>
		</g>
		<g>
			<path class="st5" d="M108.9,220.6v30c17.4,7.8,42.1,7.8,59.4,0v-30C151,228.4,126.3,228.4,108.9,220.6z"/>
		</g>
	</g>
	<g>
		<path class="st1" d="M140.1,341.6c18.8,10.9,18.8,28.7,0,39.6s-49.7,10.9-68.5,0s-18.8-28.7,0-39.6
			C90.4,330.7,121.3,330.7,140.1,341.6z"/>
		<rect x="57.5" y="270.9" class="st6" width="96.8" height="90.1"/>
		<path class="st7" d="M140.1,341.5c18.8,10.9,18.8,28.7,0,39.6s-49.7,10.9-68.5,0s-18.8-28.7,0-39.6S121.3,330.6,140.1,341.5z"/>
		<g>
			<path class="st3" d="M142.4,250.4c20.1,11.6,20.1,30.6,0,42.2c-20.1,11.6-53,11.6-73.1,0c-20.1-11.6-20.1-30.6,0-42.2
				C89.4,238.8,122.3,238.8,142.4,250.4z"/>
			<rect x="54.2" y="253.9" class="st3" width="103.2" height="17.5"/>
			<path class="st4" d="M142.4,232.8c20.1,11.6,20.1,30.6,0,42.2s-53,11.6-73.1,0s-20.1-30.6,0-42.2S122.3,221.2,142.4,232.8z"/>
		</g>
		<g>
			<path class="st5" d="M76.1,316v30c17.4,7.8,42.1,7.8,59.4,0v-30C118.2,323.8,93.5,323.8,76.1,316z"/>
		</g>
	</g>
	<g>
		<path class="st1" d="M249.9,341.6c18.8,10.9,18.8,28.7,0,39.6s-49.7,10.9-68.5,0s-18.8-28.7,0-39.6
			C200.2,330.7,231,330.7,249.9,341.6z"/>
		<rect x="167.2" y="270.9" class="st6" width="96.8" height="90.1"/>
		<path class="st7" d="M249.9,341.5c18.8,10.9,18.8,28.7,0,39.6s-49.7,10.9-68.5,0s-18.8-28.7,0-39.6S231,330.6,249.9,341.5z"/>
		<g>
			<path class="st3" d="M252.2,250.4c20.1,11.6,20.1,30.6,0,42.2c-20.1,11.6-53,11.6-73.1,0c-20.1-11.6-20.1-30.6,0-42.2
				C199.2,238.8,232.1,238.8,252.2,250.4z"/>
			<rect x="164" y="253.9" class="st3" width="103.2" height="17.5"/>
			<path class="st4" d="M252.2,232.8c20.1,11.6,20.1,30.6,0,42.2s-53,11.6-73.1,0s-20.1-30.6,0-42.2S232.1,221.2,252.2,232.8z"/>
		</g>
		<g>
			<path class="st5" d="M185.9,316v30c17.4,7.8,42.1,7.8,59.4,0v-30C227.9,323.8,203.3,323.8,185.9,316z"/>
		</g>
	</g>
	<g>
		<path class="st1" d="M356.9,341.6c18.8,10.9,18.8,28.7,0,39.6c-18.8,10.9-49.7,10.9-68.5,0c-18.8-10.9-18.8-28.7,0-39.6
			C307.2,330.7,338.1,330.7,356.9,341.6z"/>
		<rect x="274.3" y="270.9" class="st6" width="96.8" height="90.1"/>
		<path class="st7" d="M356.9,341.5c18.8,10.9,18.8,28.7,0,39.6s-49.7,10.9-68.5,0s-18.8-28.7,0-39.6S338.1,330.6,356.9,341.5z"/>
		<g>
			<path class="st3" d="M359.2,250.4c20.1,11.6,20.1,30.6,0,42.2c-20.1,11.6-53,11.6-73.1,0c-20.1-11.6-20.1-30.6,0-42.2
				C306.2,238.8,339.1,238.8,359.2,250.4z"/>
			<rect x="271" y="253.9" class="st3" width="103.2" height="17.5"/>
			<path class="st4" d="M359.2,232.8c20.1,11.6,20.1,30.6,0,42.2c-20.1,11.6-53,11.6-73.1,0s-20.1-30.6,0-42.2
				S339.1,221.2,359.2,232.8z"/>
		</g>
		<g>
			<path class="st5" d="M292.9,316v30c17.4,7.8,42.1,7.8,59.4,0v-30C335,323.8,310.3,323.8,292.9,316z"/>
		</g>
	</g>
	<g>
		<polygon class="st8" points="228,451.7 187.9,474.9 127.8,440.2 127.8,417 167.9,417 		"/>
		<polygon class="st9" points="222.8,450.7 186.9,471.4 132.9,440.3 132.9,419.6 168.9,419.6 		"/>
		<line class="st10" x1="179.6" y1="431.4" x2="179.6" y2="459.6"/>
		<path class="st10" d="M172,443c2.4,1.4,2.4,3.6,0,5c-2.4,1.4-6.2,1.4-8.6,0s-2.4-3.6,0-5C165.7,441.7,169.6,441.7,172,443z"/>
		<path class="st10" d="M194.8,443c2.4,1.4,2.4,3.6,0,5s-6.2,1.4-8.6,0s-2.4-3.6,0-5C188.6,441.7,192.4,441.7,194.8,443z"/>
		<path class="st10" d="M127.8,417c0,0-13.6,4.9-19.2,0s3.1-9.1,3.6-14.6c0.5-5.5-12.2-13.2-12.2-13.2"/>
	</g>
	<g>
		<polygon class="st8" points="338.2,451.9 298.2,475 238,440.3 238,417.1 278.1,417.1 		"/>
		<polygon class="st9" points="333.1,450.8 297.1,471.6 243.2,440.4 243.2,419.7 279.2,419.7 		"/>
		<line class="st10" x1="289.8" y1="431.6" x2="289.8" y2="459.7"/>
		<path class="st10" d="M282.2,443.1c2.4,1.4,2.4,3.6,0,5s-6.2,1.4-8.6,0c-2.4-1.4-2.4-3.6,0-5C276,441.8,279.9,441.8,282.2,443.1z"
			/>
		<path class="st10" d="M305.1,443.1c2.4,1.4,2.4,3.6,0,5s-6.2,1.4-8.6,0c-2.4-1.4-2.4-3.6,0-5C298.8,441.8,302.7,441.8,305.1,443.1
			z"/>
		<path class="st10" d="M238,417.1c0,0-13.6,4.9-19.2,0c-5.6-4.9,3.1-9.1,3.6-14.6c0.5-5.5-12.2-13.2-12.2-13.2"/>
	</g>
	<g>
		<polygon class="st8" points="445.8,451.1 405.7,474.3 345.5,439.6 345.5,416.4 385.6,416.4 		"/>
		<polygon class="st9" points="440.6,450.1 404.6,470.9 350.7,439.7 350.7,419 386.7,419 		"/>
		<line class="st10" x1="397.3" y1="430.9" x2="397.3" y2="459"/>
		<path class="st10" d="M389.7,442.4c2.4,1.4,2.4,3.6,0,5s-6.2,1.4-8.6,0c-2.4-1.4-2.4-3.6,0-5C383.5,441.1,387.4,441.1,389.7,442.4
			z"/>
		<path class="st10" d="M412.6,442.4c2.4,1.4,2.4,3.6,0,5s-6.2,1.4-8.6,0c-2.4-1.4-2.4-3.6,0-5C406.3,441.1,410.2,441.1,412.6,442.4
			z"/>
		<path class="st10" d="M345.5,416.4c0,0-13.6,4.9-19.2,0s3.1-9.1,3.6-14.6c0.5-5.5-12.2-13.2-12.2-13.2"/>
	</g>
</g>
</svg>
