<?xml version="1.0" encoding="utf-8"?>
<!-- Generator: Adobe Illustrator 19.2.1, SVG Export Plug-In . SVG Version: 6.00 Build 0)  -->
<svg version="1.0" id="Слой_1" xmlns="http://www.w3.org/2000/svg" xmlns:xlink="http://www.w3.org/1999/xlink" x="0px" y="0px"
	 viewBox="0 0 100 100" style="enable-background:new 0 0 100 100;" xml:space="preserve">
<style type="text/css">
	.st0{fill:none;stroke:#FFFFFF;stroke-width:6;stroke-miterlimit:10;}
</style>
<g>
	<path class="st0" d="M74.6,75.6c12.2-11.8,14.1-30.3,5.2-44.1L30.4,79.1C43.8,88.5,62.4,87.4,74.6,75.6z"/>
	<path class="st0" d="M26.1,25.2C13.9,36.9,12,55.5,20.8,69.2l49.5-47.6C56.9,12.3,38.3,13.4,26.1,25.2z"/>
	<path class="st0" d="M70.3,21.6L20.8,69.2c1.2,1.9,2.6,3.7,4.3,5.4c1.6,1.7,3.4,3.2,5.3,4.5l49.5-47.6c-1.2-1.9-2.6-3.7-4.3-5.4
		S72.2,22.9,70.3,21.6z"/>
</g>
<g>
</g>
<g>
</g>
<g>
</g>
<g>
</g>
<g>
</g>
<g>
</g>
<g>
</g>
<g>
</g>
<g>
</g>
<g>
</g>
<g>
</g>
</svg>
