<?xml version="1.0" encoding="utf-8"?>
<!-- Generator: Adobe Illustrator 19.2.1, SVG Export Plug-In . SVG Version: 6.00 Build 0)  -->
<svg version="1.1" id="Слой_1" xmlns="http://www.w3.org/2000/svg" xmlns:xlink="http://www.w3.org/1999/xlink" x="0px" y="0px"
	 viewBox="0 0 2276 577" style="enable-background:new 0 0 2276 577;" xml:space="preserve">
<style type="text/css">
	.st0{fill:#E6E6E6;}
	.st1{fill:#C69C6D;}
	.st2{fill:#CCCCCC;}
	.st3{fill:#FFFFFF;}
	.st4{fill:#B3B3B3;}
	.st5{fill:#FBB03B;}
	.st6{stroke:#000000;stroke-miterlimit:10;}
	.st7{fill:#333333;stroke:#000000;stroke-miterlimit:10;}
	.st8{fill:#29ABE2;}
	.st9{fill:#93278F;}
	.st10{fill:#F7931E;stroke:#000000;stroke-miterlimit:10;}
	.st11{fill:#BABABA;stroke:#000000;stroke-width:0.1;stroke-miterlimit:10;}
	.st12{fill:#FFFFFF;stroke:#000000;stroke-width:0.1;stroke-miterlimit:10;}
	.st13{fill:#41D8A6;stroke:#000000;stroke-width:0.1;stroke-miterlimit:10;}
	.st14{fill:#EA5777;}
	.st15{opacity:0.28;fill:#FFFFFF;}
	.st16{fill:#BABABA;}
	.st17{fill:#3D3D3D;stroke:#000000;stroke-width:0.1;stroke-miterlimit:10;}
	.st18{stroke:#000000;stroke-width:0.1;stroke-miterlimit:10;}
	.st19{fill:#CCCCCC;stroke:#000000;stroke-width:0.1;stroke-miterlimit:10;}
	.st20{fill:#333333;stroke:#000000;stroke-width:0.1;stroke-miterlimit:10;}
	.st21{fill:url(#SVGID_3_);stroke:#000000;stroke-width:0.1;stroke-miterlimit:10;}
	.st22{fill:#ED1C24;}
	.st23{fill:#22B573;}
	.st24{fill:#F2F2F2;}
	.st25{fill:#B3B3B3;stroke:#000000;stroke-width:0.1;stroke-miterlimit:10;}
	.st26{fill:#333333;}
	.st27{fill:#4D4D4D;}
	.st28{fill:#915F29;}
	.st29{fill:#724D1D;}
	.st30{fill:#A0692D;}
	.st31{fill:#ED963E;}
	.st32{fill:#E8842A;}
	.st33{fill:#D681EA;}
	.st34{fill:#C52CE5;}
	.st35{fill:#24DD35;}
	.st36{fill:#1FAA25;}
	.st37{fill:none;stroke:#FFFFFF;stroke-width:2;stroke-miterlimit:10;}
	.st38{fill:#935319;}
	.st39{fill:#D3781E;}
	.st40{fill:#603512;}
	.st41{fill:#F7931E;}
	.st42{fill:#9B1821;}
	.st43{fill:#7F131E;}
	.st44{fill:#6D121B;}
	.st45{fill:#1C8E1C;}
	.st46{fill:#197219;}
	.st47{opacity:0.55;}
	.st48{fill:#808080;}
	.st49{fill:#999999;}
	.st50{fill:#A507AA;}
	.st51{fill:#FF00FF;}
	.st52{fill:#540159;}
	.st53{fill:#800284;}
	.st54{fill:#F9D59B;}
	.st55{fill:#EF70BF;}
	.st56{fill:#ED98D1;}
	.st57{fill:none;stroke:#000000;stroke-miterlimit:10;}
</style>
<g>
	<polygon class="st0" points="1022.6,278.4 977.3,278.4 979.6,268.2 1020.3,268.2 	"/>
	<path class="st1" d="M1030.2,292.9L1030.2,292.9c0-4.5-2.9-9-8.8-12.4c-11.8-6.8-31.1-6.8-42.8,0c-5.9,3.4-8.8,7.9-8.8,12.4l0,0
		v49.5h0c0,4.5,2.9,9,8.8,12.4c11.8,6.8,31.1,6.8,42.8,0c5.9-3.4,8.8-7.9,8.8-12.4h0V292.9z"/>
	<g>
		<path class="st0" d="M1016,269.1c8.8,5.1,8.8,13.4,0,18.5c-8.8,5.1-23.2,5.1-32,0s-8.8-13.4,0-18.5
			C992.1,264.4,1007.8,264.4,1016,269.1z"/>
		<path class="st0" d="M1016,269.1c8.8,5.1,8.8,13.4,0,18.5c-8.8,5.1-23.2,5.1-32,0s-8.8-13.4,0-18.5
			C992.1,264.4,1007.8,264.4,1016,269.1z"/>
	</g>
	<g>
		<path class="st2" d="M1014.4,259.8c7.9,4.6,10.4,12.5,1.6,17.6c-8.8,5.1-23.2,5.1-32,0c-8.8-5.1-6.3-13,1.6-17.6
			C993.5,255.3,1006.4,255.3,1014.4,259.8z"/>
		<path class="st0" d="M1014.4,259.8c7.9,4.6,7.9,12.1,0,16.6c-7.9,4.6-20.9,4.6-28.8,0c-7.9-4.6-7.9-12.1,0-16.6
			C993.5,255.3,1006.4,255.3,1014.4,259.8z"/>
	</g>
	<path class="st3" d="M1022.6,305.6c-0.4,0.2-0.8,0.5-1.2,0.7c-11.8,6.8-31.1,6.8-42.8,0c-0.9-0.5-1.6-1-2.4-1.5V330
		c0.7,0.5,1.5,1,2.4,1.5c11.8,6.8,31.1,6.8,42.8,0c0.4-0.2,0.8-0.5,1.2-0.7V305.6z"/>
	<g>
		<path class="st4" d="M979.9,312.3v3.3c10.5,5.3,26,5.7,37.3,1.2v-3.3C1006,318,990.5,317.6,979.9,312.3z"/>
	</g>
	<g>
		<path class="st4" d="M979.9,319.4v3.3c10.5,5.3,26,5.7,37.3,1.2v-3.3C1006,325.1,990.5,324.7,979.9,319.4z"/>
	</g>
	<g>
		<path class="st4" d="M979.9,325.1v3.3c10.5,5.3,26,5.7,37.3,1.2v-3.3C1006,330.8,990.5,330.4,979.9,325.1z"/>
	</g>
</g>
<g>
	<g>
		<path class="st5" d="M573.3,295.8c-13.3-7.7-13.3-20.4,0-28.1l113.7-65.7c13.3-7.7,35.1-7.7,48.5,0.1l149.3,86.7
			c13.3,7.7,13.3,20.4,0,28.1l-113.6,65.6c-13.3,7.7-35.1,7.7-48.5,0L573.3,295.8z"/>
	</g>
	<path class="st3" d="M584.3,274.9l121.5-70.1c2.3-1.3,5.1-1.3,7.4,0l155.6,89.8c4.9,2.9,4.9,10,0,12.8l-121.4,70.1
		c-2.3,1.3-5.1,1.3-7.4,0l-155.7-89.8C579.4,284.9,579.4,277.8,584.3,274.9z"/>
	<path class="st6" d="M581.5,246.6c0-4.1,0-4.1,0-4.1s63.6-16.7,85.4-29.3c0,4.1,0,0,0,4.1l-68.2,39.3L581.5,246.6z"/>
	<polygon class="st7" points="581.5,242.5 649.7,203.1 667,213.2 598.8,252.5 	"/>
	<polygon class="st0" points="728.7,240.6 642.4,290.4 620.9,277.9 707.1,228.1 	"/>
	<polygon class="st0" points="799.9,281.8 713.6,331.6 692.1,319.1 778.3,269.3 	"/>
	<polygon class="st0" points="841.6,305.5 755.3,355.3 733.8,342.8 820,293 	"/>
	<polygon class="st0" points="772.7,266 729.6,290.9 708,278.5 751.1,253.6 	"/>
	<polygon class="st8" points="708.5,291.5 678.9,308.6 649.4,291.5 678.9,274.5 	"/>
	<polygon class="st5" points="686.3,231.8 635.5,261.1 627.2,256.4 678,227.1 	"/>
	<polygon class="st9" points="739.3,248.6 702.4,269.9 696.4,266.5 733.3,245.2 	"/>
	<polygon class="st9" points="787.7,302.8 750.8,324.2 744.7,320.7 781.6,299.4 	"/>
</g>
<g>
	<polygon class="st10" points="1492,303.4 1822.1,112.8 2276,374.8 1945.9,565.4 	"/>
	<g>
		<g>
			<g>
				<defs>
					<path id="SVGID_2_" d="M1502.6,304.3c72.2,41.7,144.4,83.4,216.7,125.1c75,43.3,150,86.6,224.9,129.9l0,0
						c53.5-30.9,107.1-61.8,160.6-92.7c53.5-30.9,107-61.8,160.6-92.7l0,0c-73.6-42.5-147.2-85-220.8-127.5
						c-73.6-42.5-147.2-85-220.8-127.5l0,0c-46.8,27-93.6,54-140.3,81C1623.2,234.7,1562.9,269.5,1502.6,304.3L1502.6,304.3z"/>
				</defs>
				<clipPath id="SVGID_1_">
					<use xlink:href="#SVGID_2_"  style="overflow:visible;"/>
				</clipPath>
				<g style="clip-path:url(#SVGID_1_);">
					
						<image style="overflow:visible;" width="1018" height="588" xlink:href="CD816AEC.jpg"  transform="matrix(0.7499 0 0 -0.7501 1502.621 559.2688)">
					</image>
				</g>
			</g>
		</g>
	</g>
</g>
<g>
	<path class="st11" d="M782.9,465.2c-78.1-45.1-156.2-90.2-234.3-135.2c-4.6-2.5-10.8-2-15.2,0.5c-34.7,19.9-69.3,39.7-104,59.6
		c-3.6,1.7-5.3,6.1-1.3,8.4c78.4,45.2,156.8,90.5,235.2,135.7c5.2,2.7,12.5,0.6,17.2-2.1c34.2-19.5,68.3-39.1,102.5-58.6
		C786.6,471.4,787,467,782.9,465.2z M781.1,473.5c-33.3,19.1-66.6,38.1-100,57.2c-4.7,2.6-11.9,4.7-17,2
		c-78-44.8-155.9-89.7-233.9-134.5c-3.9-2.3-2.3-6.7,1.3-8.3c33.9-19.4,67.8-38.8,101.7-58.2c4.4-2.5,10.6-3,15.1-0.5
		c77.5,44.7,155,89.4,232.6,134.1C785,467.1,784.5,471.5,781.1,473.5z"/>
	<path class="st11" d="M785.8,457.2L785.8,457.2c-0.2-1.4-1.1-2.7-2.9-3.5c-78.1-45.1-156.2-90.2-234.3-135.2
		c-4.6-2.5-10.8-2-15.2,0.5c-34.7,19.9-69.3,39.7-104,59.6c-2.2,1-3.6,3-3.6,4.9h0v11.6h0c0,1.3,0.7,2.5,2.3,3.4
		c78.4,45.2,156.8,90.5,235.2,135.7c5.2,2.7,12.5,0.6,17.2-2.1c34.2-19.5,68.3-39.1,102.5-58.6c1.9-1.1,2.9-2.9,2.7-4.6h0V457.2z"/>
	<path class="st12" d="M781.1,463.4c-33.3,19.1-66.6,38.1-100,57.2c-4.7,2.6-11.9,4.7-17,2c-78-44.8-155.9-89.7-233.9-134.5
		c-3.9-2.3-2.3-6.7,1.3-8.3c33.9-19.4,67.8-38.8,101.7-58.2c4.4-2.5,10.6-3,15.1-0.5c77.5,44.7,155,89.4,232.6,134.1
		C785,457,784.5,461.4,781.1,463.4z"/>
	<path class="st13" d="M760.4,448.8c-35,20.4-70,40.7-105,61c-73.2-41.4-146.1-83.2-219.4-124.5c35.8-20.3,71.7-40.6,107.5-60.9
		C615.9,365.9,688.1,407.4,760.4,448.8z"/>
	<path class="st3" d="M624.8,398.5c6,3.7,12.8,8.8,13.6,16.4c0.8,7.2-4.5,12.6-10.3,16c-17.1,9.7-42.1,8.5-59-0.8
		c-6.1-3.7-12.8-8.8-13.2-16.6c-0.4-7.2,5.4-13,11.3-16.2C584.2,387.8,608.1,389.2,624.8,398.5z"/>
	<path class="st14" d="M619.3,421.1c-3,1.7-5.9,3.4-8.9,5.1c-11.5-6.4-23.1-12.7-34.6-19.1c3-1.7,6-3.4,9-5.1
		C596.3,408.3,607.8,414.7,619.3,421.1z"/>
	<path class="st14" d="M587.2,426.2c-3.3-1.8-6.5-3.6-9.8-5.4c10.6-6,21.1-11.9,31.7-17.9c3.2,1.8,6.4,3.6,9.7,5.4
		C608.3,414.2,597.8,420.2,587.2,426.2z"/>
	<path class="st4" d="M500.5,346.3c-9.3,5.3-18.5,10.5-27.8,15.8c-1,0.5-2.3,0.7-3,0.3c0,0-0.1,0-0.1-0.1c-0.7-0.4-0.5-1.1,0.4-1.7
		c9.3-5.3,18.5-10.5,27.8-15.8c1-0.5,2.3-0.7,3-0.3c0,0,0.1,0,0.1,0.1C501.6,345,501.5,345.7,500.5,346.3z"/>
	<path class="st4" d="M466.1,364.3c0.7,0.4,0.6,1.2-0.4,1.8c-1,0.6-2.4,0.7-3.1,0.3c-0.7-0.4-0.6-1.2,0.4-1.7
		C463.9,364.1,465.3,363.9,466.1,364.3z"/>
	<path class="st15" d="M699.1,510.4c27.4-15.7,54.7-31.3,82.1-47c3.4-2,3.9-6.3-0.1-8.1c-55-31.7-110-63.4-165-95.1
		c17.1,25.5,34,51.1,49.7,77.4C679.3,460.2,693.9,484.4,699.1,510.4z"/>
	<path class="st12" d="M732.3,479.2c4.6,1.8,1.5,6.5-1.3,8.1c-4.1,2.3-10.3,3.4-14.7,1.1c-3.9-2.2-2.2-6.7,1.1-8.4
		C721.6,477.8,728,477,732.3,479.2z"/>
	<g>
		<g>
			<path class="st16" d="M593.7,491.4c0-3.4,0-5.6,0-7.6c-53.2-31.1-106.8-61.7-160.2-92.4c0,3.4,0,6.8,0,10.1
				C486.9,431.5,540.3,461.4,593.7,491.4z"/>
			<path class="st17" d="M448,404.4L448,404.4c-0.1,1.5-0.6,2.5-1.1,2.2c-2.9-1.6-5.9-3.3-8.8-4.9c-0.3-0.2-0.6-1.6-0.5-3.2v0
				c0-1.5,0.4-2.5,0.7-2.3c3,1.7,6,3.4,9,5.1C447.8,401.7,448.1,403,448,404.4z"/>
			<path class="st11" d="M447.6,404.1c0,0.1,0,0.1,0,0.2c-0.1,1-0.4,1.6-0.7,1.5c-2.9-1.6-5.8-3.3-8.7-4.9c-0.2-0.1-0.4-1.1-0.4-2.1
				c0-0.1,0-0.1,0-0.2c0-1,0.2-1.7,0.5-1.5c2.9,1.7,5.9,3.3,8.8,5C447.5,402.3,447.7,403.2,447.6,404.1z"/>
			<path class="st17" d="M455.3,407.7c-0.1,0.7-0.1,1-0.1,1.7c-0.1,1-0.5,1.6-0.8,1.4c-2-1.1-2.9-1.6-4.7-2.7
				c-0.4-0.2-0.6-1.2-0.5-2.2c0-0.7,0.1-1.1,0.1-1.7c0.1-1,0.4-1.5,0.8-1.3c1.8,1,2.8,1.6,4.8,2.7
				C455.2,405.9,455.4,406.8,455.3,407.7z"/>
			<path class="st11" d="M455.1,407.8c0,0.5-0.1,0.8-0.1,1.3c-0.1,0.6-0.3,1.1-0.6,0.9c-2-1.1-3-1.7-4.8-2.7
				c-0.2-0.1-0.4-0.8-0.3-1.4c0-0.5,0.1-0.8,0.1-1.3c0-0.6,0.3-1,0.5-0.9c1.9,1.1,2.8,1.6,4.8,2.8
				C455,406.6,455.2,407.2,455.1,407.8z"/>
			<path class="st17" d="M462.7,411.9c-0.1,0.7-0.1,1-0.2,1.7c-0.1,1-0.5,1.6-0.9,1.3c-2.2-1.2-3.2-1.8-5.3-3
				c-0.4-0.2-0.6-1.2-0.6-2.2c0.1-0.7,0.1-1,0.1-1.7c0.1-1,0.5-1.5,0.9-1.2c2.1,1.2,3.1,1.8,5.3,3
				C462.5,410.1,462.8,411,462.7,411.9z"/>
			<path class="st11" d="M462.4,412c0,0.5-0.1,0.8-0.1,1.3c-0.1,0.6-0.3,1-0.6,0.9c-2.2-1.2-3.3-1.9-5.4-3c-0.3-0.1-0.4-0.8-0.4-1.4
				c0-0.5,0.1-0.8,0.1-1.3c0.1-0.6,0.3-1,0.6-0.8c2.1,1.2,3.2,1.8,5.4,3.1C462.3,410.7,462.5,411.3,462.4,412z"/>
		</g>
	</g>
	<g>
		<g>
			<path class="st16" d="M781.2,473.6c0-3.4,0-6.8,0-10.1c-33.1,18.9-66.3,37.9-99.4,56.8c0,3.4,0,6.8,0,10.1
				C715,511.5,748.1,492.6,781.2,473.6z"/>
			<path class="st18" d="M734.3,495.4c0,1.4-0.6,2.8-1.4,3.3c-0.8,0.4-1.4-0.3-1.4-1.7s0.6-2.8,1.4-3.3
				C733.7,493.3,734.3,494,734.3,495.4z"/>
			<path class="st18" d="M739.6,492.4c0,1.4-0.6,2.9-1.4,3.3c-0.8,0.4-1.4-0.3-1.4-1.7c0-1.4,0.6-2.9,1.4-3.3
				C739,490.3,739.6,491,739.6,492.4z"/>
			<path class="st18" d="M744.5,489.6c0,1.4-0.6,2.9-1.4,3.3c-0.8,0.4-1.4-0.3-1.4-1.7c0-1.4,0.6-2.9,1.4-3.3
				C743.9,487.4,744.5,488.2,744.5,489.6z"/>
			<path class="st18" d="M726.2,500c0,1.4,0.7,2.1,1.4,1.7c0.8-0.4,1.4-1.9,1.4-3.3c0-1.4-0.6-2.1-1.4-1.7
				C726.9,497.2,726.2,498.6,726.2,500z"/>
			<path class="st18" d="M721.2,502.9c0,1.4,0.7,2.1,1.4,1.7c0.8-0.4,1.4-1.9,1.4-3.3c0-1.4-0.7-2.1-1.4-1.7
				C721.8,500.1,721.2,501.5,721.2,502.9z"/>
		</g>
	</g>
	<path class="st11" d="M533.5,318.9c-34.7,19.9-69.3,39.7-104,59.6c-3.6,1.7-5.3,6.1-1.3,8.4c78.4,45.2,156.8,90.5,235.2,135.7
		c5.2,2.7,12.8,0.9,17.5-1.8c34.2-19.5,68.1-39.1,102.3-58.6c3.5-2,3.9-6.7-0.2-8.5c-78.1-45.1-156.2-90.2-234.3-135.2
		C544.1,315.9,537.9,316.4,533.5,318.9z M780.9,453.8c4,1.8,3.6,6.5,0.2,8.4c-33.3,19.1-66.4,38.1-99.7,57.2
		c-4.7,2.6-12.1,4.4-17.2,1.7c-78-44.8-155.9-89.7-233.9-134.5c-3.9-2.3-2.3-6.7,1.3-8.3c33.9-19.4,67.8-38.8,101.7-58.2
		c4.4-2.5,10.6-3,15.1-0.5C625.9,364.4,703.4,409.1,780.9,453.8z"/>
</g>
<g>
	<path class="st19" d="M452.9,294.8L22.4,543.4c-5.3,3.1-9.6,1.2-9.6-4.1v-263c0-5.3,4.3-12.1,9.6-15.1L452.9,12.6
		c5.3-3.1,9.6-1.2,9.6,4.1v263C462.5,285,458.2,291.8,452.9,294.8z"/>
	<polygon class="st2" points="460,18.9 460,18.9 459.5,11.4 469.3,15.8 	"/>
	<path class="st19" d="M458.4,317L16.9,571.9c-2.2,1.3-4.1,0.5-4.1-1.7v-42.4c0-2.2,1.8-5.1,4.1-6.4l441.6-254.9
		c2.2-1.3,4.1-0.5,4.1,1.7v42.4C462.5,312.8,460.7,315.7,458.4,317z"/>
	<polygon class="st2" points="24.3,576.8 13.6,572.2 23.1,568.3 23.1,568.3 	"/>
	<polygon class="st2" points="463.2,17.2 453.1,12.7 27.1,258.5 37.2,262.9 	"/>
	<polygon class="st19" points="170.6,497.9 225.2,537.2 225.2,531.7 170.6,444.7 	"/>
	<polygon class="st19" points="343.4,464.2 225.2,531.7 192.9,480.2 311,412.7 	"/>
	<polygon class="st19" points="343.4,469.8 225.2,537.2 225.2,531.7 343.4,464.2 	"/>
	<path class="st19" d="M468.7,321.4L27.2,576.4c-2.2,1.3-4.1,0.5-4.1-1.7v-42.4c0-2.2,1.8-5.1,4.1-6.4l441.6-254.9
		c2.2-1.3,4.1-0.5,4.1,1.7V315C472.8,317.3,471,320.1,468.7,321.4z"/>
	<path class="st20" d="M253.5,433.3c0,3.1-2.5,7-5.5,8.7c-3.1,1.8-5.5,0.7-5.5-2.3s2.5-7,5.5-8.7C251,429.2,253.5,430.2,253.5,433.3
		z"/>
	<path class="st20" d="M463.2,299.4L32.7,547.9c-5.3,3.1-9.6,1.2-9.6-4.1v-263c0-5.3,4.3-12.1,9.6-15.1L463.2,17.2
		c5.3-3.1,9.6-1.2,9.6,4.1v263C472.8,289.6,468.5,296.3,463.2,299.4z"/>
	
		<linearGradient id="SVGID_3_" gradientUnits="userSpaceOnUse" x1="247.9548" y1="-5501.583" x2="247.9548" y2="-5227.8813" gradientTransform="matrix(1 -1.1547 0 1 0 5820.4199)">
		<stop  offset="0" style="stop-color:#E6E6E6"/>
		<stop  offset="1" style="stop-color:#B3B3B3"/>
	</linearGradient>
	<path class="st21" d="M459.3,62.2l-422.7,244v-26c0-3.5,2.8-7.9,6.3-10L454.6,32.6c2.6-1.5,4.7-0.6,4.7,2V62.2z"/>
	<path class="st22" d="M59.6,276.9c0,1.8-1.5,4.2-3.3,5.2c-1.8,1.1-3.3,0.4-3.3-1.4s1.5-4.2,3.3-5.2
		C58.1,274.4,59.6,275.1,59.6,276.9z"/>
	<path class="st5" d="M74.5,268.3c0,1.8-1.5,4.2-3.3,5.2c-1.8,1.1-3.3,0.4-3.3-1.4s1.5-4.2,3.3-5.2C73,265.8,74.5,266.5,74.5,268.3z
		"/>
	<path class="st23" d="M89.4,259.7c0,1.8-1.5,4.2-3.3,5.2c-1.8,1.1-3.3,0.4-3.3-1.4s1.5-4.2,3.3-5.2C88,257.2,89.4,257.9,89.4,259.7
		z"/>
	<path class="st24" d="M118,249.8l-8.9,5.2c-1.2,0.7-2.2,0.3-2.2-0.9v-8.9c0-1.2,1-2.7,2.2-3.4l8.9-5.2c1.2-0.7,2.2-0.3,2.2,0.9v8.9
		C120.2,247.6,119.2,249.1,118,249.8z"/>
	<path class="st24" d="M164.9,222.6l-14.6,8.4c-1.5,0.9-2.7,0.3-2.7-1.1V222c0-1.5,1.2-3.4,2.7-4.2l14.6-8.4
		c1.5-0.9,2.7-0.3,2.7,1.1v7.9C167.6,219.9,166.4,221.8,164.9,222.6z"/>
	<path class="st24" d="M345.5,118.5l-159.8,92.2c-1.8,1-3.2,0.4-3.2-1.3v-6.9c0-1.8,1.4-4,3.2-5l159.8-92.2c1.8-1,3.2-0.4,3.2,1.3
		v6.9C348.7,115.2,347.2,117.5,345.5,118.5z"/>
	<path class="st24" d="M382.2,97.2l-24.6,14.2c-0.7,0.4-1.3,0.2-1.3-0.5v-10.7c0-0.7,0.6-1.6,1.3-2l24.6-14.2
		c0.7-0.4,1.3-0.2,1.3,0.5v10.7C383.5,95.9,382.9,96.8,382.2,97.2z"/>
	<path class="st24" d="M417,77.1l-24.6,14.2c-0.7,0.4-1.3,0.2-1.3-0.5V80c0-0.7,0.6-1.6,1.3-2L417,63.8c0.7-0.4,1.3-0.2,1.3,0.5V75
		C418.3,75.7,417.7,76.7,417,77.1z"/>
	<path class="st24" d="M132.8,241.3l-8.9,5.2c-1.2,0.7-2.2,0.3-2.2-0.9v-8.9c0-1.2,1-2.7,2.2-3.4l8.9-5.2c1.2-0.7,2.2-0.3,2.2,0.9
		v8.9C135,239,134,240.6,132.8,241.3z"/>
	<g>
		<polygon points="341.9,114.8 193,200.8 193,198.8 341.9,112.8 		"/>
	</g>
	<polygon class="st13" points="459.3,293.2 36.6,537.2 36.6,306.2 459.3,62.2 	"/>
	<g>
		<path class="st3" d="M293.4,256.3c0,25.1-20.3,57.2-45.4,71.6s-45.4,5.9-45.4-19.2c0-25.1,20.3-57.2,45.4-71.6
			C273,222.7,293.4,231.3,293.4,256.3z"/>
		<polygon class="st14" points="255.2,304.1 240.7,312.4 240.7,261.1 255.2,252.8 		"/>
		<polygon class="st14" points="222.3,305.8 222.3,291.4 273.6,261.8 273.6,276.2 		"/>
	</g>
	<path class="st25" d="M263,138.5c0,1.2-1,2.8-2.2,3.5c-1.2,0.7-2.2,0.3-2.2-0.9c0-1.2,1-2.8,2.2-3.5C262,136.9,263,137.3,263,138.5
		z"/>
	<polygon class="st2" points="12.8,543.7 23.1,549.6 23.1,285.5 12.8,279.5 	"/>
	<polygon class="st26" points="20.1,463.8 15,460.8 15,446.3 20.1,449.3 	"/>
	<polygon class="st27" points="20.1,463.8 15.7,461.3 15.7,448 20.1,450.5 	"/>
	<polygon class="st28" points="20.2,463 18.8,461.4 18.8,450.7 20.1,452.3 	"/>
	<polygon class="st28" points="20,463.7 17.6,460.6 18.8,461.4 20.2,463 20.1,463.8 	"/>
	<path class="st26" d="M20.2,505.8L20.2,505.8c-2.4-1.4-4.4-4.5-4.4-7v-8.3c0-2.4,2-3.3,4.4-1.9h0V505.8z"/>
	<path class="st27" d="M20.2,505.8L20.2,505.8c-1.9-1.1-3.5-3.6-3.5-5.5v-8.4c0-1.9,1.6-2.6,3.5-1.5h0V505.8z"/>
	<polygon class="st29" points="18.8,461.4 17.6,460.6 17.6,450 18.8,450.7 	"/>
	<polygon class="st26" points="20.1,480.6 15,477.6 15,463.1 20.1,466.1 	"/>
	<polygon class="st27" points="20.1,480.6 15.7,478 15.7,464.7 20.1,467.3 	"/>
	<polygon class="st30" points="20.2,479.7 18.8,478.1 18.8,467.5 20.1,469 	"/>
	<polygon class="st30" points="19.9,480.5 17.5,477.4 18.8,478.1 20.2,479.7 20.1,480.6 	"/>
	<polygon class="st29" points="18.8,478.1 17.5,477.4 17.5,466.8 18.8,467.5 	"/>
	<polygon class="st26" points="22.2,436 14.1,431.3 14.1,428.2 22.2,432.9 	"/>
	<polygon class="st27" points="22.2,436 14.7,431.7 14.7,429.3 22.2,433.6 	"/>
	<polygon class="st26" points="22,430 13.9,425.3 13.9,422.2 22,426.9 	"/>
	<polygon class="st27" points="22,430 14.5,425.7 14.5,423.3 22,427.6 	"/>
	<polygon class="st26" points="22,424.6 13.9,419.9 13.9,416.8 22,421.5 	"/>
	<polygon class="st27" points="22,424.6 14.5,420.3 14.5,417.9 22,422.2 	"/>
	<polygon class="st26" points="22,419.5 13.9,414.8 13.9,411.7 22,416.4 	"/>
	<polygon class="st27" points="22,419.5 14.5,415.1 14.5,412.7 22,417.1 	"/>
	<polygon class="st26" points="22,414.4 13.9,409.7 13.9,406.6 22,411.3 	"/>
	<polygon class="st27" points="22,414.4 14.5,410 14.5,407.6 22,412 	"/>
	<polygon class="st26" points="22,409.4 13.9,404.7 13.9,401.6 22,406.3 	"/>
	<polygon class="st27" points="22,409.4 14.5,405.1 14.5,402.7 22,407 	"/>
	<polygon class="st26" points="22,404.3 13.9,399.6 13.9,396.5 22,401.2 	"/>
	<polygon class="st27" points="22,404.3 14.5,400 14.5,397.6 22,401.9 	"/>
	<polygon class="st26" points="22,398.8 13.9,394.1 13.9,391 22,395.7 	"/>
	<polygon class="st27" points="22,398.8 14.5,394.5 14.5,392.1 22,396.4 	"/>
	<polygon class="st26" points="22,393.9 13.9,389.2 13.9,386.1 22,390.8 	"/>
	<polygon class="st27" points="22,393.9 14.5,389.5 14.5,387.1 22,391.5 	"/>
</g>
<g>
	<path class="st31" d="M958.8,354c9.6,5.6,9.6,14.6,0,20.2s-25.4,5.6-35,0s-9.6-14.6,0-20.2C933.5,348.5,949.2,348.5,958.8,354z"/>
	<rect x="916.6" y="318" class="st31" width="49.4" height="46"/>
	<path class="st32" d="M958.8,354c9.6,5.6,9.6,14.6,0,20.2s-25.4,5.6-35,0s-9.6-14.6,0-20.2C933.5,348.4,949.2,348.4,958.8,354z"/>
	<g>
		<path class="st0" d="M960,307.5c10.3,5.9,10.3,15.6,0,21.6s-27.1,5.9-37.3,0c-10.3-5.9-10.3-15.6,0-21.6
			C932.9,301.5,949.7,301.5,960,307.5z"/>
		<rect x="915" y="309.3" class="st0" width="52.7" height="9"/>
		<path class="st24" d="M960,298.5c10.3,5.9,10.3,15.6,0,21.6s-27.1,5.9-37.3,0s-10.3-15.6,0-21.6
			C932.9,292.6,949.7,292.6,960,298.5z"/>
	</g>
	<g>
		<path class="st2" d="M926.1,341v15.3c8.9,4,21.5,4,30.4,0V341C947.6,344.9,935,344.9,926.1,341z"/>
	</g>
</g>
<g>
	<path class="st31" d="M788.9,240.9c9.6,5.6,9.6,14.6,0,20.2s-25.4,5.6-35,0c-9.6-5.6-9.6-14.6,0-20.2
		C763.5,235.4,779.2,235.4,788.9,240.9z"/>
	<rect x="746.7" y="204.9" class="st31" width="49.4" height="46"/>
	<path class="st32" d="M788.9,240.9c9.6,5.6,9.6,14.6,0,20.2s-25.4,5.6-35,0c-9.6-5.6-9.6-14.6,0-20.2
		C763.5,235.3,779.2,235.3,788.9,240.9z"/>
	<g>
		<path class="st0" d="M790,194.4c10.3,5.9,10.3,15.6,0,21.6s-27.1,5.9-37.3,0c-10.3-5.9-10.3-15.6,0-21.6
			C763,188.4,779.8,188.4,790,194.4z"/>
		<rect x="745" y="196.2" class="st0" width="52.7" height="9"/>
		<path class="st24" d="M790,185.4c10.3,5.9,10.3,15.6,0,21.6c-10.3,5.9-27.1,5.9-37.3,0c-10.3-5.9-10.3-15.6,0-21.6
			C763,179.5,779.8,179.5,790,185.4z"/>
	</g>
	<g>
		<path class="st2" d="M756.2,227.9v15.3c8.9,4,21.5,4,30.4,0v-15.3C777.7,231.8,765.1,231.8,756.2,227.9z"/>
	</g>
</g>
<g>
	<path class="st31" d="M731.7,211.7c9.6,5.6,9.6,14.6,0,20.2s-25.4,5.6-35,0c-9.6-5.6-9.6-14.6,0-20.2
		C706.3,206.2,722,206.2,731.7,211.7z"/>
	<rect x="689.4" y="175.7" class="st31" width="49.4" height="46"/>
	<path class="st32" d="M731.7,211.7c9.6,5.6,9.6,14.6,0,20.2s-25.4,5.6-35,0s-9.6-14.6,0-20.2C706.3,206.1,722,206.1,731.7,211.7z"
		/>
	<g>
		<path class="st0" d="M732.8,165.2c10.3,5.9,10.3,15.6,0,21.6s-27.1,5.9-37.3,0c-10.3-5.9-10.3-15.6,0-21.6
			C705.8,159.2,722.6,159.2,732.8,165.2z"/>
		<rect x="687.8" y="167" class="st0" width="52.7" height="9"/>
		<path class="st24" d="M732.8,156.2c10.3,5.9,10.3,15.6,0,21.6c-10.3,5.9-27.1,5.9-37.3,0c-10.3-5.9-10.3-15.6,0-21.6
			S722.6,150.3,732.8,156.2z"/>
	</g>
	<g>
		<path class="st2" d="M699,198.7V214c8.9,4,21.5,4,30.4,0v-15.3C720.5,202.6,707.9,202.6,699,198.7z"/>
	</g>
</g>
<g>
	<path class="st31" d="M1061.9,376.5c9.6,5.6,9.6,14.6,0,20.2s-25.4,5.6-35,0c-9.6-5.6-9.6-14.6,0-20.2
		C1036.5,371,1052.3,371,1061.9,376.5z"/>
	<rect x="1019.7" y="340.4" class="st31" width="49.4" height="46"/>
	<path class="st32" d="M1061.9,376.5c9.6,5.6,9.6,14.6,0,20.2s-25.4,5.6-35,0c-9.6-5.6-9.6-14.6,0-20.2
		C1036.5,370.9,1052.3,370.9,1061.9,376.5z"/>
	<g>
		<path class="st0" d="M1063.1,329.9c10.3,5.9,10.3,15.6,0,21.6c-10.3,5.9-27.1,5.9-37.3,0c-10.3-5.9-10.3-15.6,0-21.6
			C1036,324,1052.8,324,1063.1,329.9z"/>
		<rect x="1018" y="331.8" class="st0" width="52.7" height="9"/>
		<path class="st24" d="M1063.1,321c10.3,5.9,10.3,15.6,0,21.6c-10.3,5.9-27.1,5.9-37.3,0c-10.3-5.9-10.3-15.6,0-21.6
			C1036,315.1,1052.8,315.1,1063.1,321z"/>
	</g>
	<g>
		<path class="st2" d="M1029.2,363.4v15.3c8.9,4,21.5,4,30.4,0v-15.3C1050.7,367.4,1038.1,367.4,1029.2,363.4z"/>
	</g>
</g>
<g>
	<path class="st31" d="M1086.6,413c9.6,5.6,9.6,14.6,0,20.2s-25.4,5.6-35,0c-9.6-5.6-9.6-14.6,0-20.2
		C1061.2,407.5,1077,407.5,1086.6,413z"/>
	<rect x="1044.4" y="376.9" class="st31" width="49.4" height="46"/>
	<path class="st32" d="M1086.6,413c9.6,5.6,9.6,14.6,0,20.2s-25.4,5.6-35,0s-9.6-14.6,0-20.2S1077,407.4,1086.6,413z"/>
	<g>
		<path class="st0" d="M1087.8,366.4c10.3,5.9,10.3,15.6,0,21.6c-10.3,5.9-27.1,5.9-37.3,0c-10.3-5.9-10.3-15.6,0-21.6
			C1060.7,360.5,1077.5,360.5,1087.8,366.4z"/>
		<rect x="1042.7" y="368.3" class="st0" width="52.7" height="9"/>
		<path class="st24" d="M1087.8,357.5c10.3,5.9,10.3,15.6,0,21.6c-10.3,5.9-27.1,5.9-37.3,0c-10.3-5.9-10.3-15.6,0-21.6
			C1060.7,351.5,1077.5,351.5,1087.8,357.5z"/>
	</g>
	<g>
		<path class="st2" d="M1053.9,399.9v15.3c8.9,4,21.5,4,30.4,0v-15.3C1075.4,403.9,1062.8,403.9,1053.9,399.9z"/>
	</g>
</g>
<g>
	<g>
		<path class="st31" d="M1017.4,403.5c9.6,5.6,9.6,14.6,0,20.2s-25.4,5.6-35,0c-9.6-5.6-9.6-14.6,0-20.2
			C992.1,397.9,1007.8,397.9,1017.4,403.5z"/>
		<rect x="975.2" y="367.4" class="st31" width="49.4" height="46"/>
		<path class="st32" d="M1017.4,403.4c9.6,5.6,9.6,14.6,0,20.2c-9.6,5.6-25.4,5.6-35,0c-9.6-5.6-9.6-14.6,0-20.2
			C992.1,397.9,1007.8,397.9,1017.4,403.4z"/>
		<g>
			<path class="st0" d="M1018.6,356.9c10.3,5.9,10.3,15.6,0,21.6c-10.3,5.9-27.1,5.9-37.3,0s-10.3-15.6,0-21.6
				C991.5,351,1008.4,351,1018.6,356.9z"/>
			<rect x="973.6" y="358.7" class="st0" width="52.7" height="9"/>
			<path class="st24" d="M1018.6,347.9c10.3,5.9,10.3,15.6,0,21.6c-10.3,5.9-27.1,5.9-37.3,0c-10.3-5.9-10.3-15.6,0-21.6
				C991.5,342,1008.4,342,1018.6,347.9z"/>
		</g>
	</g>
	<g>
		<path class="st2" d="M984.8,390.4v15.3c8.9,4,21.5,4,30.4,0v-15.3C1006.2,394.4,993.7,394.4,984.8,390.4z"/>
	</g>
</g>
<g>
	<g>
		<path class="st31" d="M620.4,266.3c9.6,5.6,9.6,14.6,0,20.2s-25.4,5.6-35,0c-9.6-5.6-9.6-14.6,0-20.2
			C595,260.8,610.7,260.8,620.4,266.3z"/>
		<rect x="578.1" y="230.2" class="st33" width="49.4" height="46"/>
		<path class="st34" d="M620.4,266.3c9.6,5.6,9.6,14.6,0,20.2s-25.4,5.6-35,0s-9.6-14.6,0-20.2C595,260.7,610.7,260.7,620.4,266.3z"
			/>
		<g>
			<path class="st0" d="M621.5,219.7c10.3,5.9,10.3,15.6,0,21.6s-27.1,5.9-37.3,0c-10.3-5.9-10.3-15.6,0-21.6
				C594.5,213.8,611.3,213.8,621.5,219.7z"/>
			<rect x="576.5" y="221.6" class="st0" width="52.7" height="9"/>
			<path class="st24" d="M621.5,210.8c10.3,5.9,10.3,15.6,0,21.6c-10.3,5.9-27.1,5.9-37.3,0c-10.3-5.9-10.3-15.6,0-21.6
				C594.5,204.9,611.3,204.9,621.5,210.8z"/>
		</g>
		<g>
			<path class="st2" d="M587.7,253.2v15.3c8.9,4,21.5,4,30.4,0v-15.3C609.2,257.2,596.6,257.2,587.7,253.2z"/>
		</g>
	</g>
	<g>
		<polygon class="st35" points="665.2,322.6 644.8,334.4 614,316.7 614,304.9 634.5,304.9 		"/>
		<polygon class="st36" points="662.6,322.1 644.2,332.7 616.7,316.8 616.7,306.2 635.1,306.2 		"/>
		<line class="st37" x1="640.5" y1="312.2" x2="640.5" y2="326.6"/>
		<path class="st37" d="M636.6,318.1c1.2,0.7,1.2,1.8,0,2.5c-1.2,0.7-3.2,0.7-4.4,0c-1.2-0.7-1.2-1.8,0-2.5
			C633.4,317.4,635.4,317.4,636.6,318.1z"/>
		<path class="st37" d="M648.3,318.1c1.2,0.7,1.2,1.8,0,2.5c-1.2,0.7-3.2,0.7-4.4,0s-1.2-1.8,0-2.5S647.1,317.4,648.3,318.1z"/>
		<path class="st37" d="M614,304.9c0,0-6.9,2.5-9.8,0s1.6-4.7,1.9-7.5c0.3-2.8-6.2-6.8-6.2-6.8"/>
	</g>
</g>
<g>
	<polygon class="st35" points="793.1,374.2 772.6,386 741.9,368.3 741.9,356.5 762.4,356.5 	"/>
	<polygon class="st36" points="790.5,373.7 772.1,384.3 744.6,368.4 744.6,357.8 762.9,357.8 	"/>
	<line class="st37" x1="768.4" y1="363.8" x2="768.4" y2="378.2"/>
	<path class="st37" d="M764.5,369.8c1.2,0.7,1.2,1.8,0,2.5c-1.2,0.7-3.2,0.7-4.4,0c-1.2-0.7-1.2-1.8,0-2.5S763.3,369.1,764.5,369.8z
		"/>
	<path class="st37" d="M776.2,369.8c1.2,0.7,1.2,1.8,0,2.5c-1.2,0.7-3.2,0.7-4.4,0c-1.2-0.7-1.2-1.8,0-2.5S775,369.1,776.2,369.8z"
		/>
	<path class="st37" d="M741.9,356.5c0,0-6.9,2.5-9.8,0c-2.9-2.5,1.6-4.7,1.9-7.5s-6.2-6.8-6.2-6.8"/>
</g>
<g>
	<polygon class="st35" points="813.9,352.4 793.5,364.2 762.7,346.5 762.7,334.7 783.2,334.7 	"/>
	<polygon class="st36" points="811.3,351.9 792.9,362.5 765.4,346.6 765.4,336 783.7,336 	"/>
	<line class="st37" x1="789.2" y1="342" x2="789.2" y2="356.4"/>
	<path class="st37" d="M785.3,347.9c1.2,0.7,1.2,1.8,0,2.5c-1.2,0.7-3.2,0.7-4.4,0c-1.2-0.7-1.2-1.8,0-2.5
		C782.1,347.3,784.1,347.3,785.3,347.9z"/>
	<path class="st37" d="M797,347.9c1.2,0.7,1.2,1.8,0,2.5s-3.2,0.7-4.4,0s-1.2-1.8,0-2.5S795.8,347.3,797,347.9z"/>
	<path class="st37" d="M762.7,334.7c0,0-6.9,2.5-9.8,0c-2.9-2.5,1.6-4.7,1.9-7.5c0.3-2.8-6.2-6.8-6.2-6.8"/>
</g>
<g>
	<polygon class="st0" points="1141.1,277.5 1095.9,277.5 1098.1,267.3 1138.8,267.3 	"/>
	<path class="st1" d="M1148.7,292.1L1148.7,292.1c0-4.5-2.9-9-8.8-12.4c-11.8-6.8-31.1-6.8-42.8,0c-5.9,3.4-8.8,7.9-8.8,12.4l0,0
		v49.5l0,0c0,4.5,2.9,9,8.8,12.4c11.8,6.8,31.1,6.8,42.8,0c5.9-3.4,8.8-7.9,8.8-12.4l0,0V292.1z"/>
	<g>
		<path class="st0" d="M1134.5,268.3c8.8,5.1,8.8,13.4,0,18.5c-8.8,5.1-23.2,5.1-32,0c-8.8-5.1-8.8-13.4,0-18.5
			C1110.6,263.6,1126.3,263.6,1134.5,268.3z"/>
		<path class="st0" d="M1134.5,268.3c8.8,5.1,8.8,13.4,0,18.5c-8.8,5.1-23.2,5.1-32,0c-8.8-5.1-8.8-13.4,0-18.5
			C1110.6,263.6,1126.3,263.6,1134.5,268.3z"/>
	</g>
	<g>
		<path class="st2" d="M1132.9,259c7.9,4.6,10.4,12.5,1.6,17.6c-8.8,5.1-23.2,5.1-32,0c-8.8-5.1-6.3-13,1.6-17.6
			C1112,254.4,1125,254.4,1132.9,259z"/>
		<path class="st0" d="M1132.9,259c7.9,4.6,7.9,12.1,0,16.6s-20.9,4.6-28.8,0s-7.9-12.1,0-16.6C1112,254.4,1125,254.4,1132.9,259z"
			/>
	</g>
	<path class="st3" d="M1141.1,304.8c-0.4,0.2-0.8,0.5-1.2,0.7c-11.8,6.8-31.1,6.8-42.8,0c-0.9-0.5-1.6-1-2.4-1.5v25.2
		c0.7,0.5,1.5,1,2.4,1.5c11.8,6.8,31.1,6.8,42.8,0c0.4-0.2,0.8-0.5,1.2-0.7V304.8z"/>
	<g>
		<path class="st4" d="M1098.5,311.4v3.3c10.5,5.3,26,5.7,37.3,1.2v-3.3C1124.5,317.2,1109,316.8,1098.5,311.4z"/>
	</g>
	<g>
		<path class="st4" d="M1098.5,318.5v3.3c10.5,5.3,26,5.7,37.3,1.2v-3.3C1124.5,324.3,1109,323.9,1098.5,318.5z"/>
	</g>
	<g>
		<path class="st4" d="M1098.5,324.3v3.3c10.5,5.3,26,5.7,37.3,1.2v-3.3C1124.5,330,1109,329.6,1098.5,324.3z"/>
	</g>
</g>
<g>
	<polygon class="st0" points="1178.6,333.7 1133.4,333.7 1135.7,323.5 1176.4,323.5 	"/>
	<path class="st1" d="M1186.3,348.2L1186.3,348.2c0-4.5-2.9-9-8.8-12.4c-11.8-6.8-31.1-6.8-42.8,0c-5.9,3.4-8.8,7.9-8.8,12.4l0,0
		v49.5l0,0c0,4.5,2.9,9,8.8,12.4c11.8,6.8,31.1,6.8,42.8,0c5.9-3.4,8.8-7.9,8.8-12.4l0,0V348.2z"/>
	<g>
		<path class="st0" d="M1172,324.4c8.8,5.1,8.8,13.4,0,18.5c-8.8,5.1-23.2,5.1-32,0c-8.8-5.1-8.8-13.4,0-18.5
			C1148.2,319.7,1163.9,319.7,1172,324.4z"/>
		<path class="st0" d="M1172,324.4c8.8,5.1,8.8,13.4,0,18.5c-8.8,5.1-23.2,5.1-32,0c-8.8-5.1-8.8-13.4,0-18.5
			C1148.2,319.7,1163.9,319.7,1172,324.4z"/>
	</g>
	<g>
		<path class="st2" d="M1170.4,315.2c7.9,4.6,10.4,12.5,1.6,17.6c-8.8,5.1-23.2,5.1-32,0c-8.8-5.1-6.3-13,1.6-17.6
			S1162.5,310.6,1170.4,315.2z"/>
		<path class="st0" d="M1170.4,315.2c7.9,4.6,7.9,12.1,0,16.6c-7.9,4.6-20.9,4.6-28.8,0s-7.9-12.1,0-16.6S1162.5,310.6,1170.4,315.2
			z"/>
	</g>
	<path class="st3" d="M1178.6,360.9c-0.4,0.2-0.8,0.5-1.2,0.7c-11.8,6.8-31.1,6.8-42.8,0c-0.9-0.5-1.6-1-2.4-1.5v25.2
		c0.7,0.5,1.5,1,2.4,1.5c11.8,6.8,31.1,6.8,42.8,0c0.4-0.2,0.8-0.5,1.2-0.7V360.9z"/>
	<g>
		<path class="st4" d="M1136,367.6v3.3c10.5,5.3,26,5.7,37.3,1.2v-3.3C1162.1,373.3,1146.5,372.9,1136,367.6z"/>
	</g>
	<g>
		<path class="st4" d="M1136,374.7v3.3c10.5,5.3,26,5.7,37.3,1.2v-3.3C1162.1,380.4,1146.5,380,1136,374.7z"/>
	</g>
	<g>
		<path class="st4" d="M1136,380.4v3.3c10.5,5.3,26,5.7,37.3,1.2v-3.3C1162.1,386.2,1146.5,385.8,1136,380.4z"/>
	</g>
</g>
<g>
	<polygon class="st0" points="1845.7,126.4 1801.6,126.4 1803.8,116.5 1843.5,116.5 	"/>
	<path class="st1" d="M1853.1,140.6L1853.1,140.6c0-4.4-2.9-8.7-8.6-12c-11.5-6.6-30.3-6.6-41.7,0c-5.7,3.3-8.6,7.7-8.6,12l0,0v48.2
		l0,0c0,4.4,2.9,8.7,8.6,12c11.5,6.6,30.3,6.6,41.7,0c5.7-3.3,8.6-7.7,8.6-12l0,0V140.6z"/>
	<g>
		<path class="st0" d="M1839.2,117.4c8.6,5,8.6,13.1,0,18c-8.6,5-22.6,5-31.2,0c-8.6-5-8.6-13.1,0-18
			C1816,112.8,1831.3,112.8,1839.2,117.4z"/>
		<path class="st0" d="M1839.2,117.4c8.6,5,8.6,13.1,0,18c-8.6,5-22.6,5-31.2,0c-8.6-5-8.6-13.1,0-18
			C1816,112.8,1831.3,112.8,1839.2,117.4z"/>
	</g>
	<g>
		<path class="st2" d="M1837.7,108.4c7.7,4.5,10.1,12.2,1.6,17.1s-22.6,5-31.2,0s-6.2-12.7,1.6-17.1S1829.9,103.9,1837.7,108.4z"/>
		<path class="st0" d="M1837.7,108.4c7.7,4.5,7.7,11.8,0,16.2c-7.7,4.5-20.4,4.5-28.1,0s-7.7-11.8,0-16.2S1829.9,103.9,1837.7,108.4
			z"/>
	</g>
	<path class="st3" d="M1845.7,153c-0.4,0.2-0.8,0.5-1.2,0.7c-11.5,6.6-30.3,6.6-41.7,0c-0.8-0.5-1.6-1-2.3-1.5v24.6
		c0.7,0.5,1.5,1,2.3,1.5c11.5,6.6,30.3,6.6,41.7,0c0.4-0.2,0.8-0.5,1.2-0.7V153z"/>
	<g>
		<path class="st4" d="M1804.1,159.5v3.2c10.2,5.2,25.4,5.6,36.3,1.2v-3.2C1829.5,165.1,1814.4,164.7,1804.1,159.5z"/>
	</g>
	<g>
		<path class="st4" d="M1804.1,166.4v3.2c10.2,5.2,25.4,5.6,36.3,1.2v-3.2C1829.5,172,1814.4,171.6,1804.1,166.4z"/>
	</g>
	<g>
		<path class="st4" d="M1804.1,172v3.2c10.2,5.2,25.4,5.6,36.3,1.2v-3.2C1829.5,177.6,1814.4,177.2,1804.1,172z"/>
	</g>
</g>
<g>
	<polygon class="st0" points="1291.1,369.2 1269.1,331 1261.5,337.9 1281.4,372.3 	"/>
	<path class="st1" d="M1307.1,368.6L1307.1,368.6c-3.8,2.2-9,1.9-14.7-1.4c-11.5-6.6-20.9-22.9-20.9-36.1c0-6.6,2.3-11.3,6.1-13.5
		l0,0l41.7-24.1v0c3.8-2.2,9-1.9,14.7,1.4c11.5,6.6,20.9,22.9,20.9,36.1c0,6.6-2.3,11.3-6.1,13.5v0L1307.1,368.6z"/>
	<g>
		<path class="st0" d="M1280.1,368.1c8.6,5,15.6,0.9,15.6-9s-7-22.1-15.6-27c-8.6-5-15.6-0.9-15.6,9
			C1264.5,350.3,1272.1,363.6,1280.1,368.1z"/>
		<path class="st0" d="M1280.1,368.1c8.6,5,15.6,0.9,15.6-9s-7-22.1-15.6-27c-8.6-5-15.6-0.9-15.6,9
			C1264.5,350.3,1272.1,363.6,1280.1,368.1z"/>
	</g>
	<g>
		<path class="st2" d="M1271.5,371.3c7.7,4.5,15.6,2.7,15.6-7.2c0-9.9-7-22.1-15.6-27s-14,1-14,9.9S1263.7,366.8,1271.5,371.3z"/>
		<path class="st0" d="M1271.5,371.3c7.7,4.5,14,0.8,14-8.1s-6.3-19.9-14-24.3c-7.7-4.5-14-0.8-14,8.1S1263.7,366.8,1271.5,371.3z"
			/>
	</g>
	<path class="st3" d="M1314.1,355.9c0-0.4,0-0.9,0-1.4c0-13.3-9.4-29.5-20.9-36.1c-0.8-0.5-1.6-0.9-2.5-1.2l21.3-12.3
		c0.8,0.4,1.6,0.8,2.4,1.2c11.5,6.6,20.9,22.9,20.9,36.1c0,0.5,0,0.9,0,1.4L1314.1,355.9z"/>
	<g>
		<path class="st4" d="M1298.9,316.7l2.8-1.6c9.6,6.3,17.5,19.2,19.2,30.9l-2.8,1.6C1316.5,335.9,1308.6,323,1298.9,316.7z"/>
	</g>
	<g>
		<path class="st4" d="M1304.9,313.3l2.8-1.6c9.6,6.3,17.5,19.2,19.2,30.9l-2.8,1.6C1322.4,332.4,1314.5,319.5,1304.9,313.3z"/>
	</g>
	<g>
		<path class="st4" d="M1309.7,310.5l2.8-1.6c9.6,6.3,17.5,19.2,19.2,30.9l-2.8,1.6C1327.3,329.6,1319.4,316.8,1309.7,310.5z"/>
	</g>
</g>
<g>
	<path class="st38" d="M1781.8,253.7c5.7,3.3,5.7,8.7,0,12c-5.7,3.3-15.1,3.3-20.9,0c-5.7-3.3-5.7-8.7,0-12
		c4.5-2.6,11.4-3.2,16.9-1.6l0,0.8c0,0,2.5,0.8,3.5,1.4C1781.5,254.3,1781.7,253.6,1781.8,253.7z"/>
	<rect x="1756.7" y="259.7" class="st39" width="29.5" height="4.6"/>
	<path class="st40" d="M1765,268.1l16.5-13.9c-1.1-0.6-2.3-1.1-3.6-1.4l-16.5,13.9C1762.5,267.3,1763.7,267.8,1765,268.1z"/>
	<g>
		<path class="st39" d="M1781.8,258.3c-1-0.6-2.2-1.1-3.4-1.5l-13.4,10.5v0.8c-1.3-0.4-2.5-0.8-3.6-1.4l12.8-10.7
			c-4.6-0.5-9.6,0.3-13.1,2.3c-5.7,3.3-5.7,8.7,0,12c5.7,3.3,15.1,3.3,20.9,0C1787.6,267,1787.6,261.6,1781.8,258.3z"/>
	</g>
	<g>
		<path class="st41" d="M1781.4,253.5"/>
		<path class="st41" d="M1765,267.4c5.6,1.9,12.1,1.1,16.9-1.6c5.7-3.3,5.7-8.7,0-12c-0.1-0.1-0.3-0.1-0.4-0.2L1765,267.4z"/>
		<g>
			<path class="st41" d="M1761.4,265.9l16.5-13.9c-5.5-1.5-12.3-1-16.9,1.6c-5.7,3.3-5.7,8.7,0,12L1761.4,265.9z"/>
		</g>
	</g>
	<path class="st39" d="M1761.4,265.9"/>
	<polygon class="st38" points="1761.4,265.9 1761.4,266.7 1777.9,252.8 1777.9,252.1 	"/>
</g>
<g>
	<path class="st38" d="M1375.8,360.5c-3.3,5.7-8.7,5.7-12,0c-3.3-5.7-3.3-15.1,0-20.9c3.3-5.7,8.7-5.7,12,0
		c2.6,4.5,3.2,11.4,1.6,16.9l-0.8,0c0,0-0.8,2.5-1.4,3.5C1375.3,360.2,1375.9,360.4,1375.8,360.5z"/>
	
		<rect x="1352.8" y="347.8" transform="matrix(-1.836970e-016 1 -1 -1.836970e-016 1717.601 -1017.4149)" class="st42" width="29.5" height="4.6"/>
	<path class="st43" d="M1361.4,343.6l13.9,16.5c0.6-1.1,1.1-2.3,1.4-3.6l-13.9-16.5C1362.2,341.1,1361.8,342.3,1361.4,343.6z"/>
	<g>
		<path class="st42" d="M1371.2,360.5c0.6-1,1.1-2.2,1.5-3.4l-10.5-13.4h-0.8c0.4-1.3,0.8-2.5,1.4-3.6l10.7,12.8
			c0.5-4.6-0.3-9.6-2.3-13.1c-3.3-5.7-8.7-5.7-12,0c-3.3,5.7-3.3,15.1,0,20.9C1362.5,366.3,1367.9,366.3,1371.2,360.5z"/>
	</g>
	<path class="st22" d="M1362.2,343.6c-1.9,5.6-1.1,12.1,1.6,16.9c3.3,5.7,8.7,5.7,12,0c0.1-0.1,0.1-0.3,0.2-0.4L1362.2,343.6z"/>
	<g>
		<path class="st22" d="M1363.6,340l13.9,16.5c1.5-5.5,1-12.3-1.6-16.9c-3.3-5.7-8.7-5.7-12,0L1363.6,340z"/>
	</g>
	<path class="st39" d="M1363.6,340"/>
	<polygon class="st44" points="1363.6,340 1362.8,340 1376.7,356.5 1377.5,356.5 	"/>
</g>
<g>
	<rect x="1789.1" y="264.4" class="st39" width="29.5" height="4.6"/>
	<path class="st39" d="M1814.2,263c5.7,3.3,5.7,8.7,0,12c-5.7,3.3-15.1,3.3-20.9,0s-5.7-8.7,0-12S1808.5,259.7,1814.2,263z"/>
	<path class="st41" d="M1814.2,258.4c-5.7-3.3-15.1-3.3-20.9,0c-3.5,2-4.9,4.8-4.1,7.4l26.9-6C1815.7,259.3,1815,258.8,1814.2,258.4
		z"/>
	<path class="st40" d="M1816.2,260.5l-26.9,6c0.3,1.1,1,2.2,2.1,3.2V269l26.9-5.3C1818,262.6,1817.3,261.5,1816.2,260.5z"/>
	<path class="st41" d="M1791.4,269c0.6,0.5,1.2,1,2,1.4c5.7,3.3,15.1,3.3,20.9,0c3.5-2,4.9-4.8,4.1-7.4L1791.4,269z"/>
	<polygon class="st38" points="1789.3,265.8 1789.3,266.6 1816.2,260.5 1816.2,259.8 	"/>
</g>
<g>
	<rect x="1727.2" y="295.4" class="st42" width="29.5" height="4.6"/>
	<path class="st42" d="M1752.4,294c5.7,3.3,5.7,8.7,0,12s-15.1,3.3-20.9,0c-5.7-3.3-5.7-8.7,0-12
		C1737.2,290.6,1746.6,290.6,1752.4,294z"/>
	<path class="st22" d="M1752.4,289.3c-5.7-3.3-15.1-3.3-20.9,0c-3.5,2-4.9,4.8-4.1,7.4l26.9-6
		C1753.8,290.3,1753.1,289.8,1752.4,289.3z"/>
	<path class="st43" d="M1754.3,291.5l-26.9,6c0.3,1.1,1,2.2,2.1,3.2V300l26.9-5.3C1756.1,293.6,1755.4,292.5,1754.3,291.5z"/>
	<path class="st22" d="M1729.5,300c0.6,0.5,1.2,1,2,1.4c5.7,3.3,15.1,3.3,20.9,0c3.5-2,4.9-4.8,4.1-7.4L1729.5,300z"/>
	<polygon class="st44" points="1727.4,296.8 1727.4,297.6 1754.3,291.5 1754.3,290.8 	"/>
</g>
<g>
	<rect x="1798.8" y="208.5" class="st36" width="3.9" height="29.5"/>
	<path class="st36" d="M1796.7,233.6c3.3,5.7,8.7,5.7,12,0c3.3-5.7,3.3-15.1,0-20.9c-3.3-5.7-8.7-5.7-12,0
		C1793.4,218.5,1793.4,227.9,1796.7,233.6z"/>
	<path class="st35" d="M1792.1,233.6c-3.3-5.7-3.3-15.1,0-20.9c1.2-2.1,2.7-3.4,4.2-4v28.8C1794.8,237,1793.3,235.7,1792.1,233.6z"
		/>
	<path class="st45" d="M1797,237.6v-28.8c1.2-0.4,2.4-0.4,3.6,0l-0.7,0v28.8l0.7,0C1799.4,238,1798.2,238,1797,237.6z"/>
	<path class="st35" d="M1804.2,212.8c3.3,5.7,3.3,15.1,0,20.9c-1.2,2.1-2.7,3.4-4.2,4v-28.8C1801.5,209.4,1803,210.7,1804.2,212.8z"
		/>
	<rect x="1796.4" y="208.8" class="st46" width="0.7" height="28.8"/>
</g>
<g>
	<rect x="1683.8" y="300.1" class="st39" width="29.5" height="3.9"/>
	<path class="st39" d="M1709,298.1c5.7,3.3,5.7,8.7,0,12s-15.1,3.3-20.9,0c-5.7-3.3-5.7-8.7,0-12
		C1693.9,294.7,1703.3,294.7,1709,298.1z"/>
	<path class="st41" d="M1709,293.4c-5.7-3.3-15.1-3.3-20.9,0c-2.1,1.2-3.4,2.7-4,4.2h28.8C1712.4,296.1,1711.1,294.6,1709,293.4z"/>
	<path class="st40" d="M1713,298.3h-28.8c-0.4,1.2-0.4,2.4,0,3.6l0-0.7h28.8v0.7C1713.4,300.7,1713.4,299.5,1713,298.3z"/>
	<path class="st41" d="M1688.2,305.5c5.7,3.3,15.1,3.3,20.9,0c2.1-1.2,3.4-2.7,4-4.2h-28.8C1684.7,302.8,1686.1,304.3,1688.2,305.5z
		"/>
	<rect x="1684.2" y="297.7" class="st38" width="28.8" height="0.7"/>
</g>
<g>
	<rect x="1784.5" y="210.5" class="st36" width="3.9" height="29.5"/>
	<path class="st36" d="M1782.4,235.7c3.3,5.7,8.7,5.7,12,0s3.3-15.1,0-20.9s-8.7-5.7-12,0C1779.1,220.5,1779.1,229.9,1782.4,235.7z"
		/>
	<path class="st35" d="M1777.8,235.7c-3.3-5.7-3.3-15.1,0-20.9c1.2-2.1,2.7-3.4,4.2-4v28.8C1780.5,239.1,1779,237.7,1777.8,235.7z"
		/>
	<path class="st45" d="M1782.7,239.6v-28.8c1.2-0.4,2.4-0.4,3.6,0l-0.7,0v28.8l0.7,0C1785.1,240.1,1783.9,240.1,1782.7,239.6z"/>
	<path class="st35" d="M1789.9,214.8c3.3,5.7,3.3,15.1,0,20.9c-1.2,2.1-2.7,3.4-4.2,4v-28.8C1787.2,211.4,1788.7,212.7,1789.9,214.8
		z"/>
	<rect x="1782.1" y="210.8" class="st46" width="0.7" height="28.8"/>
</g>
<g>
	<g>
		<path class="st2" d="M1491.3,353.2c-8.6,5-22.6,5-31.2,0l-38-21.9c-8.6-4.9-8.6-13,0-18l8.8-5.1c8.6-4.9,22.6-5,31.2,0l38,21.9
			c8.6,4.9,8.6,13,0,18L1491.3,353.2z"/>
	</g>
	<path class="st38" d="M1436.1,317.6c3.1,1.8,3.1,4.7,0,6.5c-3.1,1.8-8.2,1.8-11.3,0s-3.1-4.7,0-6.5c2.5-1.4,6.1-1.7,9.1-0.9l0,0.4
		c0,0,1.3,0.4,1.9,0.7C1436,317.9,1436.1,317.6,1436.1,317.6z"/>
	<rect x="1422.6" y="320.8" class="st39" width="15.9" height="2.5"/>
	<path class="st40" d="M1427,325.4l8.9-7.5c-0.6-0.3-1.2-0.6-1.9-0.8l-8.9,7.5C1425.7,324.9,1426.3,325.2,1427,325.4z"/>
	<g>
		<path class="st39" d="M1436.1,320.1c-0.6-0.3-1.2-0.6-1.9-0.8l-7.2,5.7v0.4c-0.7-0.2-1.4-0.5-1.9-0.8l6.9-5.8
			c-2.5-0.3-5.2,0.2-7.1,1.3c-3.1,1.8-3.1,4.7,0,6.5c3.1,1.8,8.2,1.8,11.3,0C1439.2,324.8,1439.2,321.9,1436.1,320.1z"/>
	</g>
	<g>
		<path class="st41" d="M1435.9,317.5"/>
		<path class="st41" d="M1427,325c3,1,6.5,0.6,9.1-0.9c3.1-1.8,3.1-4.7,0-6.5c-0.1,0-0.1-0.1-0.2-0.1L1427,325z"/>
		<g>
			<path class="st41" d="M1425.1,324.2l8.9-7.5c-3-0.8-6.7-0.5-9.1,0.9c-3.1,1.8-3.1,4.7,0,6.5L1425.1,324.2z"/>
		</g>
	</g>
	<path class="st39" d="M1425.1,324.2"/>
	<polygon class="st38" points="1425.1,324.2 1425.1,324.6 1434,317.1 1434,316.7 	"/>
	<g class="st47">
		<path class="st48" d="M1437.5,327.6c-3.8,2.2-10.1,2.2-13.9,0c-3.8-2.2-3.8-5.8,0-8c3.8-2.2,10.1-2.2,13.9,0
			S1441.3,325.4,1437.5,327.6z"/>
		<polygon class="st48" points="1440.1,322.4 1420.9,322.6 1421.9,319.4 1439.1,319.3 		"/>
		<path class="st49" d="M1436.8,324.1c-3.4,2-9.1,2-12.5,0c-3.4-2-3.4-5.2,0-7.2c3.4-2,9.1-2,12.5,0
			C1440.2,318.9,1440.2,322.1,1436.8,324.1z"/>
	</g>
	<path class="st38" d="M1454.2,307.1c3.1,1.8,3.1,4.7,0,6.5s-8.2,1.8-11.3,0c-3.1-1.8-3.1-4.7,0-6.5c2.5-1.4,6.1-1.7,9.1-0.9l0,0.4
		c0,0,1.3,0.4,1.9,0.7C1454.1,307.4,1454.2,307.1,1454.2,307.1z"/>
	<rect x="1440.7" y="310.4" class="st39" width="15.9" height="2.5"/>
	<path class="st40" d="M1445.1,314.9l8.9-7.5c-0.6-0.3-1.2-0.6-1.9-0.8l-8.9,7.5C1443.8,314.4,1444.4,314.7,1445.1,314.9z"/>
	<g>
		<path class="st39" d="M1454.2,309.6c-0.6-0.3-1.2-0.6-1.9-0.8l-7.2,5.7v0.4c-0.7-0.2-1.4-0.5-1.9-0.8l6.9-5.8
			c-2.5-0.3-5.2,0.2-7.1,1.3c-3.1,1.8-3.1,4.7,0,6.5s8.2,1.8,11.3,0C1457.3,314.3,1457.3,311.4,1454.2,309.6z"/>
	</g>
	<g>
		<path class="st41" d="M1454,307"/>
		<path class="st41" d="M1445.1,314.5c3,1,6.5,0.6,9.1-0.9c3.1-1.8,3.1-4.7,0-6.5c-0.1,0-0.1-0.1-0.2-0.1L1445.1,314.5z"/>
		<g>
			<path class="st41" d="M1443.2,313.7l8.9-7.5c-3-0.8-6.7-0.5-9.1,0.9c-3.1,1.8-3.1,4.7,0,6.5L1443.2,313.7z"/>
		</g>
	</g>
	<path class="st39" d="M1443.2,313.7"/>
	<polygon class="st38" points="1443.2,313.7 1443.2,314.1 1452.1,306.6 1452.1,306.2 	"/>
	<g class="st47">
		<path class="st48" d="M1455.6,317.1c-3.8,2.2-10.1,2.2-13.9,0c-3.8-2.2-3.8-5.8,0-8c3.8-2.2,10.1-2.2,13.9,0
			S1459.4,314.9,1455.6,317.1z"/>
		<polygon class="st48" points="1458.2,311.9 1438.9,312.1 1440,308.9 1457.2,308.8 		"/>
		<path class="st49" d="M1454.9,313.6c-3.4,2-9.1,2-12.5,0c-3.4-2-3.4-5.2,0-7.2c3.4-2,9.1-2,12.5,0S1458.3,311.6,1454.9,313.6z"/>
	</g>
	<path class="st38" d="M1479.7,342.2c3.1,1.8,3.1,4.7,0,6.5c-3.1,1.8-8.2,1.8-11.3,0c-3.1-1.8-3.1-4.7,0-6.5
		c2.5-1.4,6.1-1.7,9.1-0.9l0,0.4c0,0,1.3,0.4,1.9,0.7C1479.6,342.5,1479.7,342.1,1479.7,342.2z"/>
	<rect x="1466.2" y="345.4" class="st39" width="15.9" height="2.5"/>
	<path class="st40" d="M1470.6,349.9l8.9-7.5c-0.6-0.3-1.2-0.6-1.9-0.8l-8.9,7.5C1469.3,349.5,1469.9,349.7,1470.6,349.9z"/>
	<g>
		<path class="st39" d="M1479.7,344.6c-0.6-0.3-1.2-0.6-1.9-0.8l-7.2,5.7v0.4c-0.7-0.2-1.4-0.5-1.9-0.8l6.9-5.8
			c-2.5-0.3-5.2,0.2-7.1,1.3c-3.1,1.8-3.1,4.7,0,6.5c3.1,1.8,8.2,1.8,11.3,0C1482.8,349.4,1482.8,346.4,1479.7,344.6z"/>
	</g>
	<g>
		<path class="st41" d="M1479.5,342"/>
		<path class="st41" d="M1470.6,349.5c3,1,6.5,0.6,9.1-0.9c3.1-1.8,3.1-4.7,0-6.5c-0.1,0-0.1-0.1-0.2-0.1L1470.6,349.5z"/>
		<g>
			<path class="st41" d="M1468.7,348.8l8.9-7.5c-3-0.8-6.7-0.5-9.1,0.9c-3.1,1.8-3.1,4.7,0,6.5L1468.7,348.8z"/>
		</g>
	</g>
	<polygon class="st38" points="1468.7,348.8 1468.7,349.2 1477.6,341.7 1477.6,341.3 	"/>
	<g class="st47">
		<path class="st48" d="M1481.1,352.1c-3.8,2.2-10.1,2.2-13.9,0c-3.8-2.2-3.8-5.8,0-8c3.8-2.2,10.1-2.2,13.9,0
			C1484.9,346.3,1484.9,349.9,1481.1,352.1z"/>
		<polygon class="st48" points="1483.7,347 1464.4,347.1 1465.5,344 1482.7,343.9 		"/>
		<path class="st49" d="M1480.4,348.7c-3.4,2-9.1,2-12.5,0s-3.4-5.2,0-7.2s9.1-2,12.5,0S1483.8,346.7,1480.4,348.7z"/>
	</g>
	<path class="st38" d="M1497.8,331.7c3.1,1.8,3.1,4.7,0,6.5c-3.1,1.8-8.2,1.8-11.3,0c-3.1-1.8-3.1-4.7,0-6.5
		c2.5-1.4,6.1-1.7,9.1-0.9l0,0.4c0,0,1.3,0.4,1.9,0.7C1497.6,332,1497.8,331.6,1497.8,331.7z"/>
	<rect x="1484.2" y="336.3" class="st39" width="15.9" height="2.5"/>
	<path class="st40" d="M1488.7,339.5l8.9-7.5c-0.6-0.3-1.2-0.6-1.9-0.8l-8.9,7.5C1487.4,339,1488,339.3,1488.7,339.5z"/>
	<g>
		<path class="st39" d="M1497.8,334.2c-0.6-0.3-1.2-0.6-1.9-0.8l-7.2,5.7v0.4c-0.7-0.2-1.4-0.5-1.9-0.8l6.9-5.8
			c-2.5-0.3-5.2,0.2-7.1,1.3c-3.1,1.8-3.1,4.7,0,6.5c3.1,1.8,8.2,1.8,11.3,0S1500.9,335.9,1497.8,334.2z"/>
	</g>
	<g>
		<path class="st41" d="M1497.6,331.6"/>
		<path class="st41" d="M1488.7,339c3,1,6.5,0.6,9.1-0.9c3.1-1.8,3.1-4.7,0-6.5c-0.1,0-0.1-0.1-0.2-0.1L1488.7,339z"/>
		<g>
			<path class="st41" d="M1486.8,338.3l8.9-7.5c-3-0.8-6.7-0.5-9.1,0.9c-3.1,1.8-3.1,4.7,0,6.5L1486.8,338.3z"/>
		</g>
	</g>
	<path class="st39" d="M1486.8,338.3"/>
	<polygon class="st38" points="1486.8,338.3 1486.8,338.7 1495.7,331.2 1495.7,330.8 	"/>
	<g class="st47">
		<path class="st48" d="M1499.1,341.7c-3.8,2.2-10.1,2.2-13.9,0c-3.8-2.2-3.8-5.8,0-8c3.8-2.2,10.1-2.2,13.9,0
			C1503,335.8,1503,339.4,1499.1,341.7z"/>
		<polygon class="st48" points="1501.8,336.5 1482.5,336.6 1483.6,333.5 1500.8,333.4 		"/>
		<path class="st49" d="M1498.4,338.2c-3.4,2-9.1,2-12.5,0c-3.4-2-3.4-5.2,0-7.2c3.4-2,9.1-2,12.5,0S1501.9,336.2,1498.4,338.2z"/>
	</g>
	<path class="st38" d="M1457.2,329.8c3.1,1.8,3.1,4.7,0,6.5c-3.1,1.8-8.2,1.8-11.3,0c-3.1-1.8-3.1-4.7,0-6.5
		c2.5-1.4,6.1-1.7,9.1-0.9l0,0.4c0,0,1.3,0.4,1.9,0.7C1457,330.1,1457.2,329.7,1457.2,329.8z"/>
	<rect x="1443.6" y="333" class="st39" width="15.9" height="2.5"/>
	<path class="st40" d="M1448.1,337.5l8.9-7.5c-0.6-0.3-1.2-0.6-1.9-0.8l-8.9,7.5C1446.8,337.1,1447.4,337.3,1448.1,337.5z"/>
	<g>
		<path class="st39" d="M1457.2,332.2c-0.6-0.3-1.2-0.6-1.9-0.8l-7.2,5.7v0.4c-0.7-0.2-1.4-0.5-1.9-0.8l6.9-5.8
			c-2.5-0.3-5.2,0.2-7.1,1.3c-3.1,1.8-3.1,4.7,0,6.5c3.1,1.8,8.2,1.8,11.3,0S1460.3,334,1457.2,332.2z"/>
	</g>
	<g>
		<path class="st41" d="M1457,329.6"/>
		<path class="st41" d="M1448.1,337.1c3,1,6.5,0.6,9.1-0.9c3.1-1.8,3.1-4.7,0-6.5c-0.1,0-0.1-0.1-0.2-0.1L1448.1,337.1z"/>
		<g>
			<path class="st41" d="M1446.2,336.4l8.9-7.5c-3-0.8-6.7-0.5-9.1,0.9c-3.1,1.8-3.1,4.7,0,6.5L1446.2,336.4z"/>
		</g>
	</g>
	<path class="st39" d="M1446.2,336.4"/>
	<polygon class="st38" points="1446.2,336.4 1446.2,336.8 1455.1,329.3 1455.1,328.9 	"/>
	<g class="st47">
		<path class="st48" d="M1458.5,339.7c-3.8,2.2-10.1,2.2-13.9,0c-3.8-2.2-3.8-5.8,0-8c3.8-2.2,10.1-2.2,13.9,0
			C1462.4,333.9,1462.4,337.5,1458.5,339.7z"/>
		<polygon class="st48" points="1461.2,334.6 1441.9,334.7 1443,331.5 1460.2,331.5 		"/>
		<path class="st49" d="M1457.8,336.3c-3.4,2-9.1,2-12.5,0c-3.4-2-3.4-5.2,0-7.2s9.1-2,12.5,0S1461.3,334.3,1457.8,336.3z"/>
	</g>
	<path class="st38" d="M1475.3,319.3c3.1,1.8,3.1,4.7,0,6.5c-3.1,1.8-8.2,1.8-11.3,0c-3.1-1.8-3.1-4.7,0-6.5
		c2.5-1.4,6.1-1.7,9.1-0.9l0,0.4c0,0,1.3,0.4,1.9,0.7C1475.1,319.6,1475.2,319.2,1475.3,319.3z"/>
	<rect x="1461.7" y="322.5" class="st39" width="15.9" height="2.5"/>
	<path class="st40" d="M1466.2,327.1l8.9-7.5c-0.6-0.3-1.2-0.6-1.9-0.8l-8.9,7.5C1464.8,326.6,1465.5,326.9,1466.2,327.1z"/>
	<g>
		<path class="st39" d="M1475.3,321.8c-0.6-0.3-1.2-0.6-1.9-0.8l-7.2,5.7v0.4c-0.7-0.2-1.4-0.5-1.9-0.8l6.9-5.8
			c-2.5-0.3-5.2,0.2-7.1,1.3c-3.1,1.8-3.1,4.7,0,6.5c3.1,1.8,8.2,1.8,11.3,0S1478.4,323.5,1475.3,321.8z"/>
	</g>
	<g>
		<path class="st41" d="M1475.1,319.1"/>
		<path class="st41" d="M1466.2,326.6c3,1,6.5,0.6,9.1-0.9c3.1-1.8,3.1-4.7,0-6.5c-0.1,0-0.1-0.1-0.2-0.1L1466.2,326.6z"/>
		<g>
			<path class="st41" d="M1464.3,325.9l8.9-7.5c-3-0.8-6.7-0.5-9.1,0.9c-3.1,1.8-3.1,4.7,0,6.5L1464.3,325.9z"/>
		</g>
	</g>
	<path class="st39" d="M1464.3,325.9"/>
	<polygon class="st38" points="1464.3,325.9 1464.3,326.3 1473.2,318.8 1473.2,318.4 	"/>
	<g class="st47">
		<path class="st48" d="M1476.6,329.2c-3.8,2.2-10.1,2.2-13.9,0c-3.8-2.2-3.8-5.8,0-8c3.8-2.2,10.1-2.2,13.9,0
			C1480.4,323.4,1480.4,327,1476.6,329.2z"/>
		<polygon class="st48" points="1479.3,324.1 1460,324.2 1461.1,321.1 1478.3,321 		"/>
		<path class="st49" d="M1475.9,325.8c-3.4,2-9.1,2-12.5,0c-3.4-2-3.4-5.2,0-7.2c3.4-2,9.1-2,12.5,0S1479.4,323.8,1475.9,325.8z"/>
	</g>
</g>
<g>
	<path class="st31" d="M1873.3,209.1c-11.5,6.6-20.9,1.2-20.9-12c0-13.3,9.4-29.5,20.9-36.1c11.5-6.6,20.9-1.2,20.9,12
		S1884.8,202.5,1873.3,209.1z"/>
	
		<rect x="1867.8" y="171.4" transform="matrix(-0.5 0.866 -0.866 -0.5 3018.1826 -1344.786)" class="st31" width="59" height="54.9"/>
	<path class="st32" d="M1873.4,209.2c-11.5,6.6-20.9,1.2-20.9-12c0-13.3,9.4-29.5,20.9-36.1s20.9-1.2,20.9,12
		C1894.3,186.3,1884.9,202.6,1873.4,209.2z"/>
	<g>
		<path class="st0" d="M1920.8,238.1c-12.2,7.1-22.3,1.3-22.3-12.9c0-14.1,10-31.5,22.3-38.6c12.2-7.1,22.3-1.3,22.3,12.9
			C1943,213.7,1933,231.1,1920.8,238.1z"/>
		
			<rect x="1893.9" y="209.8" transform="matrix(-0.5 0.866 -0.866 -0.5 3074.3677 -1344.786)" class="st0" width="62.9" height="10.7"/>
		<path class="st24" d="M1930,243.5c-12.2,7.1-22.3,1.3-22.3-12.9c0-14.1,10-31.5,22.3-38.6c12.2-7.1,22.3-1.3,22.3,12.9
			C1952.3,219.1,1942.3,236.4,1930,243.5z"/>
	</g>
	<g>
		<path class="st2" d="M1906.4,183.2l-15.8-9.1c-9.4,6.8-16.9,19.8-18.1,31.4l15.8,9.1C1889.4,203,1896.9,190,1906.4,183.2z"/>
	</g>
</g>
<g>
	<path class="st31" d="M1863.3,233c11.5,6.6,11.5,17.5,0,24.1c-11.5,6.6-30.3,6.6-41.7,0c-11.5-6.6-11.5-17.5,0-24.1
		C1833.1,226.4,1851.8,226.4,1863.3,233z"/>
	<rect x="1813" y="190" class="st31" width="59" height="54.9"/>
	<path class="st32" d="M1863.3,232.9c11.5,6.6,11.5,17.5,0,24.1c-11.5,6.6-30.3,6.6-41.7,0c-11.5-6.6-11.5-17.5,0-24.1
		C1833.1,226.3,1851.8,226.3,1863.3,232.9z"/>
	<g>
		<path class="st0" d="M1864.7,177.4c12.2,7.1,12.2,18.6,0,25.7c-12.2,7.1-32.3,7.1-44.5,0c-12.2-7.1-12.2-18.6,0-25.7
			C1832.4,170.4,1852.5,170.4,1864.7,177.4z"/>
		<rect x="1811" y="179.6" class="st0" width="62.9" height="10.7"/>
		<path class="st24" d="M1864.7,166.8c12.2,7.1,12.2,18.6,0,25.7c-12.2,7.1-32.3,7.1-44.5,0c-12.2-7.1-12.2-18.6,0-25.7
			C1832.4,159.7,1852.5,159.7,1864.7,166.8z"/>
	</g>
	<g>
		<path class="st2" d="M1824.3,217.4v18.3c10.6,4.8,25.6,4.8,36.2,0v-18.3C1850,222.2,1834.9,222.2,1824.3,217.4z"/>
	</g>
</g>
<g>
	<rect x="1365.1" y="462.6" class="st36" width="29.4" height="4.6"/>
	<g>
		<path class="st38" d="M1248,413.2c-3.3,5.7-8.7,5.7-12,0c-3.3-5.7-3.3-15.1,0-20.8c3.3-5.7,8.7-5.7,12,0
			c2.6,4.5,3.2,11.4,1.6,16.8l-0.8,0c0,0-0.8,2.5-1.4,3.5C1247.4,412.8,1248,413,1248,413.2z"/>
		
			<rect x="1225" y="400.5" transform="matrix(-1.836970e-016 1 -1 -1.836970e-016 1642.4203 -836.9105)" class="st39" width="29.4" height="4.6"/>
		<path class="st40" d="M1233.6,396.3l13.8,16.4c0.6-1.1,1.1-2.3,1.4-3.6l-13.8-16.4C1234.4,393.8,1233.9,395,1233.6,396.3z"/>
		<g>
			<path class="st39" d="M1243.4,413.2c0.6-1,1.1-2.2,1.5-3.4l-10.5-13.4h-0.8c0.4-1.3,0.8-2.5,1.4-3.6l10.7,12.7
				c0.5-4.6-0.3-9.6-2.3-13.1c-3.3-5.7-8.7-5.7-12,0s-3.3,15.1,0,20.8C1234.7,418.9,1240.1,418.9,1243.4,413.2z"/>
		</g>
		<g>
			<path class="st41" d="M1248.2,412.7"/>
			<path class="st41" d="M1234.3,396.3c-1.9,5.6-1.1,12,1.6,16.8c3.3,5.7,8.7,5.7,12,0c0.1-0.1,0.1-0.3,0.2-0.4L1234.3,396.3z"/>
			<g>
				<path class="st41" d="M1235.8,392.7l13.8,16.4c1.5-5.5,1-12.3-1.6-16.8c-3.3-5.7-8.7-5.7-12,0L1235.8,392.7z"/>
			</g>
		</g>
		<path class="st39" d="M1235.8,392.7"/>
		<polygon class="st38" points="1235.8,392.7 1235,392.7 1248.8,409.2 1249.6,409.2 		"/>
	</g>
	<path class="st39" d="M1265.7,435"/>
	<path class="st36" d="M1390.2,461.2c5.7,3.3,5.7,8.7,0,12c-5.7,3.3-15.1,3.3-20.8,0c-5.7-3.3-5.7-8.7,0-12
		S1384.5,457.8,1390.2,461.2z"/>
	<path class="st35" d="M1369.4,456.6c-5.7,3.3-5.7,8.7,0,12c1.4,0.8,3.1,1.5,4.9,1.9l7.3-16.3
		C1377.3,453.8,1372.7,454.6,1369.4,456.6z"/>
	<path class="st45" d="M1381.6,454.9l-7.3,16.3c1.2,0.3,2.4,0.4,3.7,0.5V471l7.3-15.5C1384.1,455.2,1382.9,455,1381.6,454.9z"/>
	<rect x="1391.6" y="440.8" class="st36" width="29.4" height="4.6"/>
	<path class="st36" d="M1416.7,439.4c5.7,3.3,5.7,8.7,0,12c-5.7,3.3-15.1,3.3-20.8,0c-5.7-3.3-5.7-8.7,0-12
		C1401.6,436.1,1410.9,436.1,1416.7,439.4z"/>
	<path class="st35" d="M1416.7,434.8c-5.7-3.3-15.1-3.3-20.8,0c-3.5,2-4.8,4.8-4.1,7.4l26.8-6
		C1418.1,435.7,1417.4,435.3,1416.7,434.8z"/>
	<path class="st45" d="M1418.6,437l-26.8,6c0.3,1.1,1,2.2,2.1,3.2v-0.8l26.8-5.3C1420.4,439.1,1419.7,438,1418.6,437z"/>
	<path class="st35" d="M1390.2,456.6c-1.4-0.8-3.1-1.5-4.9-1.9L1378,471c4.3,0.3,8.9-0.5,12.2-2.4
		C1395.9,465.3,1395.9,459.9,1390.2,456.6z"/>
	<polygon class="st46" points="1381.6,454.1 1381.6,454.9 1374.4,471.2 1374.4,470.4 	"/>
	<g>
		<rect x="1265.9" y="402.1" class="st42" width="29.4" height="4.6"/>
		<path class="st42" d="M1291,400.7c5.7,3.3,5.7,8.7,0,12c-5.7,3.3-15.1,3.3-20.8,0c-5.7-3.3-5.7-8.7,0-12
			C1275.9,397.4,1285.2,397.4,1291,400.7z"/>
		<path class="st22" d="M1270.2,396.1c-5.7,3.3-5.7,8.7,0,12c1.4,0.8,3.1,1.5,4.9,1.9l7.3-16.3
			C1278,393.3,1273.5,394.1,1270.2,396.1z"/>
		<path class="st43" d="M1282.4,394.4l-7.3,16.3c1.2,0.3,2.4,0.4,3.7,0.5v-0.8l7.3-15.5C1284.9,394.7,1283.6,394.5,1282.4,394.4z"/>
		<path class="st22" d="M1291,396.1c-1.4-0.8-3.1-1.5-4.9-1.9l-7.3,16.3c4.3,0.3,8.9-0.5,12.2-2.4
			C1296.7,404.8,1296.7,399.4,1291,396.1z"/>
		<polygon class="st44" points="1282.4,393.7 1282.4,394.4 1275.1,410.7 1275.1,409.9 		"/>
	</g>
	<g>
		<rect x="1265.9" y="440" class="st39" width="29.4" height="4.6"/>
		<path class="st39" d="M1291,438.5c5.7,3.3,5.7,8.7,0,12c-5.7,3.3-15.1,3.3-20.8,0c-5.7-3.3-5.7-8.7,0-12
			C1275.9,435.2,1285.2,435.2,1291,438.5z"/>
		<path class="st41" d="M1270.2,433.9c-5.7,3.3-5.7,8.7,0,12c1.4,0.8,3.1,1.5,4.9,1.9l7.3-16.3C1278,431.2,1273.5,432,1270.2,433.9z
			"/>
		<path class="st40" d="M1282.4,432.3l-7.3,16.3c1.2,0.3,2.4,0.4,3.7,0.5v-0.8l7.3-15.5C1284.9,432.6,1283.6,432.4,1282.4,432.3z"/>
		<path class="st41" d="M1291,433.9c-1.4-0.8-3.1-1.5-4.9-1.9l-7.3,16.3c4.3,0.3,8.9-0.5,12.2-2.4
			C1296.7,442.7,1296.7,437.3,1291,433.9z"/>
		<polygon class="st38" points="1282.4,431.5 1282.4,432.3 1275.1,448.6 1275.1,447.8 		"/>
	</g>
	<path class="st35" d="M1393.9,445.4c0.6,0.5,1.2,1,2,1.4c5.7,3.3,15.1,3.3,20.8,0c3.5-2,4.8-4.8,4.1-7.4L1393.9,445.4z"/>
	<polygon class="st46" points="1391.8,442.3 1391.8,443 1418.6,437 1418.6,436.2 	"/>
	<g>
		<rect x="1304.3" y="401.3" class="st50" width="29.4" height="4.6"/>
		<path class="st50" d="M1329.4,399.9c5.7,3.3,5.7,8.7,0,12c-5.7,3.3-15.1,3.3-20.8,0c-5.7-3.3-5.7-8.7,0-12
			S1323.7,396.6,1329.4,399.9z"/>
		<path class="st51" d="M1329.4,395.3c-5.7-3.3-15.1-3.3-20.8,0c-3.5,2-4.8,4.8-4.1,7.4l26.8-6
			C1330.8,396.2,1330.2,395.7,1329.4,395.3z"/>
		<path class="st52" d="M1331.4,397.5l-26.8,6c0.3,1.1,1,2.2,2.1,3.2v-0.8l26.8-5.3C1333.2,399.5,1332.5,398.5,1331.4,397.5z"/>
		<path class="st51" d="M1306.7,405.9c0.6,0.5,1.2,1,2,1.4c5.7,3.3,15.1,3.3,20.8,0c3.5-2,4.8-4.8,4.1-7.4L1306.7,405.9z"/>
		<polygon class="st53" points="1304.6,402.7 1304.6,403.5 1331.4,397.5 1331.4,396.7 		"/>
	</g>
	
		<rect x="1433.4" y="438.5" transform="matrix(-1.351170e-010 1 -1 -1.351170e-010 1888.9441 -1007.2725)" class="st36" width="29.4" height="4.6"/>
	<path class="st36" d="M1444.4,451.2c3.3,5.7,8.7,5.7,12,0c3.3-5.7,3.3-15.1,0-20.8c-3.3-5.7-8.7-5.7-12,0
		C1441.1,436.2,1441.1,445.5,1444.4,451.2z"/>
	<path class="st35" d="M1439.8,451.2c-3.3-5.7-3.3-15.1,0-20.8c2-3.5,4.8-4.8,7.4-4.1l-6,26.8C1440.7,452.6,1440.2,452,1439.8,451.2
		z"/>
	<path class="st45" d="M1442,453.2l6-26.8c1.1,0.3,2.2,1,3.2,2.1h-0.8l-5.3,26.8C1444,455,1443,454.3,1442,453.2z"/>
	<path class="st35" d="M1450.4,428.5c0.5,0.6,1,1.2,1.4,2c3.3,5.7,3.3,15.1,0,20.8c-2,3.5-4.8,4.8-7.4,4.1L1450.4,428.5z"/>
	<polygon class="st46" points="1447.2,426.4 1448,426.4 1442,453.2 1441.2,453.2 	"/>
	<g>
		<rect x="1343.8" y="428" class="st50" width="29.4" height="3.9"/>
		<path class="st50" d="M1368.9,426c5.7,3.3,5.7,8.7,0,12c-5.7,3.3-15.1,3.3-20.8,0c-5.7-3.3-5.7-8.7,0-12
			C1353.8,422.7,1363.2,422.7,1368.9,426z"/>
		<path class="st51" d="M1368.9,421.4c-5.7-3.3-15.1-3.3-20.8,0c-2.1,1.2-3.4,2.7-4,4.2h28.7C1372.3,424.1,1371,422.6,1368.9,421.4z
			"/>
		<path class="st52" d="M1372.9,426.3h-28.7c-0.4,1.2-0.4,2.4,0,3.6l0-0.7h28.7v0.7C1373.3,428.7,1373.3,427.4,1372.9,426.3z"/>
		<path class="st51" d="M1348.1,433.4c5.7,3.3,15.1,3.3,20.8,0c2.1-1.2,3.4-2.7,4-4.2h-28.7C1344.7,430.7,1346,432.2,1348.1,433.4z"
			/>
		<rect x="1344.1" y="425.6" class="st53" width="28.7" height="0.7"/>
	</g>
	<g>
		<rect x="1345.1" y="401.2" class="st36" width="29.4" height="3.9"/>
		<path class="st36" d="M1370.2,399.1c5.7,3.3,5.7,8.7,0,12c-5.7,3.3-15.1,3.3-20.8,0c-5.7-3.3-5.7-8.7,0-12
			C1355.1,395.8,1364.5,395.8,1370.2,399.1z"/>
		<path class="st35" d="M1370.2,394.5c-5.7-3.3-15.1-3.3-20.8,0c-2.1,1.2-3.4,2.7-4,4.2h28.7
			C1373.6,397.2,1372.3,395.7,1370.2,394.5z"/>
		<path class="st45" d="M1374.2,399.4h-28.7c-0.4,1.2-0.4,2.4,0,3.6v-0.7h28.7l0,0.7C1374.6,401.8,1374.6,400.6,1374.2,399.4z"/>
		<path class="st35" d="M1349.4,406.5c5.7,3.3,15.1,3.3,20.8,0c2.1-1.2,3.4-2.7,4-4.2h-28.7C1346,403.8,1347.3,405.3,1349.4,406.5z"
			/>
		<rect x="1345.5" y="398.7" class="st46" width="28.7" height="0.7"/>
	</g>
</g>
<g>
	<polygon class="st27" points="1708,375 1700.7,365 1701.1,364.2 1713.1,366.1 	"/>
	<polygon class="st54" points="1721.9,388.6 1708,375 1713,366.1 1731.2,371.3 	"/>
	<g>
		<path class="st54" d="M1714.5,368.8c0,2.4-1.6,5.3-3.5,6.5c-1.9,1.1-3.5,0.1-3.5-2.4s1.6-5.3,3.5-6.5
			C1712.9,365.3,1714.5,366.4,1714.5,368.8z"/>
	</g>
	<polygon class="st5" points="1824.5,447.9 1722.2,388.9 1731.8,371.5 1833.8,430.3 	"/>
	<polygon class="st0" points="1837.5,455.7 1825,448 1834.5,430.6 1846.8,438.1 	"/>
	<g>
		<path class="st0" d="M1836.8,435.6c0,4.6-3.1,10.2-6.8,12.4c-3.7,2.2-6.8,0.1-6.8-4.5s3.1-10.2,6.8-12.4
			C1833.8,428.9,1836.8,431,1836.8,435.6z"/>
	</g>
	<g>
		<polygon class="st55" points="1857.9,467.3 1837.4,455.7 1846.4,437.7 1867.2,449.7 		"/>
		<g>
			<path class="st56" d="M1869.4,454.6c0,4.6-3.1,10.2-6.8,12.4c-3.7,2.2-6.8,0.1-6.8-4.5c0-4.6,3.1-10.2,6.8-12.4
				S1869.4,449.9,1869.4,454.6z"/>
		</g>
		<g>
			<path class="st55" d="M1848.9,442.9c0,4.6-3.1,10.2-6.8,12.4c-3.7,2.2-6.8,0.1-6.8-4.5c0-4.6,3.1-10.2,6.8-12.4
				C1845.9,436.2,1848.9,438.2,1848.9,442.9z"/>
		</g>
		<g>
			<path class="st55" d="M1870.6,456.4c0,4.1-2.7,8.9-5.9,10.8c-3.3,1.9-5.9,0.1-5.9-4c0-4.1,2.7-8.9,5.9-10.8
				C1868,450.5,1870.6,452.3,1870.6,456.4z"/>
		</g>
		<path class="st57" d="M1838.2,455.9"/>
	</g>
	<g>
		<path class="st5" d="M1734.2,376.5c0,4.6-3.1,10.2-6.8,12.4c-3.7,2.2-6.8,0.1-6.8-4.5c0-4.6,3.1-10.2,6.8-12.4
			S1734.2,371.9,1734.2,376.5z"/>
	</g>
	<g>
		<path class="st27" d="M1701.2,364.4c0,0.2-0.1,0.4-0.3,0.5c-0.2,0.1-0.3,0-0.3-0.2s0.1-0.4,0.3-0.5
			C1701.1,364.1,1701.2,364.2,1701.2,364.4z"/>
	</g>
</g>
</svg>
